<svg width="31" height="31" viewBox="0 0 31 31" fill="none" xmlns="http://www.w3.org/2000/svg">
<path fill-rule="evenodd" clip-rule="evenodd" d="M8 4C6.89543 4 6 4.89543 6 6V20.5C6 21.6046 6.89543 22.5 8 22.5H22C23.1046 22.5 24 21.6046 24 20.5V6C24 4.89543 23.1046 4 22 4H8ZM9.75 8.5C9.33579 8.5 9 8.83579 9 9.25C9 9.66421 9.33579 10 9.75 10H20.25C20.6642 10 21 9.66421 21 9.25C21 8.83579 20.6642 8.5 20.25 8.5H9.75ZM9 13.25C9 12.8358 9.33579 12.5 9.75 12.5H20.25C20.6642 12.5 21 12.8358 21 13.25C21 13.6642 20.6642 14 20.25 14H9.75C9.33579 14 9 13.6642 9 13.25ZM9.75 16.5C9.33579 16.5 9 16.8358 9 17.25C9 17.6642 9.33579 18 9.75 18H20.25C20.6642 18 21 17.6642 21 17.25C21 16.8358 20.6642 16.5 20.25 16.5H9.75Z" fill="#DADCDE"/>
</svg>
