<svg width="31" height="31" viewBox="0 0 31 31" fill="none" xmlns="http://www.w3.org/2000/svg">
<path d="M23.5 22.5L17.6667 16.6667M6 11.8056C6 12.6993 6.17603 13.5842 6.51804 14.4099C6.86005 15.2356 7.36135 15.9859 7.9933 16.6178C8.62526 17.2498 9.37549 17.7511 10.2012 18.0931C11.0269 18.4351 11.9118 18.6111 12.8056 18.6111C13.6993 18.6111 14.5842 18.4351 15.4099 18.0931C16.2356 17.7511 16.9859 17.2498 17.6178 16.6178C18.2498 15.9859 18.7511 15.2356 19.0931 14.4099C19.4351 13.5842 19.6111 12.6993 19.6111 11.8056C19.6111 10.9118 19.4351 10.0269 19.0931 9.20118C18.7511 8.37549 18.2498 7.62526 17.6178 6.9933C16.9859 6.36135 16.2356 5.86005 15.4099 5.51804C14.5842 5.17603 13.6993 5 12.8056 5C11.9118 5 11.0269 5.17603 10.2012 5.51804C9.37549 5.86005 8.62526 6.36135 7.9933 6.9933C7.36135 7.62526 6.86005 8.37549 6.51804 9.20118C6.17603 10.0269 6 10.9118 6 11.8056Z" stroke="#212121" stroke-width="2.7" stroke-linecap="round" stroke-linejoin="round"/>
</svg>
