<svg width="31" height="31" viewBox="0 0 31 31" fill="none" xmlns="http://www.w3.org/2000/svg">
<path d="M8.5 23C8.5 23 7 23 7 21.5C7 20 8.5 15.5 16 15.5C23.5 15.5 25 20 25 21.5C25 23 23.5 23 23.5 23H8.5ZM16 14C17.1935 14 18.3381 13.5259 19.182 12.682C20.0259 11.8381 20.5 10.6935 20.5 9.5C20.5 8.30653 20.0259 7.16193 19.182 6.31802C18.3381 5.47411 17.1935 5 16 5C14.8065 5 13.6619 5.47411 12.818 6.31802C11.9741 7.16193 11.5 8.30653 11.5 9.5C11.5 10.6935 11.9741 11.8381 12.818 12.682C13.6619 13.5259 14.8065 14 16 14Z" fill="#DADCDE"/>
</svg>
