<svg width="31" height="31" viewBox="0 0 31 31" fill="none" xmlns="http://www.w3.org/2000/svg">
<path fill-rule="evenodd" clip-rule="evenodd" d="M8.4668 4C7.36223 4 6.4668 4.89543 6.4668 6V20.5C6.4668 21.6046 7.36223 22.5 8.4668 22.5H22.4668C23.5714 22.5 24.4668 21.6046 24.4668 20.5V6C24.4668 4.89543 23.5714 4 22.4668 4H8.4668ZM10.2168 8C9.80258 8 9.4668 8.33579 9.4668 8.75C9.4668 9.16421 9.80258 9.5 10.2168 9.5H20.7168C21.131 9.5 21.4668 9.16421 21.4668 8.75C21.4668 8.33579 21.131 8 20.7168 8H10.2168ZM9.4668 12.75C9.4668 12.3358 9.80258 12 10.2168 12H20.7168C21.131 12 21.4668 12.3358 21.4668 12.75C21.4668 13.1642 21.131 13.5 20.7168 13.5H10.2168C9.80258 13.5 9.4668 13.1642 9.4668 12.75ZM10.2168 16C9.80258 16 9.4668 16.3358 9.4668 16.75C9.4668 17.1642 9.80258 17.5 10.2168 17.5H20.7168C21.131 17.5 21.4668 17.1642 21.4668 16.75C21.4668 16.3358 21.131 16 20.7168 16H10.2168Z" fill="#212121"/>
</svg>
