<svg width="100" height="100" viewBox="0 0 100 100" fill="none" xmlns="http://www.w3.org/2000/svg">
<path d="M35.3 71.8C31.395 71.8 28.2355 74.995 28.2355 78.9C28.2355 82.805 31.395 86 35.3 86C39.205 86 42.4 82.805 42.4 78.9C42.4 74.995 39.205 71.8 35.3 71.8ZM14 15V22.1H21.1L33.88 49.0445L29.0875 57.742C28.5195 58.736 28.2 59.9075 28.2 61.15C28.2 65.055 31.395 68.25 35.3 68.25H77.9V61.15H36.791C36.294 61.15 35.9035 60.7595 35.9035 60.2625L36.01 59.8365L39.205 54.05H65.6525C68.315 54.05 70.658 52.5945 71.865 50.3935L84.574 27.354C84.858 26.857 85 26.2535 85 25.65C85 23.6975 83.4025 22.1 81.45 22.1H28.9455L25.6085 15H14ZM70.8 71.8C66.895 71.8 63.7355 74.995 63.7355 78.9C63.7355 82.805 66.895 86 70.8 86C74.705 86 77.9 82.805 77.9 78.9C77.9 74.995 74.705 71.8 70.8 71.8Z" fill="#E8E8E8"/>
</svg>
