<svg width="151" height="150" viewBox="0 0 151 150" fill="none" xmlns="http://www.w3.org/2000/svg">
<rect x="27.7263" y="37.0654" width="87.6495" height="69.1959" fill="#D7EEF4"/>
<rect x="37.5" y="60" width="15" height="14" rx="1" fill="white"/>
<rect x="37.5" y="77" width="15" height="14" rx="1" fill="white"/>
<rect x="56.5" y="60" width="15" height="14" rx="1" fill="white"/>
<rect x="56.5" y="77" width="15" height="14" rx="1" fill="white"/>
<rect x="18.5" y="32.4521" width="106.102" height="9.22612" rx="4.61306" fill="#4CC3ED"/>
<path d="M23.1132 25.5331C23.1132 24.2592 24.1458 23.2266 25.4197 23.2266H117.682C118.956 23.2266 119.989 24.2592 119.989 25.5331V32.4527H23.1132V25.5331Z" fill="#9DE1F4"/>
<path d="M119.989 48.5987C119.989 49.8726 118.956 50.9053 117.682 50.9053L25.4196 50.9053C24.1457 50.9053 23.1131 49.8726 23.1131 48.5988L23.1131 41.6792L119.989 41.6792L119.989 48.5987Z" fill="#9DE1F4"/>
<rect x="23.5" y="106" width="94.5691" height="6.91959" rx="2.30653" fill="#BDD2D9"/>
<path d="M81.5 71.31C81.5 70.0342 82.5342 69 83.81 69H101.19C102.466 69 103.5 70.0342 103.5 71.31V106H81.5V71.31Z" fill="#88DCF4"/>
<path d="M90.0035 34.7588C90.0035 44.9496 81.7421 53.211 71.551 53.211C61.3599 53.211 53.0984 44.9496 53.0984 34.7588C53.0984 24.5679 61.3599 16.3065 71.551 16.3065C81.7421 16.3065 90.0035 24.5679 90.0035 34.7588Z" fill="white" stroke="#BDD2D9" stroke-width="4.61305"/>
<rect x="67.8177" y="23.2285" width="7.46241" height="23.0653" rx="1.15326" fill="#4CC3ED"/>
<rect x="83.084" y="31.0322" width="7.4623" height="23.0656" rx="1.15326" transform="rotate(90 83.084 31.0322)" fill="#4CC3ED"/>
<ellipse cx="117" cy="131.5" rx="18.5" ry="5.5" fill="#EEEEEE"/>
<path d="M92.3089 91.6329C92.3089 76.7827 103.321 64.7443 116.904 64.7443C130.488 64.7443 141.5 76.7827 141.5 91.6329C141.5 103.041 126.985 120.365 120.256 127.783C118.39 129.842 115.419 129.842 113.552 127.783C106.823 120.365 92.3089 103.041 92.3089 91.6329Z" fill="#4BBA54"/>
<ellipse cx="116.903" cy="88.0624" rx="8.96998" ry="8.96984" transform="rotate(-180 116.903 88.0624)" fill="white"/>
</svg>
