<svg width="222" height="38" viewBox="0 0 222 38" fill="none" xmlns="http://www.w3.org/2000/svg">
<g clip-path="url(#clip0_1887_29646)">
<path fill-rule="evenodd" clip-rule="evenodd" d="M1.95391 30.6845C2.4046 31.1266 3.01584 31.3749 3.65321 31.3749C3.96938 31.3758 4.28257 31.3155 4.57494 31.1975C4.8673 31.0794 5.13317 30.9059 5.35706 30.6869C5.58095 30.4679 5.75851 30.2077 5.87972 29.9212C6.00092 29.6348 6.06332 29.3276 6.06332 29.0175V26.5651C6.76627 27.0138 7.5193 27.382 8.3077 27.6626C9.46075 28.0635 10.6753 28.2674 11.8987 28.2655C13.3213 28.2689 14.7303 27.9926 16.0421 27.4526C17.3042 26.9207 18.4542 26.1625 19.433 25.217C20.3969 24.2583 21.1675 23.1298 21.7048 21.8908C22.258 20.6044 22.5423 19.2222 22.5406 17.8261C22.5427 16.43 22.2584 15.0477 21.7048 13.7615C21.1692 12.5199 20.3957 11.3907 19.4261 10.4353C18.4502 9.48629 17.2995 8.72764 16.0352 8.19968C14.7238 7.65832 13.3146 7.38186 11.8918 7.38678C10.4691 7.38334 9.06017 7.65973 7.74829 8.19968C6.48448 8.72851 5.33408 9.48706 4.35761 10.4353C3.39232 11.3928 2.62128 12.5215 2.08558 13.7615C1.53208 15.0477 1.24794 16.43 1.25001 17.8261V29.0175C1.25001 29.6427 1.50322 30.2424 1.95391 30.6845ZM9.61299 12.5489C10.336 12.2576 11.1101 12.108 11.8918 12.1085C12.6712 12.1073 13.4434 12.2569 14.1638 12.5489C14.854 12.8396 15.4818 13.2555 16.0145 13.775C16.5431 14.2997 16.9692 14.9151 17.2714 15.5906C17.5726 16.2989 17.7276 17.0587 17.7273 17.8261C17.7286 18.5908 17.5759 19.3482 17.2783 20.0549C16.9763 20.7325 16.5503 21.3502 16.0214 21.8773C15.4881 22.396 14.8604 22.8119 14.1707 23.1034C13.4491 23.4001 12.6742 23.5522 11.8918 23.5505C11.1123 23.5518 10.3402 23.4021 9.61973 23.1102C8.93277 22.8138 8.30589 22.3985 7.76903 21.8841C7.24017 21.357 6.81414 20.7393 6.51213 20.0617C6.20966 19.3538 6.05475 18.5937 6.05641 17.8261C6.05586 17.0637 6.20849 16.3087 6.50538 15.6042C6.8074 14.9265 7.23326 14.3089 7.76212 13.7818C8.29793 13.2644 8.92513 12.8467 9.61299 12.5489Z" fill="#FF6A00"/>
<path fill-rule="evenodd" clip-rule="evenodd" d="M31.0074 27.4555C32.319 27.9963 33.7281 28.2728 35.1509 28.2684C37.2088 28.2876 39.2258 27.7051 40.9448 26.5951C41.9148 25.9804 42.7775 25.2164 43.4999 24.3325C43.7291 24.0504 43.8899 23.7207 43.9701 23.3686C44.0503 23.0165 44.0478 22.6512 43.9627 22.3002C43.8792 21.9518 43.7157 21.6266 43.4847 21.3495C43.2537 21.0725 42.9613 20.8508 42.6297 20.7014C42.3217 20.5564 41.984 20.4822 41.6423 20.4846C41.2706 20.4868 40.9041 20.5715 40.5705 20.7322C40.2368 20.8929 39.9446 21.1255 39.7155 21.4127C39.3252 21.8896 38.8588 22.3014 38.3344 22.6321C37.3876 23.2367 36.2805 23.5547 35.1509 23.5467C33.7909 23.5657 32.4702 23.0985 31.4355 22.2324C30.5629 21.5433 29.9207 20.6137 29.5917 19.5633H43.9971C44.2316 19.5651 44.4643 19.5214 44.6816 19.4348C44.8989 19.3482 45.0966 19.2204 45.2634 19.0586C45.4302 18.8969 45.5629 18.7043 45.6537 18.4921C45.7445 18.28 45.7917 18.0524 45.7926 17.8223C45.7939 16.9427 45.6826 16.0664 45.4612 15.2141C45.166 14.1065 44.6877 13.0538 44.0455 12.0979C43.4119 11.1492 42.626 10.3074 41.7183 9.60495C40.8077 8.90235 39.7858 8.35081 38.6935 7.97229C37.554 7.58559 36.3566 7.38868 35.1509 7.3897C33.7281 7.38534 32.319 7.66176 31.0074 8.2026C29.7436 8.73143 28.593 9.48997 27.6166 10.4382C26.6492 11.3955 25.8758 12.5241 25.3376 13.7644C24.7863 15.051 24.5045 16.4333 24.509 17.829C24.5049 19.2247 24.7867 20.6069 25.3376 21.8937C25.8774 23.133 26.6506 24.2615 27.6166 25.2199C28.5953 26.1654 29.7453 26.9236 31.0074 27.4555ZM38.3897 13.0667C39.1044 13.5254 39.704 14.1368 40.1438 14.8551H30.1648C30.606 14.1402 31.2026 13.5296 31.9119 13.0667C32.8701 12.4382 33.9983 12.1055 35.1509 12.1114C36.3038 12.1035 37.4324 12.4363 38.3897 13.0667Z" fill="#FF6A00"/>
<path fill-rule="evenodd" clip-rule="evenodd" d="M55.2739 28.0136C55.7293 28.2721 56.2469 28.4064 56.7729 28.4025C57.3091 28.4009 57.8349 28.2579 58.2954 27.9885C58.7558 27.7192 59.134 27.3334 59.3903 26.8715L66.9866 11.3784C67.3024 10.8438 67.3889 10.2082 67.227 9.61112C67.0652 9.01406 66.6681 8.50444 66.1234 8.19438C65.7591 7.99153 65.3476 7.88423 64.9287 7.88278C64.5067 7.88783 64.0934 8.00113 63.73 8.21149C63.3665 8.42186 63.0655 8.72197 62.857 9.08186L56.7937 21.7975L50.696 9.04796C50.4872 8.69035 50.1853 8.39348 49.8213 8.1876C49.4574 7.98171 49.0444 7.87419 48.6243 7.876C48.2045 7.87796 47.7925 7.98772 47.4294 8.19438C46.8872 8.49966 46.4902 9.00281 46.3246 9.59416C46.159 10.1855 46.2385 10.8171 46.5456 11.3513L54.1833 26.9324C54.442 27.3818 54.8186 27.7551 55.2739 28.0136Z" fill="#FF6A00"/>
<path fill-rule="evenodd" clip-rule="evenodd" d="M73.9336 27.4526C75.245 27.994 76.6542 28.2704 78.077 28.2655C79.4997 28.2689 80.9086 27.9925 82.2205 27.4526C83.4826 26.9207 84.6324 26.1625 85.6112 25.217C86.5751 24.2583 87.3459 23.1298 87.8832 21.8907C88.4364 20.6044 88.7205 19.2222 88.7188 17.8261C88.7209 16.43 88.4367 15.0477 87.8832 13.7614C87.3476 12.5199 86.5739 11.3907 85.6043 10.4353C84.6303 9.4841 83.4793 8.72515 82.2136 8.19968C80.9022 7.65832 79.4929 7.38186 78.0701 7.38678C76.6474 7.38334 75.2385 7.65973 73.9266 8.19968C72.6646 8.73163 71.5147 9.4898 70.536 10.4353C69.5707 11.3928 68.7996 12.5215 68.2639 13.7614C67.7104 15.0477 67.4263 16.43 67.4284 17.8261C67.4267 19.2222 67.7108 20.6044 68.2639 21.8907C68.8012 23.1315 69.5747 24.2604 70.5429 25.217C71.5187 26.166 72.6693 26.9246 73.9336 27.4526ZM75.7981 12.5489C76.5207 12.2562 77.2952 12.1066 78.077 12.1085C78.8565 12.1073 79.6286 12.2569 80.3491 12.5489C81.0394 12.846 81.6688 13.2637 82.2067 13.7818C82.7365 14.3013 83.1566 14.9183 83.4428 15.5974C83.7522 16.3012 83.912 17.0596 83.9124 17.8261C83.9119 18.5948 83.7522 19.3554 83.4428 20.0617C83.1515 20.7381 82.7321 21.3542 82.2067 21.8773C81.6698 22.3917 81.0429 22.807 80.356 23.1034C79.6344 23.4001 78.8595 23.5522 78.077 23.5505C77.2974 23.553 76.5251 23.4033 75.805 23.1102C75.1152 22.8188 74.4875 22.4029 73.9543 21.8841C73.424 21.3582 72.9977 20.7402 72.6974 20.0617C72.3949 19.3538 72.24 18.5937 72.2417 17.8261C72.2416 17.0616 72.3941 16.3045 72.6905 15.5974C72.9891 14.9199 73.4156 14.3039 73.9474 13.7818C74.4809 13.2616 75.1085 12.8436 75.7981 12.5489Z" fill="#FF6A00"/>
</g>
<path d="M113.502 10.1836C112.509 9.20226 111.355 8.42741 110.069 7.8791C108.741 7.32076 107.331 7.03809 105.88 7.03809C104.43 7.03809 103.018 7.32076 101.687 7.8801C100.405 8.42641 99.2513 9.20126 98.2529 10.1876C97.2716 11.181 96.4967 12.3358 95.9484 13.6198C95.3901 14.949 95.1074 16.3584 95.1074 17.8098V29.3565C95.1074 30.6977 96.199 31.7893 97.5402 31.7893C98.8815 31.7893 99.9741 30.6977 99.9741 29.3565V26.8254C100.685 27.2915 101.445 27.6714 102.245 27.9601C103.406 28.3731 104.629 28.5826 105.88 28.5826C107.332 28.5826 108.741 28.2999 110.072 27.7406C111.355 27.1943 112.509 26.4194 113.506 25.4331C114.488 24.4397 115.263 23.2859 115.811 22.0009C116.369 20.6727 116.652 19.2623 116.652 17.8109C116.652 16.3594 116.369 14.949 115.81 13.6178C115.263 12.3358 114.488 11.181 113.502 10.1836ZM111.331 20.1083C111.026 20.807 110.596 21.4405 110.059 21.9888C109.519 22.5281 108.887 22.9562 108.188 23.2569C107.451 23.5616 106.674 23.716 105.88 23.716C105.086 23.716 104.309 23.5616 103.581 23.2609C102.882 22.9562 102.249 22.5271 101.703 21.9919C101.161 21.4385 100.732 20.805 100.431 20.1174C100.127 19.3816 99.9731 18.6047 99.9731 17.8098C99.9731 17.0149 100.127 16.2381 100.427 15.5114C100.731 14.8147 101.16 14.1812 101.696 13.6349C102.248 13.0926 102.882 12.6635 103.571 12.3628C104.307 12.0581 105.084 11.9037 105.879 11.9037C106.674 11.9037 107.45 12.0581 108.18 12.3598C108.886 12.6635 109.518 13.0916 110.055 13.6278C110.596 14.1792 111.026 14.8127 111.327 15.5023C111.632 16.2391 111.785 17.016 111.785 17.8098C111.785 18.6037 111.631 19.3816 111.331 20.1083Z" fill="black"/>
<path d="M184.695 16.8045C186.276 16.3841 187.003 14.559 186.138 13.1743C186.073 13.069 186.005 12.9654 185.936 12.8626C185.289 11.8898 184.49 11.0291 183.559 10.3054C181.596 8.77775 179.335 8.00391 176.839 8.00391C175.365 8.00391 173.933 8.29055 172.581 8.85714C171.277 9.41036 170.105 10.1959 169.092 11.1937C168.094 12.1999 167.307 13.3682 166.751 14.6693C166.183 16.0148 165.896 17.4429 165.896 18.9129V26.719C165.896 28.0737 166.997 29.1718 168.356 29.1718C169.715 29.1718 170.816 28.0737 170.816 26.719V18.9129C170.816 18.1065 170.973 17.3193 171.281 16.5722C171.592 15.8643 172.029 15.2217 172.577 14.6651C173.127 14.1169 173.772 13.6824 174.487 13.3748C175.228 13.0665 176.018 12.9094 176.838 12.9094C178.207 12.9094 179.447 13.3339 180.526 14.1704C181.113 14.625 181.595 15.1532 181.964 15.7499C182.522 16.6499 183.589 17.0986 184.615 16.8262L184.694 16.8053L184.695 16.8045Z" fill="black"/>
<path d="M163.055 13.9743C162.498 12.6723 161.709 11.4998 160.705 10.487C159.693 9.49082 158.518 8.7036 157.209 8.14704C155.857 7.58044 154.42 7.29297 152.942 7.29297C151.464 7.29297 150.029 7.57961 148.672 8.14787C147.365 8.70277 146.189 9.49082 145.175 10.4911C144.175 11.4998 143.386 12.6723 142.828 13.9759C142.26 15.3264 141.971 16.7579 141.971 18.2304C141.971 19.7029 142.26 21.1352 142.829 22.4874C143.386 23.7902 144.175 24.9618 145.18 25.9747C146.19 26.9725 147.365 27.7589 148.675 28.3146C150.028 28.8812 151.464 29.1687 152.942 29.1687C154.421 29.1687 155.857 28.882 157.213 28.3138C158.518 27.7589 159.693 26.9725 160.709 25.9705C161.708 24.9618 162.498 23.7902 163.056 22.4857C163.624 21.1361 163.913 19.7037 163.913 18.2312C163.913 16.7588 163.624 15.3264 163.056 13.9734H163.054L163.055 13.9743ZM158.474 20.572C158.176 21.2773 157.745 21.9183 157.201 22.4723C156.64 23.023 155.993 23.4584 155.293 23.7643C154.541 24.0735 153.751 24.2306 152.942 24.2306C152.133 24.2306 151.334 24.0735 150.599 23.7676C149.879 23.4584 149.235 23.0247 148.689 22.4798C148.137 21.9199 147.699 21.2756 147.393 20.5762C147.083 19.8291 146.926 19.041 146.926 18.2329C146.926 17.4248 147.083 16.6367 147.391 15.8963C147.701 15.1785 148.136 14.5375 148.686 13.9901C149.235 13.4428 149.879 13.0082 150.594 12.7007C151.332 12.3923 152.122 12.2352 152.941 12.2352C153.759 12.2352 154.541 12.3923 155.282 12.6973C155.992 13.0065 156.639 13.4428 157.196 13.9901C157.744 14.5375 158.174 15.1768 158.474 15.8955C158.794 16.6426 158.956 17.429 158.956 18.2337C158.956 19.0385 158.794 19.8249 158.474 20.5728V20.572Z" fill="black"/>
<path d="M163.912 26.696V18.8405C163.912 17.4767 162.803 16.3711 161.435 16.3711C160.067 16.3711 158.958 17.4767 158.958 18.8405V26.696C158.958 28.0598 160.067 29.1654 161.435 29.1654C162.803 29.1654 163.912 28.0598 163.912 26.696Z" fill="black"/>
<path d="M204.535 28.9453C203.186 28.9453 202.092 27.8514 202.092 26.5021L202.092 16.9881C202.092 14.4622 200.036 12.4071 197.51 12.4071C194.983 12.4071 192.929 14.4622 192.929 16.9881L192.929 26.5021C192.929 27.8514 191.834 28.9453 190.485 28.9453C189.137 28.9453 188.041 27.8514 188.041 26.5021L188.041 16.9881C188.041 11.7677 192.289 7.51994 197.509 7.51994C202.729 7.51994 206.977 11.7669 206.977 16.9881L206.977 26.5021C206.977 27.8514 205.883 28.9453 204.533 28.9453L204.535 28.9453Z" fill="black"/>
<path d="M218.665 28.9453C217.316 28.9453 216.221 27.8514 216.221 26.5021L216.221 16.9881C216.221 14.4622 214.166 12.4071 211.64 12.4071C209.114 12.4071 207.059 14.4622 207.059 16.9881L207.059 26.5021C207.059 27.8514 205.964 28.9453 204.615 28.9453C203.266 28.9453 202.172 27.8514 202.172 26.5021L202.172 16.9881C202.172 11.7677 206.42 7.51994 211.639 7.51994C216.859 7.51994 221.107 11.7669 221.107 16.9881L221.107 26.5021C221.107 27.8514 220.013 28.9453 218.664 28.9453L218.665 28.9453Z" fill="black"/>
<path d="M139.197 13.4047C138.65 12.1194 137.872 10.9631 136.884 9.96298C135.888 8.97902 134.732 8.20306 133.442 7.65377C132.11 7.0943 130.696 6.81074 129.242 6.81074C127.989 6.81074 126.762 7.02043 125.595 7.43558C124.795 7.72339 124.033 8.10458 123.319 8.57236V5.11404C123.319 3.76756 122.227 2.67578 120.88 2.67578C119.533 2.67578 118.441 3.76756 118.441 5.11404V25.3218C118.441 26.6683 119.533 27.76 120.88 27.76C122.227 27.76 123.319 26.6683 123.319 25.3218V17.6072C123.319 16.8117 123.473 16.0349 123.777 15.2988C124.082 14.6009 124.512 13.9676 125.051 13.4183C125.592 12.8775 126.226 12.4488 126.927 12.1465C127.666 11.8418 128.444 11.6864 129.241 11.6864C130.037 11.6864 130.813 11.8401 131.55 12.144C132.247 12.4488 132.88 12.8775 133.431 13.4175C133.972 13.9684 134.4 14.6009 134.705 15.2979C135.009 16.0349 135.163 16.8117 135.163 17.6063V25.3209C135.163 26.6674 136.255 27.7592 137.602 27.7592C138.949 27.7592 140.042 26.6674 140.042 25.3209V17.6063C140.042 16.152 139.758 14.7393 139.197 13.4047H139.197Z" fill="black"/>
<defs>
<clipPath id="clip0_1887_29646">
<rect width="87.4618" height="36.1911" fill="white" transform="translate(1.25 1.35742)"/>
</clipPath>
</defs>
</svg>
