<svg width="139" height="32" viewBox="0 0 139 32" fill="none" xmlns="http://www.w3.org/2000/svg">
<path d="M22.0423 25.0169H4.34735C2.44904 25.0169 1.39819 23.9322 1.39819 22.339C1.39819 20.7458 2.44904 19.661 4.34735 19.661H24.6186C28.8559 19.661 29.6355 20.8136 29.6355 24.8814V28.4407C29.6355 30.3128 28.1179 31.8305 26.2457 31.8305C24.3735 31.8305 22.8559 30.3128 22.8559 28.4407V25.8305C22.8559 25.322 22.5847 25.0169 22.0423 25.0169ZM25.9067 18.4068C24.072 18.4068 22.5847 16.9195 22.5847 15.0847V3.35593C22.5847 1.15254 24.1101 0 25.9067 0C27.6016 0 29.1271 1.15254 29.2288 3.18644H30.2796C32.3135 3.18644 32.822 4.54237 32.822 5.86441C32.822 7.18644 32.2796 8.50847 30.2796 8.50847H29.2288V10.4068H30.2796C32.3135 10.4068 32.822 11.7627 32.822 13.0847C32.822 14.4068 32.2796 15.7288 30.2796 15.7288H29.2288C29.2288 17.2078 28.0298 18.4068 26.5508 18.4068H25.9067Z" fill="#06C755"/>
<path d="M62.8898 6.30508H54.5508C54.483 6.88136 54.3813 7.45763 54.2458 7.9661H54.5847C59.1 7.88401 63.6816 9.9006 65.4938 14.3726C66.2535 16.2471 64.5752 18 62.5526 18C60.8459 18 59.4878 16.6578 58.4069 15.337C57.0372 13.6631 54.7127 12.8444 52.0424 12.9153C51.839 12.9153 51.6017 12.9492 51.3305 12.9831C48.3135 16.0678 43.7034 17.7288 39.5678 18C37.7033 18.1356 36.1779 17.1186 35.9745 15.5254C35.7711 14.0339 36.6186 12.6441 38.2796 12.4407C42.9576 11.8983 46.8559 9.9661 47.5339 6.30508H39.4322C37.3983 6.30508 36.5847 4.91525 36.5847 3.52542C36.5847 2.16949 37.3644 0.745763 39.4322 0.745763H62.8898C64.9576 0.745763 65.7373 2.16949 65.7373 3.52542C65.7373 4.91525 64.9237 6.30508 62.8898 6.30508ZM64.178 24.7458H54.6186V28.5424C54.6186 30.452 53.0706 32 51.161 32C49.2514 32 47.7034 30.452 47.7034 28.5424V24.7458H38.144C36.1101 24.7458 35.2966 23.3898 35.2966 22C35.2966 20.6441 36.0762 19.2203 38.144 19.2203H64.178C66.2458 19.2203 67.0254 20.6441 67.0254 22C67.0254 23.3898 66.2119 24.7458 64.178 24.7458Z" fill="#06C755"/>
<path d="M71.4322 24.983C74.9915 21.7966 75.9068 17.5593 75.9068 7.62712V4.20339C75.9068 2.0339 77.2966 1.01695 79.0593 1.01695C80.7882 1.01695 82.2458 2.13559 82.2458 4.20339V7.59322C82.2458 10.3051 82.1102 12.7797 81.839 15.0169C85.5736 16.7939 87.783 20.1764 87.8489 27.114C87.8638 28.6776 86.5522 29.8983 84.9885 29.8983C83.1966 29.8983 81.8577 28.3144 81.8362 26.5226C81.8099 24.3221 81.3555 22.7006 80.517 21.5593C79.3305 25.4915 77.5678 28.1356 75.5 29.5593C74.2119 30.4407 72.0085 30.7797 70.822 29.3559C69.7712 28.1017 70.0763 26.1695 71.4322 24.983ZM92.0424 31.8305C90.4324 31.8305 89.1272 30.5253 89.1272 28.9153V15.322H86.3475C84.3136 15.322 83.5 13.7966 83.5 12.4068C83.5 11.0508 84.2797 9.49153 86.3475 9.49153H89.1272V2.88136C89.1272 0.98305 90.4492 0 92.0085 0C93.534 0 94.9577 1.01695 94.9577 2.88136V28.9152C94.9577 30.5253 93.6525 31.8305 92.0424 31.8305ZM99.5679 31.8305C97.9016 31.8305 96.5509 30.4798 96.5509 28.8136V2.88136C96.5509 0.98305 98.0085 0 99.5679 0C101.093 0 102.585 1.01695 102.585 2.88136V28.8136C102.585 30.4798 101.234 31.8305 99.5679 31.8305Z" fill="#06C755"/>
<path d="M108.11 9.9661V9.55932C108.11 4.91525 111.229 0.847457 116.924 0.847457H129.127C134.822 0.847457 137.941 4.91525 137.941 9.55932V9.9661C137.941 14.6102 134.822 18.6441 129.127 18.6441H116.924C111.229 18.6441 108.11 14.6102 108.11 9.9661ZM110.009 25.7288H113.297V22.6441C113.297 20.4407 114.856 19.7627 116.653 19.7627C118.415 19.7627 120.009 20.4746 120.009 22.6441V25.7288H126.042V22.6441C126.042 20.4407 127.602 19.7627 129.398 19.7627C131.161 19.7627 132.754 20.4746 132.754 22.6441V25.7288H136.043C138.11 25.7288 138.89 27.0847 138.89 28.4407C138.89 29.8305 138.076 31.1525 136.043 31.1525H110.009C107.975 31.1525 107.161 29.8305 107.161 28.4407C107.161 27.0847 107.941 25.7288 110.009 25.7288ZM130.89 10.0339V9.49153C130.89 7.69492 129.5 6.37288 127.263 6.37288H118.788C116.551 6.37288 115.161 7.69492 115.161 9.49153V10.0339C115.161 11.8305 116.551 13.1525 118.788 13.1525H127.263C129.5 13.1525 130.89 11.8305 130.89 10.0339Z" fill="#06C755"/>
<path d="M8.09702 0.53125C3.28575 0.934473 0.109863 3.32503 0.109863 8.33426V10.0293C0.109863 15.0385 3.28575 17.4291 8.09702 17.8323V0.53125Z" fill="#06C755"/>
<path d="M11.5128 17.8005C16.1346 17.315 19.1625 14.9205 19.1625 10.0293V8.33426C19.1625 3.44309 16.1346 1.04861 11.5128 0.56308V17.8005Z" fill="#06C755"/>
</svg>
