<svg width="36" height="36" viewBox="0 0 36 36" fill="none" xmlns="http://www.w3.org/2000/svg">
<path d="M13.3439 9.30859L17.8759 11.4815L22.0354 9.80525C24.022 9.6397 27.9952 10.5254 27.9952 15.3926C27.9952 20.2598 21.249 25.036 17.8759 26.8157L14.2751 24.767L8.874 19.3038L7.8186 14.0889L10.0536 10.5502L13.3439 9.30859Z" fill="white"/>
<path d="M21.9124 24.4563C20.5094 25.4864 19.1043 26.2378 17.9998 26.6048C14.5232 25.4496 8.06665 20.4831 8.06665 15.0199C8.06665 12.0027 10.5127 9.55664 13.5299 9.55664C15.3774 9.55664 17.0114 10.474 17.9998 11.878C18.5035 11.1604 19.1728 10.5748 19.9509 10.1707C20.7289 9.76667 21.5929 9.55602 22.4697 9.55664C25.4868 9.55664 27.9329 12.0027 27.9329 15.0199C27.9329 15.8875 27.77 16.7423 27.4824 17.5712" stroke="black" stroke-width="1.575" stroke-linecap="round" stroke-linejoin="round"/>
<path d="M19.4897 20.4837H21.4764L22.9663 18.4971L24.4563 22.4703L25.9274 20.4837H27.9329" stroke="black" stroke-width="1.575" stroke-linecap="round" stroke-linejoin="round"/>
</svg>
