<svg width="36" height="36" viewBox="0 0 36 36" fill="none" xmlns="http://www.w3.org/2000/svg">
<path fill-rule="evenodd" clip-rule="evenodd" d="M20.6786 14.2088C21.8282 14.1623 22.7111 12.9581 22.6491 11.5196C22.5871 10.0812 21.6084 8.95493 20.4588 9.00139C19.3092 9.04785 18.4281 10.254 18.4883 11.6925C18.5484 13.1309 19.5308 14.2571 20.6786 14.2088ZM15.4418 14.2089C16.5915 14.1606 17.4725 12.9563 17.4124 11.5179C17.3522 10.0794 16.3698 8.95318 15.222 9.0015C14.0742 9.04982 13.1895 10.2522 13.2515 11.6907C13.3134 13.1291 14.2922 14.2554 15.4418 14.2089ZM24.8067 13.2518C25.9544 13.2053 26.9369 14.3316 26.997 15.77C27.0572 17.2085 26.1761 18.4109 25.0265 18.4592C23.8769 18.5075 22.8981 17.3813 22.8362 15.9428C22.7742 14.5044 23.6589 13.2982 24.8067 13.2518ZM13.1637 16.1251C13.1017 14.6866 12.1211 13.5604 10.9734 13.6069C9.8256 13.6533 8.94083 14.8595 9.00282 16.2979C9.06481 17.7364 10.0435 18.8626 11.1931 18.8143C12.3428 18.766 13.2181 17.5635 13.1637 16.1251ZM12.6488 20.2713C12.985 20.1201 13.2324 19.9346 13.4268 19.7252C13.5542 19.4776 13.6468 19.2146 13.7423 18.9437C13.9629 18.3174 14.1985 17.6486 14.9128 17.0302C15.5126 16.5123 16.2417 16.1625 17.0242 16.0174C17.2245 15.979 17.4271 15.9538 17.6305 15.9418C17.8146 15.923 18.0003 15.9152 18.1866 15.9187C18.3697 15.9154 18.5521 15.9231 18.733 15.9415C18.938 15.9534 19.142 15.9787 19.3438 16.0173C20.1263 16.1624 20.8553 16.5122 21.4552 17.0301C22.1695 17.6485 22.4051 18.3173 22.6257 18.9436C22.7212 19.2147 22.8139 19.4778 22.9414 19.7255C23.1357 19.9349 23.3831 20.1203 23.7191 20.2714C24.7485 20.7366 25.268 21.8345 25.2137 22.9616C25.2531 23.8237 24.9461 24.7383 24.288 25.4192C23.5206 26.2391 22.4973 26.7803 21.3819 26.9562H21.3707H21.3425C20.5654 27.0563 19.7757 26.9878 19.0282 26.7555C18.9155 26.722 18.8084 26.6904 18.7032 26.6626H18.7445C18.5415 26.6109 18.353 26.567 18.1842 26.5343C18.0154 26.567 17.8267 26.6109 17.6234 26.6626H17.6648C17.5596 26.6905 17.4525 26.7221 17.3398 26.7556C16.5922 26.9879 15.8025 27.0564 15.0255 26.9563H14.9973H14.986C13.8707 26.7804 12.8473 26.2392 12.08 25.4193C11.4218 24.7384 11.1149 23.8237 11.1543 22.9616C11.0999 21.8345 11.6194 20.7365 12.6488 20.2713Z" fill="#434343"/>
<path fill-rule="evenodd" clip-rule="evenodd" d="M20.6786 14.2088C21.8282 14.1623 22.7111 12.9581 22.6491 11.5196C22.5871 10.0812 21.6084 8.95493 20.4588 9.00139C19.3092 9.04785 18.4281 10.254 18.4883 11.6925C18.5484 13.1309 19.5308 14.2571 20.6786 14.2088ZM15.4418 14.2089C16.5915 14.1606 17.4725 12.9563 17.4124 11.5179C17.3522 10.0794 16.3698 8.95318 15.222 9.0015C14.0742 9.04982 13.1895 10.2522 13.2515 11.6907C13.3134 13.1291 14.2922 14.2554 15.4418 14.2089ZM24.8067 13.2518C25.9544 13.2053 26.9369 14.3316 26.997 15.77C27.0572 17.2085 26.1761 18.4109 25.0265 18.4592C23.8769 18.5075 22.8981 17.3813 22.8362 15.9428C22.7742 14.5044 23.6589 13.2982 24.8067 13.2518ZM13.1637 16.1251C13.1017 14.6866 12.1211 13.5604 10.9734 13.6069C9.8256 13.6533 8.94083 14.8595 9.00282 16.2979C9.06481 17.7364 10.0435 18.8626 11.1931 18.8143C12.3428 18.766 13.2181 17.5635 13.1637 16.1251ZM12.6488 20.2713C12.985 20.1201 13.2324 19.9346 13.4268 19.7252C13.5542 19.4776 13.6468 19.2146 13.7423 18.9437C13.9629 18.3174 14.1985 17.6486 14.9128 17.0302C15.5126 16.5123 16.2417 16.1625 17.0242 16.0174C17.2245 15.979 17.4271 15.9538 17.6305 15.9418C17.8146 15.923 18.0003 15.9152 18.1866 15.9187C18.3697 15.9154 18.5521 15.9231 18.733 15.9415C18.938 15.9534 19.142 15.9787 19.3438 16.0173C20.1263 16.1624 20.8553 16.5122 21.4552 17.0301C22.1695 17.6485 22.4051 18.3173 22.6257 18.9436C22.7212 19.2147 22.8139 19.4778 22.9414 19.7255C23.1357 19.9349 23.3831 20.1203 23.7191 20.2714C24.7485 20.7366 25.268 21.8345 25.2137 22.9616C25.2531 23.8237 24.9461 24.7383 24.288 25.4192C23.5206 26.2391 22.4973 26.7803 21.3819 26.9562H21.3707H21.3425C20.5654 27.0563 19.7757 26.9878 19.0282 26.7555C18.9155 26.722 18.8084 26.6904 18.7032 26.6626H18.7445C18.5415 26.6109 18.353 26.567 18.1842 26.5343C18.0154 26.567 17.8267 26.6109 17.6234 26.6626H17.6648C17.5596 26.6905 17.4525 26.7221 17.3398 26.7556C16.5922 26.9879 15.8025 27.0564 15.0255 26.9563H14.9973H14.986C13.8707 26.7804 12.8473 26.2392 12.08 25.4193C11.4218 24.7384 11.1149 23.8237 11.1543 22.9616C11.0999 21.8345 11.6194 20.7365 12.6488 20.2713Z" fill="white"/>
<path d="M22.6491 11.5196L23.4359 11.4857L22.6491 11.5196ZM20.6786 14.2088L20.6468 13.422L20.6454 13.422L20.6786 14.2088ZM20.4588 9.00139L20.4906 9.78825L20.4588 9.00139ZM18.4883 11.6925L17.7014 11.7253L18.4883 11.6925ZM17.4124 11.5179L16.6255 11.5507L17.4124 11.5179ZM15.4418 14.2089L15.4736 14.9958L15.4749 14.9957L15.4418 14.2089ZM15.222 9.0015L15.2551 9.7883L15.222 9.0015ZM13.2515 11.6907L12.4647 11.7246L13.2515 11.6907ZM24.8067 13.2518L24.7748 12.4649L24.8067 13.2518ZM25.0265 18.4592L24.9934 17.6724L25.0265 18.4592ZM22.8362 15.9428L23.6229 15.9089V15.9089L22.8362 15.9428ZM10.9734 13.6069L11.0052 14.3937H11.0052L10.9734 13.6069ZM13.1637 16.1251L13.9506 16.0953L13.9504 16.0912L13.1637 16.1251ZM9.00282 16.2979L9.78959 16.264L9.00282 16.2979ZM11.1931 18.8143L11.2262 19.6011L11.1931 18.8143ZM13.4268 19.7252L14.004 20.2609L14.0776 20.1816L14.127 20.0855L13.4268 19.7252ZM12.6488 20.2713L12.3258 19.5531L12.3245 19.5537L12.6488 20.2713ZM13.7423 18.9437L12.9995 18.6821L12.9995 18.6821L13.7423 18.9437ZM14.9128 17.0302L14.3981 16.4342L14.3974 16.4348L14.9128 17.0302ZM17.0242 16.0174L17.1679 16.7917L17.1722 16.7908L17.0242 16.0174ZM17.6305 15.9418L17.6769 16.728L17.6939 16.727L17.7109 16.7252L17.6305 15.9418ZM18.1866 15.9187L18.1716 16.7061L18.1861 16.7063L18.2007 16.7061L18.1866 15.9187ZM18.733 15.9415L18.6534 16.725L18.6704 16.7267L18.6874 16.7277L18.733 15.9415ZM19.3438 16.0173L19.1958 16.7907L19.2001 16.7915L19.3438 16.0173ZM21.4552 17.0301L21.9706 16.4347L21.9699 16.4341L21.4552 17.0301ZM22.6257 18.9436L21.8829 19.2052V19.2052L22.6257 18.9436ZM22.9414 19.7255L22.2412 20.0859L22.2907 20.1821L22.3642 20.2613L22.9414 19.7255ZM23.7191 20.2714L24.0435 19.5538L24.0421 19.5532L23.7191 20.2714ZM25.2137 22.9616L24.4271 22.9237L24.4253 22.9607L24.427 22.9976L25.2137 22.9616ZM24.288 25.4192L23.7217 24.8719L23.713 24.8811L24.288 25.4192ZM21.3819 26.9562V27.7437H21.4436L21.5046 27.7341L21.3819 26.9562ZM21.3425 26.9562V26.1687H21.2919L21.2418 26.1751L21.3425 26.9562ZM19.0282 26.7555L19.2619 26.0034L19.2523 26.0005L19.0282 26.7555ZM18.7032 26.6626V25.8751L18.5015 27.4238L18.7032 26.6626ZM18.7445 26.6626V27.4501L18.9387 25.8994L18.7445 26.6626ZM18.1842 26.5343L18.3342 25.7612L18.1843 25.7321L18.0344 25.7612L18.1842 26.5343ZM17.6234 26.6626L17.4293 25.8995L17.6234 27.4501V26.6626ZM17.6648 26.6626L17.8665 27.4239L17.6648 25.8751V26.6626ZM17.3398 26.7556L17.1157 26.0006L17.1061 26.0036L17.3398 26.7556ZM15.0255 26.9563L15.1261 26.1752L15.076 26.1688H15.0255V26.9563ZM14.986 26.9563L14.8634 27.7342L14.9243 27.7438H14.986V26.9563ZM12.08 25.4193L12.655 24.8811L12.6462 24.872L12.08 25.4193ZM11.1543 22.9616L11.941 22.9976L11.9427 22.9607L11.9409 22.9237L11.1543 22.9616ZM21.8623 11.5535C21.9131 12.7307 21.2053 13.3994 20.6468 13.422L20.7104 14.9957C22.4511 14.9253 23.5091 13.1855 23.4359 11.4857L21.8623 11.5535ZM20.4906 9.78825C21.051 9.7656 21.8115 10.3748 21.8623 11.5535L23.4359 11.4857C23.3627 9.78746 22.1659 8.14425 20.427 8.21453L20.4906 9.78825ZM19.2751 11.6596C19.2258 10.4798 19.9334 9.81076 20.4906 9.78825L20.427 8.21453C18.6849 8.28494 17.6305 10.0282 17.7014 11.7253L19.2751 11.6596ZM20.6454 13.422C20.0872 13.4455 19.3242 12.8365 19.2751 11.6596L17.7014 11.7253C17.7725 13.4253 18.9744 15.0688 20.7117 14.9956L20.6454 13.422ZM16.6255 11.5507C16.6748 12.7292 15.9679 13.3986 15.4087 13.4221L15.4749 14.9957C17.215 14.9226 18.2701 13.1835 18.1992 11.485L16.6255 11.5507ZM15.2551 9.7883C15.8134 9.7648 16.5764 10.3739 16.6255 11.5507L18.1992 11.485C18.1281 9.78495 16.9262 8.14156 15.1889 8.2147L15.2551 9.7883ZM14.0382 11.6568C13.9876 10.4815 14.696 9.81184 15.2551 9.7883L15.1889 8.2147C13.4525 8.2878 12.3914 10.023 12.4647 11.7246L14.0382 11.6568ZM15.41 13.4221C14.8496 13.4447 14.089 12.8354 14.0382 11.6568L12.4647 11.7246C12.5379 13.4229 13.7347 15.066 15.4736 14.9958L15.41 13.4221ZM27.7839 15.7371C27.7128 14.0366 26.5108 12.3947 24.7748 12.4649L24.8385 14.0386C25.3981 14.016 26.1611 14.6265 26.2102 15.8029L27.7839 15.7371ZM25.0596 19.246C26.7991 19.1729 27.8549 17.4363 27.7839 15.7371L26.2102 15.8029C26.2594 16.9806 25.5532 17.6489 24.9934 17.6724L25.0596 19.246ZM22.0494 15.9767C22.1225 17.6745 23.3194 19.3191 25.0596 19.246L24.9934 17.6724C24.4344 17.6959 23.6737 17.0881 23.6229 15.9089L22.0494 15.9767ZM24.7748 12.4649C23.0358 12.5353 21.9761 14.2772 22.0494 15.9767L23.6229 15.9089C23.5722 14.7316 24.282 14.0612 24.8385 14.0386L24.7748 12.4649ZM11.0052 14.3937C11.564 14.3711 12.3261 14.9808 12.3769 16.159L13.9504 16.0912C13.8772 14.3925 12.6782 12.7497 10.9415 12.82L11.0052 14.3937ZM9.78959 16.264C9.73886 15.0867 10.4487 14.4162 11.0052 14.3937L10.9415 12.82C9.2025 12.8904 8.14281 14.6322 8.21605 16.3318L9.78959 16.264ZM11.1601 18.0275C10.601 18.051 9.84041 17.4432 9.78959 16.264L8.21605 16.3318C8.28922 18.0295 9.48598 19.6742 11.2262 19.6011L11.1601 18.0275ZM12.3767 16.1549C12.4215 17.3382 11.7176 18.004 11.1601 18.0275L11.2262 19.6011C12.9679 19.5279 14.0147 17.7889 13.9506 16.0953L12.3767 16.1549ZM12.8496 19.1895C12.729 19.3194 12.5688 19.4438 12.3258 19.5531L12.9718 20.9895C13.4012 20.7964 13.7358 20.5498 14.004 20.2609L12.8496 19.1895ZM12.9995 18.6821C12.9009 18.962 12.8251 19.1733 12.7266 19.3648L14.127 20.0855C14.2832 19.7819 14.3928 19.4672 14.485 19.2053L12.9995 18.6821ZM14.3974 16.4348C13.5133 17.2001 13.2231 18.0473 12.9995 18.6821L14.485 19.2053C14.7027 18.5875 14.8836 18.0971 15.4282 17.6256L14.3974 16.4348ZM16.8806 15.2431C15.9613 15.4136 15.1041 15.8245 14.3981 16.4342L15.4275 17.6263C15.9211 17.2 16.522 16.9115 17.1679 16.7916L16.8806 15.2431ZM17.5842 15.1557C17.3467 15.1697 17.1102 15.1991 16.8763 15.2439L17.1722 16.7908C17.3389 16.7589 17.5075 16.738 17.6769 16.728L17.5842 15.1557ZM18.2016 15.1313C17.9833 15.1272 17.7658 15.1363 17.5502 15.1584L17.7109 16.7252C17.8634 16.7096 18.0172 16.7031 18.1716 16.7061L18.2016 15.1313ZM18.8126 15.158C18.6007 15.1365 18.387 15.1275 18.1725 15.1313L18.2007 16.7061C18.3524 16.7034 18.5036 16.7097 18.6534 16.725L18.8126 15.158ZM19.4917 15.2438C19.2561 15.1987 19.0179 15.1692 18.7786 15.1553L18.6874 16.7277C18.8581 16.7376 19.0279 16.7586 19.1958 16.7907L19.4917 15.2438ZM21.9699 16.4341C21.2639 15.8245 20.4066 15.4135 19.4874 15.243L19.2001 16.7915C19.846 16.9114 20.4468 17.1999 20.9405 17.6262L21.9699 16.4341ZM23.3685 18.682C23.1449 18.0472 22.8546 17.2 21.9706 16.4347L20.9398 17.6255C21.4844 18.097 21.6653 18.5874 21.8829 19.2052L23.3685 18.682ZM23.6416 19.3651C23.5429 19.1735 23.4671 18.9621 23.3685 18.682L21.8829 19.2052C21.9753 19.4673 22.0848 19.7822 22.2412 20.0859L23.6416 19.3651ZM24.0421 19.5532C23.7992 19.4439 23.6391 19.3196 23.5185 19.1897L22.3642 20.2613C22.6324 20.5501 22.9669 20.7966 23.3962 20.9896L24.0421 19.5532ZM26.0002 22.9996C26.0663 21.6296 25.4341 20.1823 24.0435 19.5538L23.3948 20.989C24.0629 21.2909 24.4697 22.0395 24.4271 22.9237L26.0002 22.9996ZM24.8542 25.9665C25.6716 25.1209 26.0491 23.9916 26.0003 22.9257L24.427 22.9976C24.4571 23.6558 24.2207 24.3557 23.7218 24.8719L24.8542 25.9665ZM21.5046 27.7341C22.7922 27.5311 23.975 26.9061 24.8629 25.9574L23.713 24.8811C23.0662 25.5722 22.2024 26.0296 21.2593 26.1783L21.5046 27.7341ZM21.3707 27.7437H21.3819V26.1687H21.3707V27.7437ZM21.3425 27.7437H21.3707V26.1687H21.3425V27.7437ZM18.7945 27.5075C19.6502 27.7734 20.5539 27.8518 21.4431 27.7372L21.2418 26.1751C20.577 26.2608 19.9013 26.2022 19.2619 26.0035L18.7945 27.5075ZM18.5015 27.4238C18.5939 27.4483 18.6904 27.4767 18.8041 27.5104L19.2523 26.0005C19.1406 25.9674 19.0229 25.9326 18.9049 25.9013L18.5015 27.4238ZM18.7445 25.8751H18.7032V27.4501H18.7445V25.8751ZM18.0343 27.3074C18.1829 27.3362 18.3556 27.3762 18.5504 27.4257L18.9387 25.8994C18.7274 25.8456 18.523 25.7978 18.3342 25.7612L18.0343 27.3074ZM17.8176 27.4258C18.0126 27.3762 18.1854 27.3362 18.3341 27.3074L18.0344 25.7612C17.8453 25.7978 17.6408 25.8456 17.4293 25.8995L17.8176 27.4258ZM17.6648 25.8751H17.6234V27.4501H17.6648V25.8751ZM17.5639 27.5105C17.6776 27.4768 17.7741 27.4484 17.8665 27.4239L17.463 25.9014C17.345 25.9327 17.2274 25.9675 17.1157 26.0006L17.5639 27.5105ZM14.9249 27.7373C15.8141 27.8519 16.7178 27.7735 17.5735 27.5076L17.1061 26.0036C16.4667 26.2023 15.791 26.2609 15.1261 26.1752L14.9249 27.7373ZM14.9973 27.7438H15.0255V26.1688H14.9973V27.7438ZM14.986 27.7438H14.9973V26.1688H14.986V27.7438ZM11.505 25.9575C12.3929 26.9062 13.5758 27.5312 14.8634 27.7342L15.1087 26.1784C14.1656 26.0297 13.3017 25.5723 12.655 24.8812L11.505 25.9575ZM10.3676 22.9257C10.3189 23.9916 10.6964 25.121 11.5138 25.9666L12.6462 24.872C12.1472 24.3558 11.9109 23.6559 11.941 22.9976L10.3676 22.9257ZM12.3245 19.5537C10.9338 20.1822 10.3016 21.6296 10.3677 22.9996L11.9409 22.9237C11.8982 22.0394 12.3051 21.2908 12.9732 20.9889L12.3245 19.5537Z" fill="black"/>
</svg>
