<svg width="36" height="36" viewBox="0 0 36 36" fill="none" xmlns="http://www.w3.org/2000/svg">
<path d="M27.72 16.8714C28.2177 17.5456 28.2177 18.4559 27.72 19.129C26.1524 21.2486 22.3913 25.6127 18.0002 25.6127C13.6091 25.6127 9.84798 21.2486 8.28033 19.129C8.03819 18.8062 7.90674 18.409 7.90674 18.0002C7.90674 17.5914 8.03819 17.1942 8.28033 16.8714C9.84798 14.7518 13.6091 10.3877 18.0002 10.3877C22.3913 10.3877 26.1524 14.7518 27.72 16.8714Z" fill="white" stroke="black" stroke-width="1.575" stroke-linecap="round" stroke-linejoin="round"/>
<path d="M18.0001 21.2623C19.7398 21.2623 21.1501 19.8016 21.1501 17.9998C21.1501 16.198 19.7398 14.7373 18.0001 14.7373C16.2604 14.7373 14.8501 16.198 14.8501 17.9998C14.8501 19.8016 16.2604 21.2623 18.0001 21.2623Z" fill="white" stroke="black" stroke-width="1.575" stroke-linecap="round" stroke-linejoin="round"/>
</svg>
