<svg width="36" height="36" viewBox="0 0 36 36" fill="none" xmlns="http://www.w3.org/2000/svg">
<circle cx="18" cy="18" r="9.42188" fill="white"/>
<path d="M14.1328 20.3203L15.1875 19.0547L16.1719 19.4063H17.7891L19.125 19.0547H20.0391L21.5859 19.7578V22.0078L20.3906 23.5547V27.6328H15.6797V24.0469L15.1875 22.0078L14.1328 20.3203Z" fill="white"/>
<path d="M22.0078 15.7454L20.9133 17.1562L19.8918 16.7643L18.2136 16.7643L16.8272 17.1562L15.8787 17.1562L14.2734 16.3724L14.2734 13.8642L15.5139 12.1399L15.5139 7.59375L20.4026 7.59375L20.4026 11.5912L20.9133 13.8642L22.0078 15.7454Z" fill="white"/>
<mask id="path-4-outside-1_654_9939" maskUnits="userSpaceOnUse" x="6.875" y="5.75" width="22" height="24" fill="black">
<rect fill="white" x="6.875" y="5.75" width="22" height="24"/>
<path fill-rule="evenodd" clip-rule="evenodd" d="M15.75 6.75C15.8992 6.75 16.0423 6.80926 16.1477 6.91475C16.2532 7.02024 16.3125 7.16332 16.3125 7.3125V12.0054C16.3125 12.3748 16.2397 12.7406 16.0983 13.0819C15.9569 13.4232 15.7497 13.7333 15.4884 13.9944L15.2055 14.2779C14.9894 14.4939 14.8571 14.7798 14.8325 15.0843C14.8079 15.3889 14.8925 15.6922 15.0711 15.9401C15.2498 16.188 15.5108 16.3642 15.8076 16.4372C16.1043 16.5101 16.4173 16.4751 16.6905 16.3384L16.8266 16.2703C17.1909 16.0882 17.5925 15.9934 17.9997 15.9934C18.4069 15.9934 18.8086 16.0882 19.1728 16.2703L19.3095 16.3378C19.5827 16.4742 19.8954 16.509 20.1919 16.4359C20.4883 16.3629 20.7491 16.1868 20.9276 15.9391C21.1062 15.6915 21.1908 15.3884 21.1664 15.0841C21.142 14.7797 21.0102 14.494 20.7945 14.2779L20.5116 13.9944C20.2503 13.7333 20.0431 13.4232 19.9017 13.0819C19.7603 12.7406 19.6875 12.3748 19.6875 12.0054V7.3125C19.6875 7.16332 19.7468 7.02024 19.8523 6.91475C19.9577 6.80926 20.1008 6.75 20.25 6.75C20.3992 6.75 20.5423 6.80926 20.6477 6.91475C20.7532 7.02024 20.8125 7.16332 20.8125 7.3125V8.271C25.0363 9.48938 28.125 13.3841 28.125 18C28.125 22.6159 25.0363 26.5106 20.8125 27.7296V28.6875C20.8125 28.8367 20.7532 28.9798 20.6477 29.0853C20.5423 29.1907 20.3992 29.25 20.25 29.25C20.1008 29.25 19.9577 29.1907 19.8523 29.0853C19.7468 28.9798 19.6875 28.8367 19.6875 28.6875V23.9946C19.6875 23.6252 19.7603 23.2594 19.9017 22.9181C20.0431 22.5768 20.2503 22.2667 20.5116 22.0056L20.7945 21.7221C21.0106 21.5061 21.1429 21.2202 21.1675 20.9157C21.1921 20.6111 21.1075 20.3078 20.9289 20.0599C20.7502 19.812 20.4892 19.6358 20.1924 19.5628C19.8957 19.4899 19.5827 19.5249 19.3095 19.6616L19.1734 19.7297C18.8091 19.9118 18.4075 20.0066 18.0003 20.0066C17.5931 20.0066 17.1914 19.9118 16.8272 19.7297L16.6905 19.6622C16.4173 19.5258 16.1046 19.4911 15.8082 19.5641C15.5117 19.6371 15.2509 19.8132 15.0724 20.0609C14.8938 20.3085 14.8092 20.6116 14.8336 20.9159C14.858 21.2203 14.9898 21.506 15.2055 21.7221L15.4884 22.0056C15.7497 22.2667 15.9569 22.5768 16.0983 22.9181C16.2397 23.2594 16.3125 23.6252 16.3125 23.9946V28.6875C16.3125 28.8367 16.2532 28.9798 16.1477 29.0853C16.0423 29.1907 15.8992 29.25 15.75 29.25C15.6008 29.25 15.4577 29.1907 15.3523 29.0853C15.2468 28.9798 15.1875 28.8367 15.1875 28.6875V27.7296C10.9637 26.5106 7.875 22.6164 7.875 18C7.875 13.3841 10.9637 9.48938 15.1875 8.271V7.3125C15.1875 7.16332 15.2468 7.02024 15.3523 6.91475C15.4577 6.80926 15.6008 6.75 15.75 6.75ZM15.1875 9.44831C11.5943 10.6296 9 14.0119 9 18C9 21.9881 11.5943 25.371 15.1875 26.5517V23.9946C15.1874 23.547 15.0096 23.1179 14.6931 22.8015L14.4096 22.518C14.0047 22.113 13.7571 21.5771 13.7112 21.0063C13.6652 20.4354 13.8239 19.8669 14.1587 19.4023C14.4936 18.9377 14.9829 18.6075 15.539 18.4706C16.0951 18.3338 16.6817 18.3992 17.1939 18.6553L17.3301 18.7234C17.7519 18.9343 18.2481 18.9343 18.6699 18.7234L18.8061 18.6559C19.3182 18.4002 19.9046 18.3349 20.4604 18.4719C21.0163 18.6088 21.5053 18.9389 21.84 19.4033C22.1748 19.8676 22.3335 20.4359 22.2878 21.0065C22.2421 21.5771 21.9949 22.1129 21.5904 22.518L21.3069 22.8015C20.9906 23.1178 20.8127 23.5467 20.8125 23.994V26.5517C24.4058 25.3704 27 21.9881 27 18C27 14.0119 24.4058 10.629 20.8125 9.44831V12.0054C20.8126 12.453 20.9904 12.8821 21.3069 13.1985L21.5904 13.482C21.9953 13.887 22.2429 14.4229 22.2888 14.9937C22.3348 15.5646 22.1761 16.1331 21.8413 16.5977C21.5064 17.0623 21.0171 17.3925 20.461 17.5294C19.905 17.6662 19.3183 17.6008 18.8061 17.3447L18.6699 17.2766C18.4619 17.1726 18.2326 17.1185 18 17.1185C17.7674 17.1185 17.5381 17.1726 17.3301 17.2766L17.1939 17.3441C16.6818 17.5998 16.0954 17.6651 15.5396 17.5281C14.9837 17.3912 14.4947 17.0611 14.16 16.5967C13.8252 16.1324 13.6665 15.5641 13.7122 14.9935C13.7579 14.4229 14.0051 13.8871 14.4096 13.482L14.6931 13.1985C15.0094 12.8822 15.1873 12.4533 15.1875 12.006V9.44775V9.44831Z"/>
</mask>
<path fill-rule="evenodd" clip-rule="evenodd" d="M15.75 6.75C15.8992 6.75 16.0423 6.80926 16.1477 6.91475C16.2532 7.02024 16.3125 7.16332 16.3125 7.3125V12.0054C16.3125 12.3748 16.2397 12.7406 16.0983 13.0819C15.9569 13.4232 15.7497 13.7333 15.4884 13.9944L15.2055 14.2779C14.9894 14.4939 14.8571 14.7798 14.8325 15.0843C14.8079 15.3889 14.8925 15.6922 15.0711 15.9401C15.2498 16.188 15.5108 16.3642 15.8076 16.4372C16.1043 16.5101 16.4173 16.4751 16.6905 16.3384L16.8266 16.2703C17.1909 16.0882 17.5925 15.9934 17.9997 15.9934C18.4069 15.9934 18.8086 16.0882 19.1728 16.2703L19.3095 16.3378C19.5827 16.4742 19.8954 16.509 20.1919 16.4359C20.4883 16.3629 20.7491 16.1868 20.9276 15.9391C21.1062 15.6915 21.1908 15.3884 21.1664 15.0841C21.142 14.7797 21.0102 14.494 20.7945 14.2779L20.5116 13.9944C20.2503 13.7333 20.0431 13.4232 19.9017 13.0819C19.7603 12.7406 19.6875 12.3748 19.6875 12.0054V7.3125C19.6875 7.16332 19.7468 7.02024 19.8523 6.91475C19.9577 6.80926 20.1008 6.75 20.25 6.75C20.3992 6.75 20.5423 6.80926 20.6477 6.91475C20.7532 7.02024 20.8125 7.16332 20.8125 7.3125V8.271C25.0363 9.48938 28.125 13.3841 28.125 18C28.125 22.6159 25.0363 26.5106 20.8125 27.7296V28.6875C20.8125 28.8367 20.7532 28.9798 20.6477 29.0853C20.5423 29.1907 20.3992 29.25 20.25 29.25C20.1008 29.25 19.9577 29.1907 19.8523 29.0853C19.7468 28.9798 19.6875 28.8367 19.6875 28.6875V23.9946C19.6875 23.6252 19.7603 23.2594 19.9017 22.9181C20.0431 22.5768 20.2503 22.2667 20.5116 22.0056L20.7945 21.7221C21.0106 21.5061 21.1429 21.2202 21.1675 20.9157C21.1921 20.6111 21.1075 20.3078 20.9289 20.0599C20.7502 19.812 20.4892 19.6358 20.1924 19.5628C19.8957 19.4899 19.5827 19.5249 19.3095 19.6616L19.1734 19.7297C18.8091 19.9118 18.4075 20.0066 18.0003 20.0066C17.5931 20.0066 17.1914 19.9118 16.8272 19.7297L16.6905 19.6622C16.4173 19.5258 16.1046 19.4911 15.8082 19.5641C15.5117 19.6371 15.2509 19.8132 15.0724 20.0609C14.8938 20.3085 14.8092 20.6116 14.8336 20.9159C14.858 21.2203 14.9898 21.506 15.2055 21.7221L15.4884 22.0056C15.7497 22.2667 15.9569 22.5768 16.0983 22.9181C16.2397 23.2594 16.3125 23.6252 16.3125 23.9946V28.6875C16.3125 28.8367 16.2532 28.9798 16.1477 29.0853C16.0423 29.1907 15.8992 29.25 15.75 29.25C15.6008 29.25 15.4577 29.1907 15.3523 29.0853C15.2468 28.9798 15.1875 28.8367 15.1875 28.6875V27.7296C10.9637 26.5106 7.875 22.6164 7.875 18C7.875 13.3841 10.9637 9.48938 15.1875 8.271V7.3125C15.1875 7.16332 15.2468 7.02024 15.3523 6.91475C15.4577 6.80926 15.6008 6.75 15.75 6.75ZM15.1875 9.44831C11.5943 10.6296 9 14.0119 9 18C9 21.9881 11.5943 25.371 15.1875 26.5517V23.9946C15.1874 23.547 15.0096 23.1179 14.6931 22.8015L14.4096 22.518C14.0047 22.113 13.7571 21.5771 13.7112 21.0063C13.6652 20.4354 13.8239 19.8669 14.1587 19.4023C14.4936 18.9377 14.9829 18.6075 15.539 18.4706C16.0951 18.3338 16.6817 18.3992 17.1939 18.6553L17.3301 18.7234C17.7519 18.9343 18.2481 18.9343 18.6699 18.7234L18.8061 18.6559C19.3182 18.4002 19.9046 18.3349 20.4604 18.4719C21.0163 18.6088 21.5053 18.9389 21.84 19.4033C22.1748 19.8676 22.3335 20.4359 22.2878 21.0065C22.2421 21.5771 21.9949 22.1129 21.5904 22.518L21.3069 22.8015C20.9906 23.1178 20.8127 23.5467 20.8125 23.994V26.5517C24.4058 25.3704 27 21.9881 27 18C27 14.0119 24.4058 10.629 20.8125 9.44831V12.0054C20.8126 12.453 20.9904 12.8821 21.3069 13.1985L21.5904 13.482C21.9953 13.887 22.2429 14.4229 22.2888 14.9937C22.3348 15.5646 22.1761 16.1331 21.8413 16.5977C21.5064 17.0623 21.0171 17.3925 20.461 17.5294C19.905 17.6662 19.3183 17.6008 18.8061 17.3447L18.6699 17.2766C18.4619 17.1726 18.2326 17.1185 18 17.1185C17.7674 17.1185 17.5381 17.1726 17.3301 17.2766L17.1939 17.3441C16.6818 17.5998 16.0954 17.6651 15.5396 17.5281C14.9837 17.3912 14.4947 17.0611 14.16 16.5967C13.8252 16.1324 13.6665 15.5641 13.7122 14.9935C13.7579 14.4229 14.0051 13.8871 14.4096 13.482L14.6931 13.1985C15.0094 12.8822 15.1873 12.4533 15.1875 12.006V9.44775V9.44831Z" fill="black"/>
<path fill-rule="evenodd" clip-rule="evenodd" d="M15.75 6.75C15.8992 6.75 16.0423 6.80926 16.1477 6.91475C16.2532 7.02024 16.3125 7.16332 16.3125 7.3125V12.0054C16.3125 12.3748 16.2397 12.7406 16.0983 13.0819C15.9569 13.4232 15.7497 13.7333 15.4884 13.9944L15.2055 14.2779C14.9894 14.4939 14.8571 14.7798 14.8325 15.0843C14.8079 15.3889 14.8925 15.6922 15.0711 15.9401C15.2498 16.188 15.5108 16.3642 15.8076 16.4372C16.1043 16.5101 16.4173 16.4751 16.6905 16.3384L16.8266 16.2703C17.1909 16.0882 17.5925 15.9934 17.9997 15.9934C18.4069 15.9934 18.8086 16.0882 19.1728 16.2703L19.3095 16.3378C19.5827 16.4742 19.8954 16.509 20.1919 16.4359C20.4883 16.3629 20.7491 16.1868 20.9276 15.9391C21.1062 15.6915 21.1908 15.3884 21.1664 15.0841C21.142 14.7797 21.0102 14.494 20.7945 14.2779L20.5116 13.9944C20.2503 13.7333 20.0431 13.4232 19.9017 13.0819C19.7603 12.7406 19.6875 12.3748 19.6875 12.0054V7.3125C19.6875 7.16332 19.7468 7.02024 19.8523 6.91475C19.9577 6.80926 20.1008 6.75 20.25 6.75C20.3992 6.75 20.5423 6.80926 20.6477 6.91475C20.7532 7.02024 20.8125 7.16332 20.8125 7.3125V8.271C25.0363 9.48938 28.125 13.3841 28.125 18C28.125 22.6159 25.0363 26.5106 20.8125 27.7296V28.6875C20.8125 28.8367 20.7532 28.9798 20.6477 29.0853C20.5423 29.1907 20.3992 29.25 20.25 29.25C20.1008 29.25 19.9577 29.1907 19.8523 29.0853C19.7468 28.9798 19.6875 28.8367 19.6875 28.6875V23.9946C19.6875 23.6252 19.7603 23.2594 19.9017 22.9181C20.0431 22.5768 20.2503 22.2667 20.5116 22.0056L20.7945 21.7221C21.0106 21.5061 21.1429 21.2202 21.1675 20.9157C21.1921 20.6111 21.1075 20.3078 20.9289 20.0599C20.7502 19.812 20.4892 19.6358 20.1924 19.5628C19.8957 19.4899 19.5827 19.5249 19.3095 19.6616L19.1734 19.7297C18.8091 19.9118 18.4075 20.0066 18.0003 20.0066C17.5931 20.0066 17.1914 19.9118 16.8272 19.7297L16.6905 19.6622C16.4173 19.5258 16.1046 19.4911 15.8082 19.5641C15.5117 19.6371 15.2509 19.8132 15.0724 20.0609C14.8938 20.3085 14.8092 20.6116 14.8336 20.9159C14.858 21.2203 14.9898 21.506 15.2055 21.7221L15.4884 22.0056C15.7497 22.2667 15.9569 22.5768 16.0983 22.9181C16.2397 23.2594 16.3125 23.6252 16.3125 23.9946V28.6875C16.3125 28.8367 16.2532 28.9798 16.1477 29.0853C16.0423 29.1907 15.8992 29.25 15.75 29.25C15.6008 29.25 15.4577 29.1907 15.3523 29.0853C15.2468 28.9798 15.1875 28.8367 15.1875 28.6875V27.7296C10.9637 26.5106 7.875 22.6164 7.875 18C7.875 13.3841 10.9637 9.48938 15.1875 8.271V7.3125C15.1875 7.16332 15.2468 7.02024 15.3523 6.91475C15.4577 6.80926 15.6008 6.75 15.75 6.75ZM15.1875 9.44831C11.5943 10.6296 9 14.0119 9 18C9 21.9881 11.5943 25.371 15.1875 26.5517V23.9946C15.1874 23.547 15.0096 23.1179 14.6931 22.8015L14.4096 22.518C14.0047 22.113 13.7571 21.5771 13.7112 21.0063C13.6652 20.4354 13.8239 19.8669 14.1587 19.4023C14.4936 18.9377 14.9829 18.6075 15.539 18.4706C16.0951 18.3338 16.6817 18.3992 17.1939 18.6553L17.3301 18.7234C17.7519 18.9343 18.2481 18.9343 18.6699 18.7234L18.8061 18.6559C19.3182 18.4002 19.9046 18.3349 20.4604 18.4719C21.0163 18.6088 21.5053 18.9389 21.84 19.4033C22.1748 19.8676 22.3335 20.4359 22.2878 21.0065C22.2421 21.5771 21.9949 22.1129 21.5904 22.518L21.3069 22.8015C20.9906 23.1178 20.8127 23.5467 20.8125 23.994V26.5517C24.4058 25.3704 27 21.9881 27 18C27 14.0119 24.4058 10.629 20.8125 9.44831V12.0054C20.8126 12.453 20.9904 12.8821 21.3069 13.1985L21.5904 13.482C21.9953 13.887 22.2429 14.4229 22.2888 14.9937C22.3348 15.5646 22.1761 16.1331 21.8413 16.5977C21.5064 17.0623 21.0171 17.3925 20.461 17.5294C19.905 17.6662 19.3183 17.6008 18.8061 17.3447L18.6699 17.2766C18.4619 17.1726 18.2326 17.1185 18 17.1185C17.7674 17.1185 17.5381 17.1726 17.3301 17.2766L17.1939 17.3441C16.6818 17.5998 16.0954 17.6651 15.5396 17.5281C14.9837 17.3912 14.4947 17.0611 14.16 16.5967C13.8252 16.1324 13.6665 15.5641 13.7122 14.9935C13.7579 14.4229 14.0051 13.8871 14.4096 13.482L14.6931 13.1985C15.0094 12.8822 15.1873 12.4533 15.1875 12.006V9.44775V9.44831Z" stroke="black" stroke-width="0.4" mask="url(#path-4-outside-1_654_9939)"/>
</svg>
