<svg width="36" height="36" viewBox="0 0 36 36" fill="none" xmlns="http://www.w3.org/2000/svg">
<path d="M12.6945 9.09424H13.1264C15.4011 9.41768 16.0177 10.6589 17.9999 10.6589C19.9821 10.6589 20.5988 9.41768 22.8739 9.09424H23.1187C23.7269 9.09424 24.3291 9.20942 24.891 9.43321C25.4529 9.657 25.9634 9.98502 26.3935 10.3985C26.8235 10.812 27.1646 11.3029 27.3974 11.8432C27.6301 12.3835 27.7499 12.9626 27.7499 13.5474V13.8408C27.7499 15.2016 26.2435 16.755 25.7999 18.2269C25.3295 19.7897 25.0072 21.0675 24.9127 22.4039C24.6909 25.5356 23.5803 26.9067 22.3874 26.9067C20.6061 26.9067 19.0246 19.8872 18.0306 19.8872C17.0361 19.8872 15.0642 26.9067 13.6124 26.9067C12.7266 26.9067 11.5795 26.4028 11.1486 22.4039C10.977 20.813 10.6874 19.8478 10.1999 18.2269C9.77092 16.8019 8.32402 15.0994 8.24992 13.5713C8.22197 12.9933 8.31622 12.416 8.52696 11.874C8.73771 11.3321 9.06058 10.8369 9.47605 10.4184C9.89151 9.99995 10.3909 9.66682 10.9441 9.43921C11.4973 9.2116 12.0928 9.09425 12.6945 9.09424Z" stroke="black" stroke-width="1.575"/>
<path d="M13.8474 12.5923L21.9004 15.0888M13.8474 15.0888L21.9004 12.5923" stroke="black" stroke-width="1.575" stroke-linecap="round"/>
</svg>
