<svg width="36" height="36" viewBox="0 0 36 36" fill="none" xmlns="http://www.w3.org/2000/svg">
<path d="M8.41267 23.4986C8.04811 21.9117 7.12725 16.8748 9.19413 13.5837C9.5937 12.9605 10.1504 12.4536 10.8082 12.1141C12.3503 11.2985 15.5796 10.2251 19.4226 12.5884V21.136C17.8129 21.3664 16.1918 21.5089 14.5666 21.5629C14.2569 21.5652 13.9523 21.642 13.6786 21.7869C13.4049 21.9319 13.1702 22.1406 12.9942 22.3955C12.1466 23.6336 10.4449 25.6589 9.01059 24.5116C8.70279 24.2509 8.4919 23.894 8.41203 23.4986H8.41267ZM19.4226 12.5808V21.136C21.3439 20.6329 23.0571 19.5353 24.317 18C24.317 18 25.9846 16.2195 27.241 15.8946C27.241 15.8946 29.4934 14.7688 26.7428 13.5338C24.3796 12.7797 21.9 12.4571 19.4226 12.5814V12.5808Z" fill="white" stroke="black" stroke-width="1.575" stroke-linecap="round" stroke-linejoin="round"/>
</svg>
