<svg width="24" height="24" viewBox="0 0 24 24" fill="none" xmlns="http://www.w3.org/2000/svg">
<g clip-path="url(#clip0_1302_3386)">
<path d="M7.4 17.4C6.41 17.4 5.609 18.21 5.609 19.2C5.609 20.19 6.41 21 7.4 21C8.39 21 9.2 20.19 9.2 19.2C9.2 18.21 8.39 17.4 7.4 17.4ZM2 3V4.8H3.8L7.04 11.631L5.825 13.836C5.681 14.088 5.6 14.385 5.6 14.7C5.6 15.69 6.41 16.5 7.4 16.5H18.2V14.7H7.778C7.652 14.7 7.553 14.601 7.553 14.475L7.58 14.367L8.39 12.9H15.095C15.77 12.9 16.364 12.531 16.67 11.973L19.892 6.132C19.964 6.006 20 5.853 20 5.7C20 5.205 19.595 4.8 19.1 4.8H5.789L4.943 3H2ZM16.4 17.4C15.41 17.4 14.609 18.21 14.609 19.2C14.609 20.19 15.41 21 16.4 21C17.39 21 18.2 20.19 18.2 19.2C18.2 18.21 17.39 17.4 16.4 17.4Z" fill="#232323"/>
</g>
<defs>
<clipPath id="clip0_1302_3386">
<rect width="24" height="24" fill="white"/>
</clipPath>
</defs>
</svg>
