<svg width="146" height="24" viewBox="0 0 146 24" fill="none" xmlns="http://www.w3.org/2000/svg">
<g clip-path="url(#clip0_1302_3353)">
<path fill-rule="evenodd" clip-rule="evenodd" d="M0.466795 19.4499C0.765669 19.7431 1.17101 19.9077 1.59368 19.9077C1.80335 19.9083 2.01104 19.8683 2.20492 19.79C2.39881 19.7117 2.57511 19.5967 2.72359 19.4515C2.87206 19.3062 2.98981 19.1337 3.07018 18.9437C3.15056 18.7537 3.19194 18.55 3.19194 18.3444V16.7181C3.6581 17.0157 4.15747 17.2598 4.68029 17.4459C5.44494 17.7118 6.25038 17.847 7.06164 17.8457C8.00507 17.848 8.9394 17.6647 9.80937 17.3066C10.6463 16.9539 11.4089 16.4511 12.058 15.8241C12.6972 15.1884 13.2083 14.44 13.5646 13.6183C13.9314 12.7653 14.1199 11.8487 14.1188 10.9228C14.1202 9.997 13.9316 9.08034 13.5646 8.22739C13.2094 7.40403 12.6964 6.65526 12.0534 6.02164C11.4063 5.39233 10.6432 4.88923 9.80478 4.53911C8.93511 4.18011 8.00059 3.99678 7.05705 4.00004C6.11362 3.99776 5.17929 4.18105 4.30932 4.53911C3.47123 4.88981 2.70835 5.39283 2.0608 6.02164C1.42067 6.65663 0.909359 7.40513 0.554115 8.22739C0.187059 9.08034 -0.00136769 9.997 7.47314e-06 10.9228V18.3444C7.47314e-06 18.759 0.167921 19.1567 0.466795 19.4499ZM5.54589 7.42328C6.02538 7.2301 6.5387 7.13089 7.05705 7.13126C7.57397 7.13043 8.08599 7.22967 8.56374 7.42328C9.02143 7.61603 9.43781 7.89189 9.79103 8.23638C10.1416 8.58431 10.4241 8.99241 10.6245 9.44038C10.8243 9.91006 10.9271 10.4139 10.9269 10.9228C10.9277 11.4299 10.8265 11.9322 10.6291 12.4009C10.4288 12.8502 10.1463 13.2599 9.79562 13.6094C9.44198 13.9534 9.02569 14.2292 8.56833 14.4225C8.08979 14.6192 7.57593 14.7201 7.05705 14.719C6.54014 14.7198 6.02812 14.6206 5.55036 14.427C5.09481 14.2304 4.6791 13.955 4.32308 13.6139C3.97236 13.2643 3.68985 12.8547 3.48957 12.4054C3.28898 11.9359 3.18626 11.4319 3.18736 10.9228C3.18699 10.4173 3.28821 9.91661 3.48509 9.44937C3.68537 9.00001 3.96778 8.5904 4.31849 8.24088C4.67382 7.89776 5.08974 7.62075 5.54589 7.42328Z" fill="#FF6B00"/>
<path fill-rule="evenodd" clip-rule="evenodd" d="M19.7333 17.3066C20.6031 17.6653 21.5375 17.8486 22.481 17.8457C23.8457 17.8584 25.1833 17.4722 26.3232 16.7361C26.9665 16.3284 27.5386 15.8218 28.0176 15.2356C28.1696 15.0485 28.2763 14.8299 28.3294 14.5964C28.3826 14.3629 28.381 14.1207 28.3245 13.8879C28.2692 13.6568 28.1607 13.4412 28.0076 13.2575C27.8544 13.0737 27.6605 12.9267 27.4406 12.8277C27.2363 12.7315 27.0124 12.6823 26.7857 12.6839C26.5393 12.6854 26.2963 12.7415 26.075 12.8481C25.8537 12.9547 25.6599 13.1089 25.508 13.2994C25.2492 13.6156 24.9399 13.8887 24.5921 14.108C23.9643 14.5089 23.2301 14.7198 22.481 14.7145C21.5791 14.7271 20.7033 14.4173 20.0172 13.8429C19.4385 13.386 19.0127 12.7695 18.7945 12.0729H28.3473C28.5029 12.0741 28.6572 12.0451 28.8013 11.9877C28.9454 11.9303 29.0765 11.8455 29.1871 11.7382C29.2977 11.631 29.3857 11.5033 29.4459 11.3626C29.5062 11.2219 29.5375 11.071 29.5381 10.9184C29.5389 10.3351 29.4651 9.75399 29.3183 9.18877C29.1225 8.45425 28.8053 7.75617 28.3794 7.12226C27.9593 6.49313 27.4381 5.93488 26.8362 5.46907C26.2323 5.00314 25.5547 4.63739 24.8303 4.38638C24.0746 4.12994 23.2806 3.99936 22.481 4.00003C21.5375 3.99714 20.6031 4.18045 19.7333 4.5391C18.8952 4.8898 18.1322 5.39282 17.4847 6.02163C16.8431 6.65644 16.3303 7.40492 15.9734 8.22738C15.6078 9.08062 15.4209 9.99729 15.4239 10.9228C15.4212 11.8484 15.608 12.765 15.9734 13.6183C16.3314 14.4402 16.8441 15.1885 17.4847 15.8241C18.1337 16.4511 18.8963 16.9539 19.7333 17.3066ZM24.6288 7.7647C25.1027 8.06892 25.5004 8.47438 25.792 8.95071H19.1745C19.4671 8.47662 19.8627 8.07166 20.3331 7.7647C20.9686 7.34796 21.7167 7.12733 22.481 7.13125C23.2456 7.12595 23.994 7.3467 24.6288 7.7647Z" fill="#FF6B00"/>
<path fill-rule="evenodd" clip-rule="evenodd" d="M35.8253 17.6775C36.1273 17.8489 36.4705 17.9379 36.8194 17.9354C37.1749 17.9343 37.5236 17.8395 37.829 17.6608C38.1343 17.4822 38.3851 17.2264 38.555 16.9201L43.5925 6.64587C43.8019 6.29137 43.8593 5.86983 43.752 5.4739C43.6446 5.07796 43.3813 4.74001 43.0201 4.53439C42.7785 4.39987 42.5056 4.32872 42.2278 4.32775C41.948 4.3311 41.6739 4.40624 41.4329 4.54574C41.1919 4.68524 40.9923 4.88426 40.854 5.12292L36.8331 13.5552L32.7895 5.10044C32.651 4.86329 32.4508 4.66642 32.2094 4.52989C31.9681 4.39336 31.6942 4.32206 31.4156 4.32326C31.1372 4.32456 30.864 4.39734 30.6232 4.53439C30.2637 4.73684 30.0004 5.0705 29.8906 5.46265C29.7808 5.85481 29.8335 6.27367 30.0371 6.62788L35.102 16.9605C35.2736 17.2585 35.5233 17.506 35.8253 17.6775Z" fill="#FF6B00"/>
<path fill-rule="evenodd" clip-rule="evenodd" d="M48.1997 17.3066C49.0693 17.6656 50.0038 17.849 50.9474 17.8457C51.8908 17.848 52.8251 17.6647 53.6951 17.3066C54.5321 16.9539 55.2946 16.4511 55.9436 15.8241C56.5828 15.1884 57.094 14.44 57.4503 13.6183C57.8171 12.7653 58.0056 11.8487 58.0044 10.9228C58.0058 9.997 57.8174 9.08034 57.4503 8.22739C57.0951 7.40403 56.582 6.65526 55.939 6.02164C55.2931 5.39087 54.5299 4.88758 53.6905 4.53911C52.8209 4.18011 51.8863 3.99678 50.9428 4.00004C49.9994 3.99776 49.065 4.18105 48.1951 4.53911C47.3581 4.89187 46.5956 5.39466 45.9465 6.02164C45.3064 6.65663 44.7951 7.40513 44.4399 8.22739C44.0728 9.08034 43.8844 9.997 43.8857 10.9228C43.8846 11.8487 44.073 12.7653 44.4399 13.6183C44.7962 14.4411 45.3091 15.1897 45.9511 15.8241C46.5983 16.4534 47.3612 16.9565 48.1997 17.3066ZM49.4361 7.42328C49.9153 7.2292 50.4289 7.12995 50.9474 7.13126C51.4643 7.13043 51.9763 7.22967 52.4541 7.42328C52.9119 7.62028 53.3293 7.89731 53.6859 8.24088C54.0373 8.58536 54.3159 8.99453 54.5057 9.44487C54.7109 9.91165 54.8168 10.4145 54.8171 10.9228C54.8168 11.4326 54.7109 11.937 54.5057 12.4054C54.3125 12.8539 54.0343 13.2625 53.6859 13.6094C53.3299 13.9505 52.9142 14.2259 52.4587 14.4225C51.9801 14.6192 51.4663 14.7201 50.9474 14.719C50.4304 14.7207 49.9182 14.6214 49.4407 14.427C48.9833 14.2337 48.567 13.9579 48.2134 13.6139C47.8617 13.2651 47.5791 12.8553 47.3799 12.4054C47.1793 11.9359 47.0766 11.4319 47.0777 10.9228C47.0777 10.4158 47.1787 9.91378 47.3753 9.44487C47.5734 8.99564 47.8562 8.58713 48.2088 8.24088C48.5626 7.89593 48.9788 7.61869 49.4361 7.42328Z" fill="#FF6B00"/>
</g>
<path d="M74.4398 5.85352C73.7811 5.20275 73.0159 4.6889 72.1631 4.32529C71.2823 3.95503 70.347 3.76758 69.3851 3.76758C68.4233 3.76758 67.4873 3.95503 66.6045 4.32596C65.7543 4.68824 64.9892 5.20208 64.3271 5.85618C63.6764 6.51494 63.1625 7.28072 62.7989 8.13224C62.4287 9.01369 62.2412 9.94831 62.2412 10.9108V18.568C62.2412 19.4574 62.9651 20.1813 63.8545 20.1813C64.7439 20.1813 65.4685 19.4574 65.4685 18.568V16.8895C65.9398 17.1986 66.4437 17.4505 66.9748 17.642C67.7446 17.9158 68.5556 18.0548 69.3851 18.0548C70.3477 18.0548 71.2823 17.8673 72.1651 17.4964C73.0159 17.1341 73.7811 16.6203 74.4425 15.9662C75.0932 15.3074 75.6071 14.5423 75.9707 13.6901C76.341 12.8093 76.5284 11.8741 76.5284 10.9115C76.5284 9.94897 76.341 9.01369 75.97 8.13091C75.6071 7.28071 75.0932 6.51494 74.4398 5.85352ZM73 12.4351C72.7979 12.8984 72.5127 13.3185 72.1564 13.6821C71.7981 14.0398 71.3794 14.3236 70.9154 14.523C70.4268 14.7251 69.9116 14.8275 69.3851 14.8275C68.8587 14.8275 68.3435 14.7251 67.8602 14.5257C67.3969 14.3236 66.9768 14.0391 66.6152 13.6841C66.2556 13.3172 65.971 12.8971 65.7716 12.4411C65.5702 11.9532 65.4678 11.438 65.4678 10.9108C65.4678 10.3837 65.5702 9.86854 65.769 9.3866C65.9704 8.92461 66.2549 8.5045 66.6105 8.14221C66.9761 7.78259 67.3969 7.49808 67.8536 7.29866C68.3422 7.09658 68.8573 6.99421 69.3845 6.99421C69.9116 6.99421 70.4261 7.09658 70.91 7.29667C71.3787 7.49808 71.7975 7.78193 72.1538 8.13756C72.5127 8.50317 72.7972 8.92328 72.9973 9.38062C73.1994 9.8692 73.3011 10.3844 73.3011 10.9108C73.3011 11.4373 73.1987 11.9532 73 12.4351Z" fill="black"/>
<path d="M121.651 10.2438C122.7 9.96505 123.181 8.75471 122.608 7.83644C122.565 7.76661 122.52 7.69789 122.474 7.62973C122.045 6.98466 121.515 6.41385 120.898 5.93393C119.596 4.92089 118.097 4.40771 116.442 4.40771C115.464 4.40771 114.515 4.5978 113.617 4.97353C112.753 5.3404 111.976 5.86133 111.304 6.52303C110.643 7.19026 110.121 7.96501 109.752 8.82787C109.375 9.7201 109.185 10.6672 109.185 11.642V16.8186C109.185 17.7169 109.915 18.4451 110.816 18.4451C111.717 18.4451 112.447 17.7169 112.447 16.8186V11.642C112.447 11.1072 112.551 10.5852 112.756 10.0897C112.962 9.62034 113.252 9.19418 113.615 8.82509C113.98 8.46155 114.407 8.17338 114.882 7.96944C115.373 7.76495 115.897 7.66076 116.441 7.66076C117.348 7.66076 118.171 7.94228 118.886 8.49702C119.276 8.79849 119.595 9.14874 119.84 9.54442C120.21 10.1413 120.918 10.4389 121.598 10.2582L121.651 10.2444L121.651 10.2438Z" fill="black"/>
<path d="M107.301 8.36867C106.931 7.50525 106.408 6.72774 105.742 6.05607C105.071 5.39549 104.292 4.87345 103.424 4.50436C102.527 4.12863 101.574 3.93799 100.594 3.93799C99.6144 3.93799 98.6623 4.12807 97.7623 4.50492C96.8958 4.87289 96.1159 5.39549 95.4439 6.05884C94.7802 6.72774 94.2571 7.50525 93.8875 8.36978C93.5106 9.26534 93.3188 10.2146 93.3188 11.1911C93.3188 12.1676 93.5106 13.1175 93.888 14.0141C94.2571 14.8781 94.7807 15.655 95.4466 16.3267C96.1165 16.9884 96.8958 17.5099 97.7645 17.8784C98.6617 18.2542 99.6139 18.4448 100.594 18.4448C101.575 18.4448 102.528 18.2547 103.426 17.8779C104.292 17.5099 105.071 16.9884 105.745 16.3239C106.407 15.655 106.931 14.8781 107.301 14.013C107.678 13.118 107.87 12.1681 107.87 11.1917C107.87 10.2152 107.678 9.26534 107.301 8.36812H107.3L107.301 8.36867ZM104.263 12.7439C104.065 13.2117 103.779 13.6367 103.419 14.0041C103.046 14.3693 102.618 14.6581 102.153 14.8609C101.655 15.066 101.131 15.1701 100.594 15.1701C100.058 15.1701 99.5277 15.066 99.0408 14.8631C98.5628 14.6581 98.1359 14.3705 97.774 14.0091C97.4077 13.6378 97.1175 13.2106 96.9147 12.7467C96.709 12.2513 96.605 11.7287 96.605 11.1928C96.605 10.6569 96.709 10.1343 96.913 9.64329C97.1187 9.16724 97.4071 8.74219 97.7718 8.3792C98.1359 8.01621 98.5628 7.72804 99.0369 7.5241C99.5266 7.3196 100.05 7.21542 100.593 7.21542C101.136 7.21542 101.654 7.3196 102.146 7.52188C102.617 7.72693 103.046 8.01621 103.415 8.3792C103.779 8.74219 104.064 9.16614 104.263 9.64273C104.475 10.1382 104.583 10.6597 104.583 11.1933C104.583 11.727 104.475 12.2485 104.263 12.7445V12.7439Z" fill="black"/>
<path d="M107.869 16.8074V11.5981C107.869 10.6936 107.134 9.96045 106.227 9.96045C105.319 9.96045 104.584 10.6936 104.584 11.5981V16.8074C104.584 17.7118 105.319 18.445 106.227 18.445C107.134 18.445 107.869 17.7118 107.869 16.8074Z" fill="black"/>
<path d="M134.808 18.2959C133.913 18.2959 133.188 17.5705 133.188 16.6757L133.188 10.3665C133.188 8.69148 131.825 7.32865 130.149 7.32865C128.474 7.32865 127.111 8.69148 127.111 10.3665L127.111 16.6757C127.111 17.5705 126.385 18.2959 125.491 18.2959C124.597 18.2959 123.87 17.5705 123.87 16.6757L123.87 10.3665C123.87 6.9046 126.687 4.08772 130.149 4.08772C133.61 4.08772 136.428 6.90405 136.428 10.3665L136.428 16.6757C136.428 17.5705 135.702 18.2959 134.807 18.2959L134.808 18.2959Z" fill="black"/>
<path d="M144.178 18.2959C143.283 18.2959 142.557 17.5705 142.557 16.6757L142.557 10.3665C142.557 8.69148 141.195 7.32865 139.519 7.32865C137.844 7.32865 136.482 8.69148 136.482 10.3665L136.482 16.6757C136.482 17.5705 135.756 18.2959 134.861 18.2959C133.966 18.2959 133.241 17.5705 133.241 16.6757L133.241 10.3665C133.241 6.9046 136.057 4.08772 139.519 4.08772C142.98 4.08772 145.797 6.90405 145.797 10.3665L145.797 16.6757C145.797 17.5705 145.072 18.2959 144.177 18.2959L144.178 18.2959Z" fill="black"/>
<path d="M91.4796 7.98987C91.1163 7.1375 90.601 6.3707 89.9454 5.70749C89.2853 5.05498 88.5182 4.5404 87.6632 4.17614C86.7795 3.80513 85.8417 3.61709 84.8774 3.61709C84.0467 3.61709 83.2334 3.75615 82.4595 4.03145C81.9284 4.22231 81.4231 4.47509 80.95 4.7853V2.49192C80.95 1.59901 80.2257 0.875 79.3324 0.875C78.4392 0.875 77.7148 1.59901 77.7148 2.49192V15.8926C77.7148 16.7856 78.4392 17.5096 79.3324 17.5096C80.2257 17.5096 80.95 16.7856 80.95 15.8926V10.7767C80.95 10.2492 81.052 9.73403 81.2536 9.24591C81.4558 8.78313 81.7408 8.36314 82.0985 7.99888C82.4572 7.64025 82.8774 7.35594 83.3426 7.15551C83.8326 6.9534 84.3486 6.85037 84.8769 6.85037C85.4052 6.85037 85.9194 6.95227 86.4083 7.15382C86.8707 7.35594 87.2903 7.64025 87.6559 7.99832C88.0141 8.3637 88.2985 8.78313 88.5007 9.24535C88.7023 9.73403 88.8043 10.2492 88.8043 10.7761V15.8921C88.8043 16.785 89.5286 17.509 90.4219 17.509C91.3152 17.509 92.0395 16.785 92.0395 15.8921V10.7761C92.0395 9.81173 91.8514 8.8749 91.4791 7.98987H91.4796Z" fill="black"/>
<defs>
<clipPath id="clip0_1302_3353">
<rect width="58" height="24" fill="white"/>
</clipPath>
</defs>
</svg>
