<svg width="83" height="20" viewBox="0 0 83 20" fill="none" xmlns="http://www.w3.org/2000/svg">
<path d="M13.0221 15.3538H2.51571C1.38859 15.3538 0.764648 14.7097 0.764648 13.7638C0.764648 12.8178 1.38859 12.1737 2.51571 12.1737H14.5518C17.0677 12.1737 17.5306 12.858 17.5306 15.2733V17.3866C17.5306 18.4982 16.6295 19.3994 15.5179 19.3994C14.4063 19.3994 13.5052 18.4982 13.5052 17.3867V15.8369C13.5052 15.535 13.3441 15.3538 13.0221 15.3538ZM15.3166 11.429C14.2272 11.429 13.3441 10.5459 13.3441 9.45657V2.49258C13.3441 1.18432 14.2499 0.5 15.3166 0.5C16.323 0.5 17.2287 1.18432 17.2891 2.39195H17.913C19.1206 2.39195 19.4226 3.19703 19.4226 3.98199C19.4226 4.76695 19.1005 5.55191 17.913 5.55191H17.2891V6.67902H17.913C19.1206 6.67902 19.4226 7.48411 19.4226 8.26907C19.4226 9.05402 19.1005 9.83898 17.913 9.83898H17.2891C17.2891 10.7171 16.5772 11.429 15.699 11.429H15.3166Z" fill="#06C755"/>
<path d="M37.2754 4.24364H32.3241C32.2838 4.5858 32.2235 4.92797 32.1429 5.22987H32.3442C35.0252 5.18113 37.7455 6.37848 38.8215 9.03372C39.2725 10.1467 38.276 11.1875 37.0751 11.1875C36.0618 11.1875 35.2554 10.3906 34.6136 9.60633C33.8004 8.61246 32.4202 8.12634 30.8347 8.16843C30.7139 8.16843 30.573 8.18856 30.412 8.20869C28.6207 10.0403 25.8834 11.0265 23.4279 11.1875C22.3209 11.268 21.4151 10.6642 21.2944 9.71822C21.1736 8.83263 21.6768 8.00741 22.663 7.88665C25.4406 7.56462 27.7552 6.41737 28.1578 4.24364H23.3474C22.1397 4.24364 21.6567 3.41843 21.6567 2.59322C21.6567 1.78814 22.1196 0.942797 23.3474 0.942797H37.2754C38.5031 0.942797 38.9661 1.78814 38.9661 2.59322C38.9661 3.41843 38.483 4.24364 37.2754 4.24364ZM38.0402 15.1928H32.3643V17.447C32.3643 18.5809 31.4452 19.5 30.3114 19.5C29.1775 19.5 28.2584 18.5809 28.2584 17.447V15.1928H22.5825C21.3749 15.1928 20.8918 14.3877 20.8918 13.5625C20.8918 12.7574 21.3548 11.9121 22.5825 11.9121H38.0402C39.268 11.9121 39.7309 12.7574 39.7309 13.5625C39.7309 14.3877 39.2478 15.1928 38.0402 15.1928Z" fill="#06C755"/>
<path d="M42.3474 15.3337C44.4608 13.4417 45.0042 10.9258 45.0042 5.0286V2.99576C45.0042 1.70763 45.8294 1.10381 46.876 1.10381C47.9025 1.10381 48.768 1.76801 48.768 2.99576V5.00847C48.768 6.61864 48.6875 8.08792 48.5265 9.41631C50.7439 10.4714 52.0557 12.4797 52.0949 16.5989C52.1037 17.5273 51.3249 18.2521 50.3965 18.2521C49.3325 18.2521 48.5375 17.3117 48.5248 16.2478C48.5092 14.9412 48.2394 13.9785 47.7415 13.3008C47.0371 15.6356 45.9905 17.2055 44.7627 18.0508C43.9979 18.5742 42.6896 18.7754 41.9851 17.9301C41.3612 17.1854 41.5423 16.0381 42.3474 15.3337ZM54.5848 19.3994C53.6288 19.3994 52.8538 18.6244 52.8538 17.6684V9.59746H51.2034C49.9958 9.59746 49.5127 8.69174 49.5127 7.86652C49.5127 7.06144 49.9756 6.13559 51.2034 6.13559H52.8538V2.2108C52.8538 1.08369 53.6388 0.5 54.5646 0.5C55.4704 0.5 56.3157 1.10381 56.3157 2.2108V17.6684C56.3157 18.6244 55.5407 19.3994 54.5848 19.3994ZM59.053 19.3994C58.0637 19.3994 57.2617 18.5974 57.2617 17.608V2.2108C57.2617 1.08369 58.1271 0.5 59.053 0.5C59.9587 0.5 60.8443 1.10381 60.8443 2.2108V17.608C60.8443 18.5974 60.0423 19.3994 59.053 19.3994Z" fill="#06C755"/>
<path d="M64.1251 6.41737V6.17585C64.1251 3.41843 65.9768 1.00318 69.3581 1.00318H76.6039C79.9853 1.00318 81.837 3.41843 81.837 6.17585V6.41737C81.837 9.17479 79.9853 11.5699 76.6039 11.5699H69.3581C65.9768 11.5699 64.1251 9.17479 64.1251 6.41737ZM65.2522 15.7765H67.2045V13.9449C67.2045 12.6367 68.1304 12.2341 69.1971 12.2341C70.2437 12.2341 71.1897 12.6568 71.1897 13.9449V15.7765H74.7723V13.9449C74.7723 12.6367 75.6982 12.2341 76.7649 12.2341C77.8115 12.2341 78.7575 12.6568 78.7575 13.9449V15.7765H80.7099C81.9376 15.7765 82.4005 16.5816 82.4005 17.3867C82.4005 18.2119 81.9175 18.9968 80.7099 18.9968H65.2522C64.0445 18.9968 63.5615 18.2119 63.5615 17.3867C63.5615 16.5816 64.0244 15.7765 65.2522 15.7765ZM77.6505 6.45763V6.13559C77.6505 5.06886 76.8253 4.2839 75.4969 4.2839H70.4651C69.1367 4.2839 68.3115 5.06886 68.3115 6.13559V6.45763C68.3115 7.52436 69.1367 8.30932 70.4651 8.30932H75.4969C76.8253 8.30932 77.6505 7.52436 77.6505 6.45763Z" fill="#06C755"/>
<path d="M4.74238 0.816406C1.88568 1.05582 0 2.47521 0 5.44944V6.45588C0 9.43011 1.88568 10.8495 4.74238 11.0889V0.816406Z" fill="#06C755"/>
<path d="M6.7705 11.07C9.51469 10.7817 11.3125 9.36001 11.3125 6.45588V5.44944C11.3125 2.54531 9.51469 1.12359 6.7705 0.835305V11.07Z" fill="#06C755"/>
</svg>
