<svg width="40" height="40" viewBox="0 0 40 40" fill="none" xmlns="http://www.w3.org/2000/svg">
<path d="M14.1048 10.104H14.5848C17.1122 10.4634 17.7974 11.8425 19.9998 11.8425C22.2022 11.8425 22.8874 10.4634 25.4154 10.104H25.6873C26.3631 10.104 27.0322 10.232 27.6565 10.4806C28.2808 10.7293 28.8481 11.0938 29.326 11.5532C29.8038 12.0127 30.1828 12.5581 30.4414 13.1584C30.7 13.7587 30.8331 14.4022 30.8331 15.0519V15.378C30.8331 16.8899 29.1594 18.616 28.6665 20.2514C28.1438 21.9879 27.7857 23.4077 27.6806 24.8925C27.4342 28.3722 26.2003 29.8957 24.8748 29.8957C22.8956 29.8957 21.1384 22.0962 20.0339 22.0962C18.9289 22.0962 16.7379 29.8957 15.1248 29.8957C14.1406 29.8957 12.8661 29.3358 12.3872 24.8925C12.1966 23.1248 11.8748 22.0524 11.3331 20.2514C10.8565 18.6681 9.2488 16.7764 9.16647 15.0785C9.13541 14.4363 9.24013 13.7948 9.4743 13.1927C9.70846 12.5905 10.0672 12.0403 10.5288 11.5753C10.9905 11.1103 11.5454 10.7402 12.16 10.4873C12.7747 10.2344 13.4363 10.104 14.1048 10.104Z" fill="white" stroke="black" stroke-width="1.75"/>
<path d="M15.3857 13.9912L24.3335 16.7652L15.3857 13.9912ZM15.3857 16.7652L24.3335 13.9912L15.3857 16.7652Z" fill="white"/>
<path d="M15.3857 13.9912L24.3335 16.7652M15.3857 16.7652L24.3335 13.9912" stroke="black" stroke-width="1.75" stroke-linecap="round"/>
</svg>
