<svg width="40" height="40" viewBox="0 0 40 40" fill="none" xmlns="http://www.w3.org/2000/svg">
<circle cx="20" cy="20" r="10.4688" fill="#4AE0A1"/>
<path d="M15.7031 22.5781L16.875 21.1719L17.9688 21.5625H19.7656L21.25 21.1719H22.2656L23.9844 21.9531V24.4531L22.6562 26.1719V30.7031H17.4219V26.7188L16.875 24.4531L15.7031 22.5781Z" fill="white"/>
<path d="M24.4531 17.4949L23.237 19.0625L22.102 18.627L20.2373 18.627L18.6969 19.0625L17.643 19.0625L15.8594 18.1916L15.8594 15.4047L17.2376 13.4887L17.2376 8.4375L22.6695 8.4375L22.6695 12.8791L23.237 15.4047L24.4531 17.4949Z" fill="white"/>
<mask id="path-4-outside-1_730_8523" maskUnits="userSpaceOnUse" x="7.75" y="6.5" width="24" height="27" fill="black">
<rect fill="white" x="7.75" y="6.5" width="24" height="27"/>
<path fill-rule="evenodd" clip-rule="evenodd" d="M17.5 7.5C17.6658 7.5 17.8247 7.56585 17.9419 7.68306C18.0592 7.80027 18.125 7.95924 18.125 8.125V13.3394C18.125 13.7498 18.0441 14.1563 17.887 14.5355C17.7299 14.9147 17.4997 15.2592 17.2094 15.5494L16.895 15.8644C16.6548 16.1043 16.5079 16.422 16.4806 16.7603C16.4532 17.0987 16.5472 17.4358 16.7457 17.7112C16.9442 17.9867 17.2343 18.1824 17.564 18.2635C17.8936 18.3446 18.2414 18.3057 18.545 18.1537L18.6962 18.0781C19.101 17.8758 19.5472 17.7704 19.9997 17.7704C20.4522 17.7704 20.8984 17.8758 21.3031 18.0781L21.455 18.1531C21.7585 18.3046 22.106 18.3433 22.4354 18.2621C22.7648 18.181 23.0545 17.9853 23.2529 17.7101C23.4513 17.435 23.5453 17.0982 23.5182 16.7601C23.4911 16.4219 23.3447 16.1044 23.105 15.8644L22.7906 15.5494C22.5003 15.2592 22.2701 14.9147 22.113 14.5355C21.9559 14.1563 21.875 13.7498 21.875 13.3394V8.125C21.875 7.95924 21.9408 7.80027 22.0581 7.68306C22.1753 7.56585 22.3342 7.5 22.5 7.5C22.6658 7.5 22.8247 7.56585 22.9419 7.68306C23.0592 7.80027 23.125 7.95924 23.125 8.125V9.19C27.8181 10.5437 31.25 14.8712 31.25 20C31.25 25.1287 27.8181 29.4563 23.125 30.8106V31.875C23.125 32.0408 23.0592 32.1997 22.9419 32.3169C22.8247 32.4342 22.6658 32.5 22.5 32.5C22.3342 32.5 22.1753 32.4342 22.0581 32.3169C21.9408 32.1997 21.875 32.0408 21.875 31.875V26.6606C21.875 26.2502 21.9559 25.8437 22.113 25.4645C22.2701 25.0853 22.5003 24.7408 22.7906 24.4506L23.105 24.1356C23.3452 23.8957 23.4921 23.578 23.5194 23.2397C23.5468 22.9013 23.4528 22.5642 23.2543 22.2888C23.0558 22.0133 22.7657 21.8176 22.436 21.7365C22.1064 21.6554 21.7586 21.6943 21.455 21.8463L21.3038 21.9219C20.899 22.1242 20.4528 22.2296 20.0003 22.2296C19.5478 22.2296 19.1016 22.1242 18.6969 21.9219L18.545 21.8469C18.2415 21.6954 17.894 21.6567 17.5646 21.7379C17.2352 21.819 16.9455 22.0147 16.7471 22.2899C16.5487 22.565 16.4547 22.9018 16.4818 23.2399C16.5089 23.5781 16.6553 23.8956 16.895 24.1356L17.2094 24.4506C17.4997 24.7408 17.7299 25.0853 17.887 25.4645C18.0441 25.8437 18.125 26.2502 18.125 26.6606V31.875C18.125 32.0408 18.0592 32.1997 17.9419 32.3169C17.8247 32.4342 17.6658 32.5 17.5 32.5C17.3342 32.5 17.1753 32.4342 17.0581 32.3169C16.9408 32.1997 16.875 32.0408 16.875 31.875V30.8106C12.1819 29.4563 8.75 25.1294 8.75 20C8.75 14.8712 12.1819 10.5437 16.875 9.19V8.125C16.875 7.95924 16.9408 7.80027 17.0581 7.68306C17.1753 7.56585 17.3342 7.5 17.5 7.5ZM16.875 10.4981C12.8825 11.8106 10 15.5688 10 20C10 24.4312 12.8825 28.19 16.875 29.5019V26.6606C16.8749 26.1634 16.6773 25.6865 16.3256 25.335L16.0106 25.02C15.5608 24.57 15.2857 23.9746 15.2346 23.3403C15.1836 22.706 15.3598 22.0743 15.7319 21.5581C16.104 21.0419 16.6476 20.675 17.2655 20.5229C17.8834 20.3708 18.5352 20.4436 19.1044 20.7281L19.2556 20.8037C19.7244 21.0381 20.2756 21.0381 20.7444 20.8037L20.8956 20.7288C21.4647 20.4446 22.1162 20.3722 22.7338 20.5243C23.3514 20.6764 23.8948 21.0433 24.2667 21.5592C24.6387 22.0752 24.815 22.7066 24.7642 23.3406C24.7134 23.9746 24.4388 24.5699 23.9894 25.02L23.6744 25.335C23.3229 25.6864 23.1253 26.163 23.125 26.66V29.5019C27.1175 28.1894 30 24.4312 30 20C30 15.5688 27.1175 11.81 23.125 10.4981V13.3394C23.1251 13.8366 23.3227 14.3135 23.6744 14.665L23.9894 14.98C24.4392 15.43 24.7143 16.0254 24.7654 16.6597C24.8164 17.294 24.6402 17.9257 24.2681 18.4419C23.896 18.9581 23.3524 19.325 22.7345 19.4771C22.1166 19.6292 21.4648 19.5564 20.8956 19.2719L20.7444 19.1963C20.5133 19.0807 20.2584 19.0205 20 19.0205C19.7416 19.0205 19.4867 19.0807 19.2556 19.1963L19.1044 19.2712C18.5353 19.5554 17.8838 19.6278 17.2662 19.4757C16.6486 19.3236 16.1052 18.9567 15.7333 18.4408C15.3613 17.9248 15.185 17.2934 15.2358 16.6594C15.2866 16.0254 15.5612 15.4301 16.0106 14.98L16.3256 14.665C16.6771 14.3136 16.8747 13.837 16.875 13.34V10.4975V10.4981Z"/>
</mask>
<path fill-rule="evenodd" clip-rule="evenodd" d="M17.5 7.5C17.6658 7.5 17.8247 7.56585 17.9419 7.68306C18.0592 7.80027 18.125 7.95924 18.125 8.125V13.3394C18.125 13.7498 18.0441 14.1563 17.887 14.5355C17.7299 14.9147 17.4997 15.2592 17.2094 15.5494L16.895 15.8644C16.6548 16.1043 16.5079 16.422 16.4806 16.7603C16.4532 17.0987 16.5472 17.4358 16.7457 17.7112C16.9442 17.9867 17.2343 18.1824 17.564 18.2635C17.8936 18.3446 18.2414 18.3057 18.545 18.1537L18.6962 18.0781C19.101 17.8758 19.5472 17.7704 19.9997 17.7704C20.4522 17.7704 20.8984 17.8758 21.3031 18.0781L21.455 18.1531C21.7585 18.3046 22.106 18.3433 22.4354 18.2621C22.7648 18.181 23.0545 17.9853 23.2529 17.7101C23.4513 17.435 23.5453 17.0982 23.5182 16.7601C23.4911 16.4219 23.3447 16.1044 23.105 15.8644L22.7906 15.5494C22.5003 15.2592 22.2701 14.9147 22.113 14.5355C21.9559 14.1563 21.875 13.7498 21.875 13.3394V8.125C21.875 7.95924 21.9408 7.80027 22.0581 7.68306C22.1753 7.56585 22.3342 7.5 22.5 7.5C22.6658 7.5 22.8247 7.56585 22.9419 7.68306C23.0592 7.80027 23.125 7.95924 23.125 8.125V9.19C27.8181 10.5437 31.25 14.8712 31.25 20C31.25 25.1287 27.8181 29.4563 23.125 30.8106V31.875C23.125 32.0408 23.0592 32.1997 22.9419 32.3169C22.8247 32.4342 22.6658 32.5 22.5 32.5C22.3342 32.5 22.1753 32.4342 22.0581 32.3169C21.9408 32.1997 21.875 32.0408 21.875 31.875V26.6606C21.875 26.2502 21.9559 25.8437 22.113 25.4645C22.2701 25.0853 22.5003 24.7408 22.7906 24.4506L23.105 24.1356C23.3452 23.8957 23.4921 23.578 23.5194 23.2397C23.5468 22.9013 23.4528 22.5642 23.2543 22.2888C23.0558 22.0133 22.7657 21.8176 22.436 21.7365C22.1064 21.6554 21.7586 21.6943 21.455 21.8463L21.3038 21.9219C20.899 22.1242 20.4528 22.2296 20.0003 22.2296C19.5478 22.2296 19.1016 22.1242 18.6969 21.9219L18.545 21.8469C18.2415 21.6954 17.894 21.6567 17.5646 21.7379C17.2352 21.819 16.9455 22.0147 16.7471 22.2899C16.5487 22.565 16.4547 22.9018 16.4818 23.2399C16.5089 23.5781 16.6553 23.8956 16.895 24.1356L17.2094 24.4506C17.4997 24.7408 17.7299 25.0853 17.887 25.4645C18.0441 25.8437 18.125 26.2502 18.125 26.6606V31.875C18.125 32.0408 18.0592 32.1997 17.9419 32.3169C17.8247 32.4342 17.6658 32.5 17.5 32.5C17.3342 32.5 17.1753 32.4342 17.0581 32.3169C16.9408 32.1997 16.875 32.0408 16.875 31.875V30.8106C12.1819 29.4563 8.75 25.1294 8.75 20C8.75 14.8712 12.1819 10.5437 16.875 9.19V8.125C16.875 7.95924 16.9408 7.80027 17.0581 7.68306C17.1753 7.56585 17.3342 7.5 17.5 7.5ZM16.875 10.4981C12.8825 11.8106 10 15.5688 10 20C10 24.4312 12.8825 28.19 16.875 29.5019V26.6606C16.8749 26.1634 16.6773 25.6865 16.3256 25.335L16.0106 25.02C15.5608 24.57 15.2857 23.9746 15.2346 23.3403C15.1836 22.706 15.3598 22.0743 15.7319 21.5581C16.104 21.0419 16.6476 20.675 17.2655 20.5229C17.8834 20.3708 18.5352 20.4436 19.1044 20.7281L19.2556 20.8037C19.7244 21.0381 20.2756 21.0381 20.7444 20.8037L20.8956 20.7288C21.4647 20.4446 22.1162 20.3722 22.7338 20.5243C23.3514 20.6764 23.8948 21.0433 24.2667 21.5592C24.6387 22.0752 24.815 22.7066 24.7642 23.3406C24.7134 23.9746 24.4388 24.5699 23.9894 25.02L23.6744 25.335C23.3229 25.6864 23.1253 26.163 23.125 26.66V29.5019C27.1175 28.1894 30 24.4312 30 20C30 15.5688 27.1175 11.81 23.125 10.4981V13.3394C23.1251 13.8366 23.3227 14.3135 23.6744 14.665L23.9894 14.98C24.4392 15.43 24.7143 16.0254 24.7654 16.6597C24.8164 17.294 24.6402 17.9257 24.2681 18.4419C23.896 18.9581 23.3524 19.325 22.7345 19.4771C22.1166 19.6292 21.4648 19.5564 20.8956 19.2719L20.7444 19.1963C20.5133 19.0807 20.2584 19.0205 20 19.0205C19.7416 19.0205 19.4867 19.0807 19.2556 19.1963L19.1044 19.2712C18.5353 19.5554 17.8838 19.6278 17.2662 19.4757C16.6486 19.3236 16.1052 18.9567 15.7333 18.4408C15.3613 17.9248 15.185 17.2934 15.2358 16.6594C15.2866 16.0254 15.5612 15.4301 16.0106 14.98L16.3256 14.665C16.6771 14.3136 16.8747 13.837 16.875 13.34V10.4975V10.4981Z" fill="black"/>
<path fill-rule="evenodd" clip-rule="evenodd" d="M17.5 7.5C17.6658 7.5 17.8247 7.56585 17.9419 7.68306C18.0592 7.80027 18.125 7.95924 18.125 8.125V13.3394C18.125 13.7498 18.0441 14.1563 17.887 14.5355C17.7299 14.9147 17.4997 15.2592 17.2094 15.5494L16.895 15.8644C16.6548 16.1043 16.5079 16.422 16.4806 16.7603C16.4532 17.0987 16.5472 17.4358 16.7457 17.7112C16.9442 17.9867 17.2343 18.1824 17.564 18.2635C17.8936 18.3446 18.2414 18.3057 18.545 18.1537L18.6962 18.0781C19.101 17.8758 19.5472 17.7704 19.9997 17.7704C20.4522 17.7704 20.8984 17.8758 21.3031 18.0781L21.455 18.1531C21.7585 18.3046 22.106 18.3433 22.4354 18.2621C22.7648 18.181 23.0545 17.9853 23.2529 17.7101C23.4513 17.435 23.5453 17.0982 23.5182 16.7601C23.4911 16.4219 23.3447 16.1044 23.105 15.8644L22.7906 15.5494C22.5003 15.2592 22.2701 14.9147 22.113 14.5355C21.9559 14.1563 21.875 13.7498 21.875 13.3394V8.125C21.875 7.95924 21.9408 7.80027 22.0581 7.68306C22.1753 7.56585 22.3342 7.5 22.5 7.5C22.6658 7.5 22.8247 7.56585 22.9419 7.68306C23.0592 7.80027 23.125 7.95924 23.125 8.125V9.19C27.8181 10.5437 31.25 14.8712 31.25 20C31.25 25.1287 27.8181 29.4563 23.125 30.8106V31.875C23.125 32.0408 23.0592 32.1997 22.9419 32.3169C22.8247 32.4342 22.6658 32.5 22.5 32.5C22.3342 32.5 22.1753 32.4342 22.0581 32.3169C21.9408 32.1997 21.875 32.0408 21.875 31.875V26.6606C21.875 26.2502 21.9559 25.8437 22.113 25.4645C22.2701 25.0853 22.5003 24.7408 22.7906 24.4506L23.105 24.1356C23.3452 23.8957 23.4921 23.578 23.5194 23.2397C23.5468 22.9013 23.4528 22.5642 23.2543 22.2888C23.0558 22.0133 22.7657 21.8176 22.436 21.7365C22.1064 21.6554 21.7586 21.6943 21.455 21.8463L21.3038 21.9219C20.899 22.1242 20.4528 22.2296 20.0003 22.2296C19.5478 22.2296 19.1016 22.1242 18.6969 21.9219L18.545 21.8469C18.2415 21.6954 17.894 21.6567 17.5646 21.7379C17.2352 21.819 16.9455 22.0147 16.7471 22.2899C16.5487 22.565 16.4547 22.9018 16.4818 23.2399C16.5089 23.5781 16.6553 23.8956 16.895 24.1356L17.2094 24.4506C17.4997 24.7408 17.7299 25.0853 17.887 25.4645C18.0441 25.8437 18.125 26.2502 18.125 26.6606V31.875C18.125 32.0408 18.0592 32.1997 17.9419 32.3169C17.8247 32.4342 17.6658 32.5 17.5 32.5C17.3342 32.5 17.1753 32.4342 17.0581 32.3169C16.9408 32.1997 16.875 32.0408 16.875 31.875V30.8106C12.1819 29.4563 8.75 25.1294 8.75 20C8.75 14.8712 12.1819 10.5437 16.875 9.19V8.125C16.875 7.95924 16.9408 7.80027 17.0581 7.68306C17.1753 7.56585 17.3342 7.5 17.5 7.5ZM16.875 10.4981C12.8825 11.8106 10 15.5688 10 20C10 24.4312 12.8825 28.19 16.875 29.5019V26.6606C16.8749 26.1634 16.6773 25.6865 16.3256 25.335L16.0106 25.02C15.5608 24.57 15.2857 23.9746 15.2346 23.3403C15.1836 22.706 15.3598 22.0743 15.7319 21.5581C16.104 21.0419 16.6476 20.675 17.2655 20.5229C17.8834 20.3708 18.5352 20.4436 19.1044 20.7281L19.2556 20.8037C19.7244 21.0381 20.2756 21.0381 20.7444 20.8037L20.8956 20.7288C21.4647 20.4446 22.1162 20.3722 22.7338 20.5243C23.3514 20.6764 23.8948 21.0433 24.2667 21.5592C24.6387 22.0752 24.815 22.7066 24.7642 23.3406C24.7134 23.9746 24.4388 24.5699 23.9894 25.02L23.6744 25.335C23.3229 25.6864 23.1253 26.163 23.125 26.66V29.5019C27.1175 28.1894 30 24.4312 30 20C30 15.5688 27.1175 11.81 23.125 10.4981V13.3394C23.1251 13.8366 23.3227 14.3135 23.6744 14.665L23.9894 14.98C24.4392 15.43 24.7143 16.0254 24.7654 16.6597C24.8164 17.294 24.6402 17.9257 24.2681 18.4419C23.896 18.9581 23.3524 19.325 22.7345 19.4771C22.1166 19.6292 21.4648 19.5564 20.8956 19.2719L20.7444 19.1963C20.5133 19.0807 20.2584 19.0205 20 19.0205C19.7416 19.0205 19.4867 19.0807 19.2556 19.1963L19.1044 19.2712C18.5353 19.5554 17.8838 19.6278 17.2662 19.4757C16.6486 19.3236 16.1052 18.9567 15.7333 18.4408C15.3613 17.9248 15.185 17.2934 15.2358 16.6594C15.2866 16.0254 15.5612 15.4301 16.0106 14.98L16.3256 14.665C16.6771 14.3136 16.8747 13.837 16.875 13.34V10.4975V10.4981Z" stroke="black" stroke-width="0.4" mask="url(#path-4-outside-1_730_8523)"/>
</svg>
