<svg width="40" height="40" viewBox="0 0 40 40" fill="none" xmlns="http://www.w3.org/2000/svg">
<path d="M14.8267 10.3428L19.8622 12.7571L24.4839 10.8946C26.6913 10.7107 31.106 11.6948 31.106 17.1028C31.106 22.5108 23.6102 27.8177 19.8622 29.7951L15.8614 27.5188L9.86016 21.4485L8.6875 15.6542L11.1708 11.7224L14.8267 10.3428Z" fill="#FF5E71"/>
<path d="M24.3476 27.1738C22.7886 28.3183 21.2275 29.1533 20.0002 29.5611C16.1373 28.2775 8.96338 22.7591 8.96338 16.6889C8.96338 13.3365 11.6812 10.6187 15.0336 10.6187C17.0865 10.6187 18.902 11.6379 20.0002 13.198C20.5599 12.4007 21.3035 11.75 22.168 11.301C23.0326 10.852 23.9926 10.618 24.9667 10.6187C28.3191 10.6187 31.0369 13.3365 31.0369 16.6889C31.0369 17.6529 30.8559 18.6027 30.5364 19.5237" stroke="black" stroke-width="1.75" stroke-linecap="round" stroke-linejoin="round"/>
<path d="M21.6558 22.7591H23.8631L25.5186 20.5518L27.1742 24.9665L28.8087 22.7591H31.037" stroke="black" stroke-width="1.75" stroke-linecap="round" stroke-linejoin="round"/>
</svg>
