<svg width="28" height="28" viewBox="0 0 28 28" fill="none" xmlns="http://www.w3.org/2000/svg">
<path d="M21.0696 17.8755C21.0696 18.5199 20.4971 19.2791 19.1618 19.9117C17.8709 20.5231 16.0466 20.9173 14.0001 20.9173C11.9535 20.9173 10.1292 20.5231 8.83837 19.9117C7.50304 19.2791 6.9305 18.5199 6.9305 17.8755C6.9305 17.2312 7.50304 16.4719 8.83837 15.8394C10.1292 15.228 11.9535 14.8338 14.0001 14.8338C16.0466 14.8338 17.8709 15.228 19.1618 15.8394C20.4971 16.4719 21.0696 17.2312 21.0696 17.8755Z" fill="#F2F2F2" stroke="#232323" stroke-width="1.16667"/>
<path d="M6.94824 15.459L6.94824 17.8757" stroke="#232323" stroke-width="1.16667"/>
<path d="M21.0459 15.459L21.0459 17.8757" stroke="#232323" stroke-width="1.16667"/>
<path d="M21.0696 15.459C21.0696 16.1034 20.4971 16.8626 19.1618 17.4952C17.8709 18.1066 16.0466 18.5008 14.0001 18.5008C11.9535 18.5008 10.1292 18.1066 8.83837 17.4952C7.50304 16.8626 6.9305 16.1034 6.9305 15.459C6.9305 14.8147 7.50304 14.0554 8.83837 13.4229C10.1292 12.8115 11.9535 12.4173 14.0001 12.4173C16.0466 12.4173 17.8709 12.8115 19.1618 13.4229C20.4971 14.0554 21.0696 14.8147 21.0696 15.459Z" fill="#F2F2F2" stroke="#232323" stroke-width="1.16667"/>
<path d="M21.0696 12.5416C21.0696 13.1859 20.4971 13.9452 19.1618 14.5777C17.8709 15.1891 16.0466 15.5833 14.0001 15.5833C11.9535 15.5833 10.1292 15.1891 8.83837 14.5777C7.50304 13.9452 6.9305 13.1859 6.9305 12.5416C6.9305 11.8972 7.50304 11.138 8.83837 10.5054C10.1292 9.89399 11.9535 9.49984 14.0001 9.49984C16.0466 9.49984 17.8709 9.89399 19.1618 10.5054C20.4971 11.138 21.0696 11.8972 21.0696 12.5416Z" fill="#F2F2F2" stroke="#232323" stroke-width="1.16667"/>
<path d="M6.94824 10.125L6.94824 12.5417" stroke="#232323" stroke-width="1.16667"/>
<path d="M21.0459 10.125L21.0459 12.5417" stroke="#232323" stroke-width="1.16667"/>
<path d="M21.0696 10.1251C21.0696 10.7694 20.4971 11.5287 19.1618 12.1612C17.8709 12.7726 16.0466 13.1668 14.0001 13.1668C11.9535 13.1668 10.1292 12.7726 8.83837 12.1612C7.50304 11.5287 6.9305 10.7694 6.9305 10.1251C6.9305 9.48067 7.50304 8.72146 8.83837 8.08893C10.1292 7.47749 11.9535 7.08333 14.0001 7.08333C16.0466 7.08333 17.8709 7.47749 19.1618 8.08893C20.4971 8.72146 21.0696 9.48067 21.0696 10.1251Z" fill="#F2F2F2" stroke="#232323" stroke-width="1.16667"/>
</svg>
