<svg width="28" height="28" viewBox="0 0 28 28" fill="none" xmlns="http://www.w3.org/2000/svg">
<g clip-path="url(#clip0_654_9384)">
<rect x="9.1582" y="7.93457" width="9.68478" height="13.0598" fill="#F2F2F2"/>
<rect x="11.4565" y="6.76074" width="5.13587" height="13.0598" fill="#F2F2F2"/>
<path d="M12.875 13.437C12.875 13.2878 12.9343 13.1448 13.0398 13.0393C13.1452 12.9338 13.2883 12.8745 13.4375 12.8745H16.8125C16.9617 12.8745 17.1048 12.9338 17.2102 13.0393C17.3157 13.1448 17.375 13.2878 17.375 13.437C17.375 13.5862 17.3157 13.7293 17.2102 13.8348C17.1048 13.9402 16.9617 13.9995 16.8125 13.9995H13.4375C13.2883 13.9995 13.1452 13.9402 13.0398 13.8348C12.9343 13.7293 12.875 13.5862 12.875 13.437ZM12.875 16.812C12.875 16.6628 12.9343 16.5198 13.0398 16.4143C13.1452 16.3088 13.2883 16.2495 13.4375 16.2495H16.8125C16.9617 16.2495 17.1048 16.3088 17.2102 16.4143C17.3157 16.5198 17.375 16.6628 17.375 16.812C17.375 16.9612 17.3157 17.1043 17.2102 17.2098C17.1048 17.3152 16.9617 17.3745 16.8125 17.3745H13.4375C13.2883 17.3745 13.1452 17.3152 13.0398 17.2098C12.9343 17.1043 12.875 16.9612 12.875 16.812ZM11.1875 13.9995C11.3367 13.9995 11.4798 13.9402 11.5852 13.8348C11.6907 13.7293 11.75 13.5862 11.75 13.437C11.75 13.2878 11.6907 13.1448 11.5852 13.0393C11.4798 12.9338 11.3367 12.8745 11.1875 12.8745C11.0383 12.8745 10.8952 12.9338 10.7898 13.0393C10.6843 13.1448 10.625 13.2878 10.625 13.437C10.625 13.5862 10.6843 13.7293 10.7898 13.8348C10.8952 13.9402 11.0383 13.9995 11.1875 13.9995ZM11.1875 17.3745C11.3367 17.3745 11.4798 17.3152 11.5852 17.2098C11.6907 17.1043 11.75 16.9612 11.75 16.812C11.75 16.6628 11.6907 16.5198 11.5852 16.4143C11.4798 16.3088 11.3367 16.2495 11.1875 16.2495C11.0383 16.2495 10.8952 16.3088 10.7898 16.4143C10.6843 16.5198 10.625 16.6628 10.625 16.812C10.625 16.9612 10.6843 17.1043 10.7898 17.2098C10.8952 17.3152 11.0383 17.3745 11.1875 17.3745ZM10.7206 7.24951C10.837 6.92036 11.0526 6.63541 11.3377 6.43392C11.6228 6.23243 11.9634 6.12433 12.3125 6.12451H15.6875C16.0366 6.12433 16.3772 6.23243 16.6623 6.43392C16.9474 6.63541 17.163 6.92036 17.2794 7.24951H17.9375C18.3851 7.24951 18.8143 7.4273 19.1307 7.74377C19.4472 8.06024 19.625 8.48946 19.625 8.93701V20.187C19.625 20.6346 19.4472 21.0638 19.1307 21.3803C18.8143 21.6967 18.3851 21.8745 17.9375 21.8745H10.0625C9.61495 21.8745 9.18573 21.6967 8.86926 21.3803C8.55279 21.0638 8.375 20.6346 8.375 20.187V8.93701C8.375 8.48946 8.55279 8.06024 8.86926 7.74377C9.18573 7.4273 9.61495 7.24951 10.0625 7.24951H10.7206ZM12.3125 7.24951C12.1633 7.24951 12.0202 7.30878 11.9148 7.41426C11.8093 7.51975 11.75 7.66283 11.75 7.81201C11.75 7.9612 11.8093 8.10427 11.9148 8.20976C12.0202 8.31525 12.1633 8.37451 12.3125 8.37451H15.6875C15.8367 8.37451 15.9798 8.31525 16.0852 8.20976C16.1907 8.10427 16.25 7.9612 16.25 7.81201C16.25 7.66283 16.1907 7.51975 16.0852 7.41426C15.9798 7.30878 15.8367 7.24951 15.6875 7.24951H12.3125ZM10.7206 8.37451H10.0625C9.91332 8.37451 9.77024 8.43378 9.66475 8.53926C9.55926 8.64475 9.5 8.78783 9.5 8.93701V20.187C9.5 20.3362 9.55926 20.4793 9.66475 20.5848C9.77024 20.6902 9.91332 20.7495 10.0625 20.7495H17.9375C18.0867 20.7495 18.2298 20.6902 18.3352 20.5848C18.4407 20.4793 18.5 20.3362 18.5 20.187V8.93701C18.5 8.78783 18.4407 8.64475 18.3352 8.53926C18.2298 8.43378 18.0867 8.37451 17.9375 8.37451H17.2794C17.163 8.70366 16.9474 8.98862 16.6623 9.19011C16.3772 9.39159 16.0366 9.4997 15.6875 9.49951H12.3125C11.9634 9.4997 11.6228 9.39159 11.3377 9.19011C11.0526 8.98862 10.837 8.70366 10.7206 8.37451Z" fill="#232323"/>
<rect x="-27.7003" y="-39.2447" width="83.793" height="105.706" stroke="#232323" stroke-width="1.12"/>
</g>
<defs>
<clipPath id="clip0_654_9384">
<rect width="18" height="18" fill="white" transform="translate(5 5)"/>
</clipPath>
</defs>
</svg>
