<svg width="28" height="28" viewBox="0 0 28 28" fill="none" xmlns="http://www.w3.org/2000/svg">
<path d="M8.55556 8.46556H8.46556V8.55556V11.5767H7.09V7.09H11.5767V8.46556H8.55556ZM8.55556 19.5344H11.5767V20.91H7.09V16.4233H8.46556V19.4444V19.5344H8.55556ZM19.5344 8.55556V8.46556H19.4444H16.4233V7.09H20.91V11.5767H19.5344V8.55556ZM19.5344 19.4444V16.4233H20.91V20.91H16.4233V19.5344H19.4444H19.5344V19.4444ZM13.1322 10.2011V13.1322H10.2011V10.2011H13.1322ZM13.1322 14.8678V17.7989H10.2011V14.8678H13.1322ZM14.8678 13.1322V10.2011H17.7989V13.1322H14.8678ZM17.7989 14.8678V17.7989H14.8678V14.8678H17.7989Z" fill="#232323" stroke="#F2F2F2" stroke-width="0.18"/>
</svg>
