<svg width="28" height="28" viewBox="0 0 28 28" fill="none" xmlns="http://www.w3.org/2000/svg">
<path d="M12.9552 8.63473L12.9998 8.68416L13.0443 8.63473C13.9133 7.67083 15.2459 7.06 16.6344 7.06C19.0922 7.06 21.0167 8.88264 21.0167 11.1962C21.0167 12.6173 20.3406 13.9121 19.1383 15.3006C17.9367 16.6883 16.2167 18.1616 14.1388 19.9415L14.1319 19.9473L14.1318 19.9474L12.9996 20.921L11.8677 19.955L11.8676 19.9549L11.839 19.9304C9.77081 18.1551 8.05864 16.6854 6.86125 15.3016C5.6589 13.9121 4.98285 12.6173 4.98285 11.1962C4.98285 8.88264 6.90734 7.06 9.36516 7.06C10.7536 7.06 12.0862 7.67083 12.9552 8.63473ZM12.9586 18.9837L12.9998 19.0226L13.041 18.9837L13.1207 18.9084C15.0414 17.2656 16.6396 15.8975 17.7571 14.664C18.874 13.4312 19.5213 12.322 19.5213 11.1962C19.5213 9.63399 18.2796 8.46589 16.6344 8.46589C15.3844 8.46589 14.1628 9.21508 13.7188 10.2664H12.2885C11.8369 9.21529 10.6154 8.46589 9.36516 8.46589C7.71991 8.46589 6.47824 9.63399 6.47824 11.1962C6.47824 12.322 7.12554 13.4312 8.24243 14.664C9.35997 15.8975 10.9582 17.2656 12.8789 18.9084L12.9586 18.9837Z" fill="#232323" stroke="#F2F2F2" stroke-width="0.12"/>
</svg>
