<svg width="28" height="28" viewBox="0 0 28 28" fill="none" xmlns="http://www.w3.org/2000/svg">
<path d="M10.8889 7.09C11.2687 7.09 11.5767 7.39793 11.5767 7.77778C11.5767 8.15763 11.2687 8.46556 10.8889 8.46556H8.85556C8.64016 8.46556 8.46556 8.64016 8.46556 8.85556V10.8889C8.46556 11.2687 8.15763 11.5767 7.77778 11.5767C7.39793 11.5767 7.09 11.2687 7.09 10.8889V8C7.09 7.49742 7.49742 7.09 8 7.09H10.8889ZM8 20.91C7.49742 20.91 7.09 20.5026 7.09 20V17.1111C7.09 16.7313 7.39793 16.4233 7.77778 16.4233C8.15763 16.4233 8.46556 16.7313 8.46556 17.1111V19.1444C8.46556 19.3598 8.64016 19.5344 8.85556 19.5344H10.8889C11.2687 19.5344 11.5767 19.8424 11.5767 20.2222C11.5767 20.6021 11.2687 20.91 10.8889 20.91H8ZM16.4233 7.77778C16.4233 7.39793 16.7313 7.09 17.1111 7.09H20C20.5026 7.09 20.91 7.49742 20.91 8V10.8889C20.91 11.2687 20.6021 11.5767 20.2222 11.5767C19.8424 11.5767 19.5344 11.2687 19.5344 10.8889V8.85556C19.5344 8.64016 19.3598 8.46556 19.1444 8.46556H17.1111C16.7313 8.46556 16.4233 8.15763 16.4233 7.77778ZM19.5344 17.1111C19.5344 16.7313 19.8424 16.4233 20.2222 16.4233C20.6021 16.4233 20.91 16.7313 20.91 17.1111V20C20.91 20.5026 20.5026 20.91 20 20.91H17.1111C16.7313 20.91 16.4233 20.6021 16.4233 20.2222C16.4233 19.8424 16.7313 19.5344 17.1111 19.5344H19.1444C19.3598 19.5344 19.5344 19.3598 19.5344 19.1444V17.1111Z" fill="#6FD065" stroke="white" stroke-width="0.18"/>
<path d="M12.7222 10.1113H10.6111C10.3349 10.1113 10.1111 10.3352 10.1111 10.6113V12.7224C10.1111 12.9986 10.3349 13.2224 10.6111 13.2224H12.7222C12.9983 13.2224 13.2222 12.9986 13.2222 12.7224V10.6113C13.2222 10.3352 12.9983 10.1113 12.7222 10.1113Z" fill="#4BBA54"/>
<path d="M12.7222 14.778H10.6111C10.3349 14.778 10.1111 15.0019 10.1111 15.278V17.3891C10.1111 17.6652 10.3349 17.8891 10.6111 17.8891H12.7222C12.9983 17.8891 13.2222 17.6652 13.2222 17.3891V15.278C13.2222 15.0019 12.9983 14.778 12.7222 14.778Z" fill="#4BBA54"/>
<path d="M15.2778 10.1113H17.3889C17.665 10.1113 17.8889 10.3352 17.8889 10.6113V12.7224C17.8889 12.9986 17.665 13.2224 17.3889 13.2224H15.2778C15.0016 13.2224 14.7778 12.9986 14.7778 12.7224V10.6113C14.7778 10.3352 15.0016 10.1113 15.2778 10.1113Z" fill="#4BBA54"/>
<path d="M17.3889 14.778H15.2778C15.0016 14.778 14.7778 15.0019 14.7778 15.278V17.3891C14.7778 17.6652 15.0016 17.8891 15.2778 17.8891H17.3889C17.665 17.8891 17.8889 17.6652 17.8889 17.3891V15.278C17.8889 15.0019 17.665 14.778 17.3889 14.778Z" fill="#4BBA54"/>
</svg>
