<svg width="63" height="50" viewBox="0 0 63 50" fill="none" xmlns="http://www.w3.org/2000/svg">
<path d="M9.10469 20.816C10.5585 18.2979 13.7783 17.4352 16.2963 18.889C18.8144 20.3429 19.6772 23.5628 18.2234 26.0809L15.5911 30.6403L6.47239 25.3754L9.10469 20.816Z" fill="#9078EE"/>
<path d="M12.9407 35.2303C11.4869 37.7484 8.26713 38.6111 5.74908 37.1573C3.23102 35.7034 2.36825 32.4835 3.82202 29.9654L6.47239 25.3754L15.5911 30.6403L12.9407 35.2303Z" fill="#CBBEF1"/>
<rect x="36.4131" y="9.16602" width="20.1667" height="5.50025" fill="#5D84F9"/>
<path d="M33.6685 2.75015C33.6685 1.23128 34.8997 0 36.4186 0H56.585C58.1038 0 59.3351 1.23129 59.3351 2.75015V4.58354H33.6685V2.75015Z" fill="#BCCCFC"/>
<path d="M59.3313 6.41586C59.3313 7.93473 58.1 9.16602 56.5811 9.16602L36.4148 9.16602C34.8959 9.16602 33.6646 7.93473 33.6646 6.41586L33.6646 4.58248L59.3313 4.58247L59.3313 6.41586Z" fill="#BCCCFC"/>
<rect x="30" y="11.915" width="33" height="37.585" rx="5.50031" fill="#CEDAFF"/>
<path d="M41.9185 4.58496H51.0851C51.0851 6.10381 49.8539 7.33508 48.335 7.33508H44.6686C43.1497 7.33508 41.9185 6.10381 41.9185 4.58496Z" fill="#5D84F9"/>
<rect x="30" y="20.168" width="33" height="23.8344" fill="#5D84F9"/>
<ellipse cx="46.5" cy="32.0844" rx="8.25" ry="8.25037" fill="#E7EDFF"/>
<circle cx="24.5" cy="40.5" r="9.5" fill="#F199C5"/>
<rect x="17.5312" y="39.25" width="14" height="2.5" rx="1.25" fill="#F4C6E2"/>
</svg>
