<svg width="77" height="61" viewBox="0 0 77 61" fill="none" xmlns="http://www.w3.org/2000/svg">
<path d="M18.1084 49.8892C17.7091 50.6189 16.0668 50.3627 15.5024 50.9095C14.9381 51.4563 15.062 53.1708 14.3557 53.5229C13.6495 53.8751 12.4973 52.6805 11.7207 52.7986C10.9441 52.9167 10.0935 54.4192 9.32031 54.2842C8.54713 54.1492 8.36224 52.4729 7.66548 52.0916C6.96871 51.7103 5.43782 52.4389 4.92672 51.8798C4.41562 51.3207 5.20021 49.7682 4.88392 49.0573C4.56763 48.3463 2.93841 48.0205 2.85334 47.2284C2.76827 46.4362 4.27447 45.6522 4.43631 44.8537C4.59815 44.0552 3.49078 42.8398 3.89082 42.1088C4.29085 41.3778 5.93245 41.6352 6.4968 41.0885C7.06115 40.5417 6.93722 38.8272 7.6435 38.475C8.34977 38.1229 9.50193 39.3174 10.2785 39.1994C11.0552 39.0813 11.905 37.5801 12.6782 37.7151C13.4514 37.8501 13.6363 39.5264 14.333 39.9077C15.0298 40.289 16.5599 39.5617 17.0731 40.1202C17.5862 40.6786 16.7996 42.2318 17.1159 42.9427C17.4322 43.6537 19.0614 43.9795 19.1464 44.7716C19.2315 45.5638 17.7253 46.3478 17.5635 47.1463C17.4016 47.9448 18.5083 49.1616 18.109 49.8912L18.1084 49.8892Z" fill="#A2DE8E"/>
<circle cx="13.1129" cy="44.1175" r="1.01304" fill="#DBF8D1"/>
<circle cx="10.0737" cy="47.1569" r="2.02609" fill="#DBF8D1"/>
<path d="M76.9977 12.9988C76.9977 14.333 74.4894 15.2372 74.1163 16.4413C73.7433 17.6453 75.2379 19.9624 74.5152 21.0017C73.7925 22.0411 71.2514 21.2475 70.2495 22.0116C69.2476 22.7758 69.2077 25.545 68.0158 25.9505C66.8238 26.3559 65.2729 24.1395 63.9988 24.1395C62.7248 24.1395 61.1316 26.3436 59.9819 25.9505C58.8321 25.5573 58.7406 22.7684 57.7481 22.0116C56.7556 21.2548 54.2122 22.0509 53.4824 21.0017C52.7527 19.9525 54.2685 17.6895 53.8813 16.4413C53.4942 15.193 51 14.3355 51 12.9988C51 11.6621 53.5083 10.7603 53.8813 9.55629C54.2544 8.35228 52.7598 6.03518 53.4824 4.9958C54.2051 3.95642 56.7462 4.75008 57.7481 3.98591C58.75 3.22173 58.7899 0.45497 59.9819 0.0495385C61.1738 -0.355893 62.7248 1.86047 63.9988 1.86047C65.2729 1.86047 66.8661 -0.34115 68.0181 0.0495385C69.1702 0.440227 69.2594 3.23156 70.2519 3.98837C71.2444 4.74517 73.7878 3.94905 74.5176 4.99826C75.2473 6.04747 73.7315 8.31051 74.1187 9.55875C74.5058 10.807 77 11.667 77 13.0012L76.9977 12.9988Z" fill="#D8F0D0"/>
<ellipse opacity="0.5" cx="60.8621" cy="11.1433" rx="1.7931" ry="1.85714" fill="white"/>
<ellipse opacity="0.5" cx="66.2414" cy="13.9283" rx="2.68966" ry="2.78571" fill="white"/>
<path d="M70.604 19.1376C69.5548 21.7965 66.1886 28.5793 58.6226 30.4084C68.6278 35.5441 75.8541 26.1365 71.6346 19.0157C71.3916 18.6057 70.7785 18.6954 70.604 19.1376Z" fill="#E77D2C"/>
<path fill-rule="evenodd" clip-rule="evenodd" d="M59.6249 12.9587C59.0922 12.4292 58.2286 12.4292 57.6959 12.9587L42.3652 28.1966C41.8325 28.7261 41.8325 29.5845 42.3652 30.114C42.8979 30.6434 43.7615 30.6434 44.2942 30.114L59.6249 14.876C60.1576 14.3465 60.1576 13.4881 59.6249 12.9587Z" fill="#212121"/>
<path fill-rule="evenodd" clip-rule="evenodd" d="M58.6714 46.8042L56.0339 60.2394V60.6686C56.0339 60.78 55.943 60.8703 55.8309 60.8703H50.1841C50.072 60.8703 49.9811 60.78 49.9811 60.6686V59.6417C49.9811 58.292 50.8753 57.15 52.107 56.7689V42.2285L58.6714 46.8042ZM37.5471 59.7892C37.4658 58.7104 37.9675 57.7219 38.7876 57.1293L34.7992 43.3464L42.2709 42.8386L43.5433 59.0285C43.5618 59.1304 43.5751 59.2342 43.583 59.3397L43.6602 60.3638C43.6686 60.4749 43.5848 60.5717 43.473 60.58L37.8419 60.9994C37.7301 61.0077 37.6327 60.9244 37.6243 60.8133L37.5471 59.7892Z" fill="#E77D2C"/>
<path fill-rule="evenodd" clip-rule="evenodd" d="M28.8308 13.9244C27.0461 13.8553 23.6471 14.4175 21.9362 16.8708C21.2119 17.9095 20.1716 18.8391 18.9001 18.8391H17.2958C16.6238 18.8391 16.0439 19.3252 16.0126 19.9924C15.8453 23.5545 17.3051 28.6431 24.2493 27.8068C24.8442 27.7351 25.4401 28.0087 25.7138 28.5385C27.8144 32.6049 31.3718 40.1018 31.8146 43.497C32.2884 47.1305 30.8977 53.7915 30.1267 56.7351C28.8395 57.0812 27.8926 58.2502 27.8926 59.639V60.666C27.8926 60.7774 27.9835 60.8677 28.0956 60.8677H33.7424C33.7772 60.8677 33.81 60.859 33.8387 60.8436L33.8609 60.8677C33.8632 60.8533 33.8655 60.839 33.8679 60.8245C33.9151 60.7876 33.9454 60.7303 33.9454 60.666V60.3785C35.0316 54.4509 39.2285 43.497 48.183 43.497C57.0154 43.497 61.0622 52.0227 62.1295 56.806C60.9597 57.2219 60.1227 58.3333 60.1227 59.639V60.666C60.1227 60.7774 60.2136 60.8677 60.3257 60.8677H65.9726C66.0049 60.8677 66.0355 60.8602 66.0626 60.8468L66.0857 60.8677C66.0862 60.856 66.0866 60.8442 66.0871 60.8325C66.1405 60.7961 66.1755 60.7351 66.1755 60.666V59.6391C66.1755 59.4813 66.1633 59.3265 66.1398 59.1753C66.3371 50.9513 65.8081 36.051 62.2494 30.8715C59.5813 26.9883 54.2767 27.3662 49.3719 27.7156C45.5007 27.9914 41.8785 28.2495 39.9982 26.3806C38.4639 24.8556 37.5924 22.8146 36.7435 20.8267C35.2341 17.2917 33.7962 13.9244 28.8308 13.9244Z" fill="#F5AF5C"/>
<path fill-rule="evenodd" clip-rule="evenodd" d="M19.0681 18.8311C19.0129 18.8346 18.9572 18.8364 18.901 18.8364H17.2967C16.6246 18.8364 16.0447 19.3226 16.0134 19.9898C15.9848 20.5975 16.0037 21.2497 16.089 21.9093C17.4896 21.4705 18.6836 19.5194 19.0681 18.8311Z" fill="#212121"/>
<path d="M28.9149 25.8772C26.2678 25.7128 26.5639 20.8093 27.3151 16.9821C27.6236 15.4101 28.7352 13.983 30.3454 13.9231C32.7234 13.8347 34.8223 15.1602 36.389 16.7218C38.0253 18.3529 37.7071 20.9575 35.9386 22.446C33.7796 24.2631 31.0575 26.0103 28.9149 25.8772Z" fill="#E77D2C"/>
<path fill-rule="evenodd" clip-rule="evenodd" d="M41.5658 25.7813C41.0366 25.2484 40.1729 25.2428 39.6368 25.7688C38.5983 26.7876 36.7423 28.3841 34.6092 29.8008C32.447 31.2367 30.149 32.3869 28.1998 32.6805C27.455 32.7926 26.9426 33.4837 27.0555 34.224C27.1683 34.9643 27.8636 35.4735 28.6084 35.3614C31.1605 34.977 33.8638 33.5569 36.1248 32.0554C38.4147 30.5345 40.4035 28.8264 41.5531 27.6986C42.0893 27.1726 42.0949 26.3142 41.5658 25.7813Z" fill="#212121"/>
<path fill-rule="evenodd" clip-rule="evenodd" d="M44.5102 26.4891C43.7713 26.6348 43.2912 27.3483 43.4378 28.0828C44.1423 31.6122 45.1635 37.7 43.4599 43.9004C43.2614 44.6227 43.6896 45.3681 44.4164 45.5654C45.1431 45.7627 45.8931 45.337 46.0915 44.6147C47.9734 37.7658 46.8299 31.1434 46.1136 27.5551C45.967 26.8206 45.2492 26.3433 44.5102 26.4891Z" fill="#212121"/>
<path fill-rule="evenodd" clip-rule="evenodd" d="M31.0434 31.9075C30.346 32.1905 30.0113 32.9819 30.296 33.6751C31.6043 36.861 36.4459 42.5966 45.4232 41.1094C46.1663 40.9863 46.6683 40.2878 46.5445 39.5492C46.4206 38.8106 45.7178 38.3117 44.9748 38.4348C37.584 39.6591 33.7868 35.0006 32.8217 32.6504C32.5371 31.9572 31.7409 31.6246 31.0434 31.9075Z" fill="#212121"/>
<path d="M22.5206 18.8371C22.5206 19.3987 22.9786 19.854 23.5436 19.854C24.1086 19.854 24.5667 19.3987 24.5667 18.8371C24.5667 18.2756 24.1086 17.8203 23.5436 17.8203C22.9786 17.8203 22.5206 18.2756 22.5206 18.8371Z" fill="black"/>
</svg>
