<svg width="63" height="57" viewBox="0 0 63 57" fill="none" xmlns="http://www.w3.org/2000/svg">
<path d="M18.1087 28.8892C17.7094 29.6189 16.067 29.3627 15.5027 29.9095C14.9383 30.4563 15.0623 32.1708 14.356 32.5229C13.6497 32.8751 12.4975 31.6805 11.7209 31.7986C10.9443 31.9167 10.0937 33.4192 9.32056 33.2842C8.54737 33.1492 8.36249 31.4729 7.66572 31.0916C6.96896 30.7103 5.43806 31.4389 4.92696 30.8798C4.41586 30.3207 5.20046 28.7682 4.88416 28.0573C4.56787 27.3463 2.93865 27.0205 2.85358 26.2284C2.76851 25.4362 4.27472 24.6522 4.43656 23.8537C4.5984 23.0552 3.49102 21.8398 3.89106 21.1088C4.2911 20.3778 5.93269 20.6352 6.49704 20.0885C7.0614 19.5417 6.93746 17.8272 7.64374 17.475C8.35002 17.1229 9.50218 18.3174 10.2788 18.1994C11.0554 18.0813 11.9052 16.5801 12.6784 16.7151C13.4516 16.8501 13.6365 18.5264 14.3333 18.9077C15.03 19.289 16.5602 18.5617 17.0733 19.1202C17.5864 19.6786 16.7998 21.2318 17.1161 21.9427C17.4324 22.6537 19.0616 22.9795 19.1467 23.7716C19.2318 24.5638 17.7256 25.3478 17.5637 26.1463C17.4019 26.9448 18.5085 28.1616 18.1092 28.8912L18.1087 28.8892Z" fill="#A2DE8E"/>
<circle cx="13.1127" cy="23.1173" r="1.01304" fill="#DBF8D1"/>
<circle cx="10.0739" cy="26.1565" r="2.02609" fill="#DBF8D1"/>
<path d="M62.9978 11.9989C62.9978 13.2305 60.6825 14.0651 60.3381 15.1765C59.9938 16.2879 61.3734 18.4268 60.7063 19.3862C60.0393 20.3456 57.6936 19.613 56.7688 20.3184C55.844 21.0238 55.8071 23.58 54.7069 23.9543C53.6066 24.3285 52.175 22.2826 50.9989 22.2826C49.8229 22.2826 48.3522 24.3172 47.2909 23.9543C46.2297 23.5914 46.1452 21.017 45.229 20.3184C44.3129 19.6198 41.9651 20.3547 41.2915 19.3862C40.6179 18.4177 42.0171 16.3288 41.6597 15.1765C41.3023 14.0243 39 13.2327 39 11.9989C39 10.765 41.3153 9.93258 41.6597 8.82119C42.0041 7.7098 40.6244 5.57094 41.2915 4.61151C41.9586 3.65208 44.3042 4.38469 45.229 3.6793C46.1539 2.97391 46.1907 0.419972 47.2909 0.0457279C48.3912 -0.328516 49.8229 1.71735 50.9989 1.71735C52.175 1.71735 53.6456 -0.314908 54.7091 0.0457279C55.7725 0.406363 55.8548 2.98298 56.771 3.68157C57.6871 4.38016 60.0349 3.64528 60.7085 4.61378C61.3821 5.58228 59.9829 7.67124 60.3403 8.82346C60.6977 9.97568 63 10.7695 63 12.0011L62.9978 11.9989Z" fill="#D8F0D0"/>
<ellipse opacity="0.5" cx="48.1034" cy="10.2851" rx="1.65517" ry="1.71429" fill="white"/>
<ellipse opacity="0.5" cx="53.0692" cy="12.8568" rx="2.48276" ry="2.57143" fill="white"/>
<path d="M47.9251 44.0712C47.1991 45.3979 44.213 44.9322 43.1869 45.9264C42.1608 46.9205 42.3861 50.0378 41.102 50.678C39.8179 51.3183 37.723 49.1464 36.311 49.3611C34.899 49.5758 33.3525 52.3076 31.9467 52.0621C30.5409 51.8167 30.2047 48.769 28.9379 48.0757C27.6711 47.3824 24.8876 48.7071 23.9583 47.6906C23.0291 46.6741 24.4556 43.8512 23.8805 42.5587C23.3054 41.2661 20.3432 40.6737 20.1886 39.2334C20.0339 37.7931 22.7724 36.3676 23.0667 34.9158C23.3609 33.464 21.3475 31.2541 22.0749 29.925C22.8022 28.5959 25.7869 29.0641 26.813 28.0699C27.8391 27.0757 27.6138 23.9585 28.8979 23.3182C30.1821 22.678 32.2769 24.8499 33.6889 24.6352C35.101 24.4205 36.6461 21.6911 38.0519 21.9366C39.4577 22.182 39.7939 25.2298 41.0607 25.923C42.3275 26.6163 45.1097 25.2941 46.0426 26.3094C46.9755 27.3248 45.5453 30.1488 46.1204 31.4413C46.6955 32.7339 49.6577 33.3263 49.8124 34.7666C49.967 36.2069 47.2285 37.6324 46.9342 39.0842C46.64 40.536 48.6521 42.7483 47.9261 44.075L47.9251 44.0712Z" fill="#95D67C"/>
<circle cx="38.8414" cy="33.5755" r="1.8419" fill="#DBF8D1"/>
<circle cx="33.3161" cy="39.1035" r="3.6838" fill="#DBF8D1"/>
</svg>
