<svg width="138" height="136" viewBox="0 0 138 136" fill="none" xmlns="http://www.w3.org/2000/svg">
<rect x="29.3145" y="38.5918" width="38.704" height="10.5556" fill="#5D84F9"/>
<path d="M24.0371 26.2778C24.0371 23.363 26.4001 21 29.3149 21H68.019C70.9338 21 73.2968 23.363 73.2968 26.2778V29.7963H24.0371V26.2778Z" fill="#BCCCFC"/>
<path d="M73.2969 33.314C73.2969 36.2288 70.9339 38.5918 68.0191 38.5918L29.315 38.5918C26.4002 38.5918 24.0372 36.2288 24.0372 33.314L24.0372 29.7955L73.2969 29.7955L73.2969 33.314Z" fill="#8FAAFB"/>
<rect x="17" y="43.8701" width="63.3339" height="72.1296" rx="8.79634" fill="#CEDAFF"/>
<path d="M39.8701 29.7969H57.4629C57.4629 32.7117 55.0999 35.0747 52.1851 35.0747H45.1479C42.2331 35.0747 39.8701 32.7117 39.8701 29.7969Z" fill="#5D84F9"/>
<rect x="17" y="59.7041" width="63.3339" height="40.463" fill="#E7EDFF"/>
<rect x="17" y="57.9443" width="63.3339" height="3.51852" fill="#5D84F9"/>
<rect x="17" y="82.5742" width="63.3339" height="22.8704" fill="#5D84F9"/>
<ellipse cx="60.9809" cy="84.3333" rx="15.8335" ry="15.8333" fill="white"/>
<path d="M53.9445 85.1673L58.2169 90.3175L68.0185 81.167" stroke="#5D84F9" stroke-width="4.39817" stroke-linecap="round" stroke-linejoin="round"/>
<rect x="22.2773" y="66.7412" width="22.8706" height="3.51852" rx="1.75926" fill="#BCCCFC"/>
<rect x="22.2773" y="73.7773" width="14.0742" height="3.51852" rx="1.75926" fill="#BCCCFC"/>
<path d="M107.449 48.4588C111.184 44.7247 117.238 44.7247 120.972 48.4588C124.706 52.193 124.706 58.2472 120.972 61.9814L114.211 68.7427L100.688 55.2201L107.449 48.4588Z" fill="#7254D9"/>
<path d="M107.403 75.5491C103.669 79.2832 97.6149 79.2833 93.8807 75.5491C90.1465 71.8149 90.1465 65.7607 93.8807 62.0265L100.688 55.2201L114.211 68.7427L107.403 75.5491Z" fill="#AF99EF"/>
<path d="M103.663 92.796C107.397 96.5302 107.397 102.584 103.663 106.319C99.9291 110.053 93.8748 110.053 90.1406 106.319L83.3793 99.5573L96.9019 86.0347L103.663 92.796Z" fill="#7254D9"/>
<path d="M76.5728 92.75C72.8386 89.0158 72.8386 82.9615 76.5728 79.2274C80.307 75.4932 86.3613 75.4932 90.0955 79.2274L96.9019 86.0347L83.3793 99.5573L76.5728 92.75Z" fill="#AF99EF"/>
</svg>
