<svg width="138" height="136" viewBox="0 0 138 136" fill="none" xmlns="http://www.w3.org/2000/svg">
<path d="M57.8647 31.4921C62.8624 22.836 75.3564 22.836 80.3541 31.4921L115.455 92.2894C120.453 100.946 114.206 111.766 104.211 111.766H34.0081C24.0128 111.766 17.7658 100.946 22.7634 92.2894L57.8647 31.4921Z" stroke="#FF6B00" stroke-width="6"/>
<path d="M65.399 55.9665C65.399 53.9172 67.0603 52.2559 69.1096 52.2559C71.1589 52.2559 72.8202 53.9172 72.8202 55.9665V77.0885C72.8202 79.1379 71.1589 80.7992 69.1096 80.7992C67.0603 80.7992 65.399 79.1379 65.399 77.0885V55.9665Z" fill="#FF6B00"/>
<path d="M74.2473 93.9289C74.2473 96.7664 71.947 99.0667 69.1095 99.0667C66.2719 99.0667 63.9717 96.7664 63.9717 93.9289C63.9717 91.0914 66.2719 88.7911 69.1095 88.7911C71.947 88.7911 74.2473 91.0914 74.2473 93.9289Z" fill="#FF6B00"/>
</svg>
