<svg width="176" height="144" viewBox="0 0 176 144" fill="none" xmlns="http://www.w3.org/2000/svg">
<path fill-rule="evenodd" clip-rule="evenodd" d="M90.4877 22.5337L31.5034 22.5337C28.3431 22.5337 25.7812 25.0956 25.7812 28.2558L25.7812 104.432C25.7812 107.592 28.3431 110.154 31.5034 110.154L90.4877 110.154C93.648 110.154 96.2099 107.592 96.2099 104.432L96.2099 28.2558C96.2099 25.0955 93.648 22.5337 90.4877 22.5337ZM31.5034 16.8115C25.1829 16.8115 20.0591 21.9353 20.0591 28.2558L20.0591 104.432C20.0591 110.752 25.1829 115.876 31.5034 115.876L90.4877 115.876C96.8082 115.876 101.932 110.752 101.932 104.432L101.932 28.2558C101.932 21.9353 96.8082 16.8115 90.4877 16.8115L31.5034 16.8115Z" fill="#FF6B00"/>
<path fill-rule="evenodd" clip-rule="evenodd" d="M56.0355 51.9736C55.6404 51.9736 55.3202 52.2939 55.3202 52.6889L55.3202 64.8318L43.175 64.8318C42.78 64.8318 42.4597 65.152 42.4597 65.547L42.4597 76.898C42.4597 77.293 42.78 77.6132 43.175 77.6132L55.3202 77.6132L55.3202 89.7606C55.3202 90.1556 55.6404 90.4758 56.0355 90.4758L67.3864 90.4758C67.7814 90.4758 68.1017 90.1556 68.1017 89.7606L68.1017 77.6132L80.2466 77.6132C80.6417 77.6132 80.9619 77.293 80.9619 76.898L80.9619 65.547C80.9619 65.152 80.6417 64.8318 80.2466 64.8318L68.1017 64.8318L68.1017 52.6889C68.1017 52.2939 67.7814 51.9736 67.3864 51.9736L56.0355 51.9736Z" fill="#FF6A00"/>
<path d="M102.734 61.4193C107.188 53.7044 117.054 51.0611 124.768 55.5153V55.5153C132.483 59.9695 135.127 69.8345 130.672 77.5495L108.538 115.887C104.084 123.602 94.2191 126.245 86.5041 121.791V121.791C78.7892 117.337 76.1459 107.472 80.6001 99.7568L102.734 61.4193Z" fill="white"/>
<path fill-rule="evenodd" clip-rule="evenodd" d="M103.583 113.026L125.717 74.6884C128.591 69.7103 126.885 63.3449 121.907 60.4708C116.929 57.5967 110.564 59.3023 107.69 64.2804L85.5556 102.618C82.6815 107.596 84.3871 113.961 89.3652 116.835C94.3433 119.71 100.709 118.004 103.583 113.026ZM124.768 55.5153C117.054 51.0611 107.188 53.7044 102.734 61.4193L80.6001 99.7568C76.1459 107.472 78.7892 117.337 86.5041 121.791C94.2191 126.245 104.084 123.602 108.538 115.887L130.672 77.5495C135.127 69.8345 132.483 59.9695 124.768 55.5153Z" fill="#FF6B00"/>
<path fill-rule="evenodd" clip-rule="evenodd" d="M116.844 98.6344L91.3888 83.9381L94.4287 78.6729L119.884 93.3692L116.844 98.6344Z" fill="#FF6B00"/>
<path fill-rule="evenodd" clip-rule="evenodd" d="M30.4739 30.578C30.4739 28.8991 31.8349 27.5381 33.5138 27.5381L88.4772 27.5381C90.1561 27.5381 91.5171 28.8991 91.5171 30.578C91.5171 32.2569 90.1561 33.6179 88.4772 33.6179L33.5138 33.6179C31.8349 33.6179 30.4739 32.2569 30.4739 30.578Z" fill="#FF6B00"/>
<path fill-rule="evenodd" clip-rule="evenodd" d="M138.188 120.144C145.397 121.648 152.461 117.022 153.964 109.812C155.467 102.602 150.841 95.5389 143.632 94.0356C136.422 92.5323 129.359 97.1583 127.855 104.368C126.352 111.578 130.978 118.641 138.188 120.144ZM137.02 125.746C147.323 127.894 157.417 121.283 159.566 110.98C161.714 100.677 155.103 90.5823 144.8 88.4339C134.496 86.2856 124.402 92.8965 122.254 103.2C120.105 113.503 126.716 123.598 137.02 125.746Z" fill="#FF6B00"/>
<path fill-rule="evenodd" clip-rule="evenodd" d="M157.077 109.835L125.914 103.337L127.082 97.7354L158.245 104.233L157.077 109.835Z" fill="#FF6B00"/>
<path fill-rule="evenodd" clip-rule="evenodd" d="M155.508 117.358L124.345 110.86L125.513 105.259L156.676 111.757L155.508 117.358Z" fill="#FF6B00"/>
<path fill-rule="evenodd" clip-rule="evenodd" d="M146.847 77.7607C149.203 78.2518 151.511 76.7404 152.002 74.3848C152.493 72.0292 150.982 69.7215 148.626 69.2303C146.27 68.7391 143.963 70.2505 143.472 72.6061C142.98 74.9617 144.492 77.2695 146.847 77.7607ZM145.679 83.3623C151.129 84.4986 156.467 81.0021 157.604 75.5528C158.74 70.1035 155.243 64.7649 149.794 63.6286C144.345 62.4924 139.006 65.9888 137.87 71.4381C136.734 76.8874 140.23 82.2261 145.679 83.3623Z" fill="#FF6B00"/>
</svg>
