<svg width="10" height="15" viewBox="0 0 10 15" fill="none" xmlns="http://www.w3.org/2000/svg">
<g clip-path="url(#clip0_503_9867)">
<path d="M4.48615 13.8716C0.702344 8.40871 0 7.84805 0 5.84035C0 3.09023 2.23857 0.86084 5 0.86084C7.76143 0.86084 10 3.09023 10 5.84035C10 7.84805 9.29766 8.40871 5.51385 13.8716C5.26555 14.2288 4.73443 14.2288 4.48615 13.8716ZM5 7.91514C6.1506 7.91514 7.08333 6.98623 7.08333 5.84035C7.08333 4.69446 6.1506 3.76555 5 3.76555C3.8494 3.76555 2.91667 4.69446 2.91667 5.84035C2.91667 6.98623 3.8494 7.91514 5 7.91514Z" fill="#5E5E5E"/>
</g>
<defs>
<clipPath id="clip0_503_9867">
<rect width="10" height="13.2787" fill="white" transform="translate(0 0.86084)"/>
</clipPath>
</defs>
</svg>
