<svg width="12" height="13" viewBox="0 0 12 13" fill="none" xmlns="http://www.w3.org/2000/svg">
<path d="M5.5 3.5H4.5V5H3V6H4.5V7.5H5.5V6H7V5H5.5V3.5Z" fill="#9E9E9E"/>
<path d="M5 1.5C2.7945 1.5 1 3.2945 1 5.5C1 7.7055 2.7945 9.5 5 9.5C5.88749 9.49982 6.7494 9.20272 7.4485 8.656L9.6465 10.854L10.3535 10.147L8.1555 7.949C8.7025 7.24983 8.99979 6.38772 9 5.5C9 3.2945 7.2055 1.5 5 1.5ZM5 8.5C3.3455 8.5 2 7.1545 2 5.5C2 3.8455 3.3455 2.5 5 2.5C6.6545 2.5 8 3.8455 8 5.5C8 7.1545 6.6545 8.5 5 8.5Z" fill="#9E9E9E"/>
</svg>
