<svg width="181" height="79" viewBox="0 0 181 79" fill="none" xmlns="http://www.w3.org/2000/svg">
<path fill-rule="evenodd" clip-rule="evenodd" d="M44.0464 25.4686C44.5338 25.9467 45.1948 26.2152 45.884 26.2152C46.2259 26.2162 46.5646 26.151 46.8808 26.0233C47.197 25.8956 47.4845 25.708 47.7266 25.4712C47.9687 25.2343 48.1607 24.9529 48.2918 24.6432C48.4229 24.3334 48.4903 24.0012 48.4903 23.6658V21.0139C49.2505 21.4991 50.0649 21.8973 50.9174 22.2007C52.1644 22.6342 53.4778 22.8548 54.8008 22.8527C56.3392 22.8564 57.8629 22.5575 59.2816 21.9736C60.6464 21.3984 61.89 20.5785 62.9485 19.556C63.9908 18.5193 64.8242 17.299 65.4053 15.959C66.0034 14.568 66.3109 13.0733 66.309 11.5635C66.3113 10.0538 66.0038 8.55895 65.4053 7.16803C64.826 5.82538 63.9895 4.60436 62.941 3.57111C61.8857 2.54489 60.6413 1.72449 59.2741 1.15355C57.8559 0.568117 56.3319 0.269165 54.7933 0.274484C53.2548 0.270761 51.7312 0.569651 50.3125 1.15355C48.9458 1.72542 47.7017 2.54571 46.6458 3.57111C45.6019 4.60659 44.7681 5.82718 44.1888 7.16803C43.5902 8.55895 43.2829 10.0538 43.2852 11.5635V23.6658C43.2852 24.342 43.559 24.9905 44.0464 25.4686ZM52.329 5.85677C53.1109 5.54175 53.948 5.37997 54.7933 5.38057C55.6362 5.37921 56.4712 5.54105 57.2503 5.85677C57.9966 6.17109 58.6756 6.62094 59.2517 7.18269C59.8233 7.75006 60.2841 8.41556 60.6109 9.14606C60.9366 9.91197 61.1043 10.7336 61.1039 11.5635C61.1053 12.3904 60.9402 13.2095 60.6184 13.9738C60.2917 14.7065 59.831 15.3745 59.2591 15.9445C58.6824 16.5054 58.0036 16.9551 57.2578 17.2704C56.4774 17.5912 55.6394 17.7557 54.7933 17.7539C53.9503 17.7553 53.1154 17.5934 52.3363 17.2777C51.5934 16.9572 50.9155 16.5081 50.3349 15.9518C49.763 15.3818 49.3023 14.7139 48.9757 13.9811C48.6486 13.2156 48.4811 12.3936 48.4829 11.5635C48.4823 10.7391 48.6473 9.92265 48.9684 9.16072C49.295 8.42794 49.7555 7.75999 50.3274 7.19003C50.9069 6.6305 51.5851 6.17879 52.329 5.85677Z" fill="#FF6A00"/>
<path fill-rule="evenodd" clip-rule="evenodd" d="M75.467 21.9736C76.8854 22.5584 78.4092 22.8574 79.9478 22.8526C82.1732 22.8734 84.3544 22.2435 86.2134 21.0432C87.2624 20.3784 88.1954 19.5523 88.9765 18.5964C89.2244 18.2913 89.3983 17.9348 89.485 17.554C89.5717 17.1733 89.569 16.7782 89.477 16.3986C89.3868 16.0218 89.2099 15.6702 88.9601 15.3706C88.7103 15.071 88.3941 14.8313 88.0355 14.6697C87.7024 14.5129 87.3372 14.4326 86.9677 14.4353C86.5657 14.4377 86.1694 14.5292 85.8086 14.703C85.4478 14.8768 85.1318 15.1284 84.8841 15.4389C84.4619 15.9546 83.9576 16.3999 83.3905 16.7576C82.3666 17.4113 81.1694 17.7552 79.9478 17.7466C78.4771 17.7671 77.0488 17.2619 75.9299 16.3253C74.9863 15.5801 74.2919 14.5749 73.936 13.439H89.5142C89.7678 13.4409 90.0194 13.3937 90.2544 13.3C90.4894 13.2063 90.7032 13.0681 90.8836 12.8932C91.064 12.7183 91.2075 12.51 91.3057 12.2806C91.4039 12.0512 91.455 11.8051 91.4559 11.5563C91.4573 10.6051 91.3369 9.65746 91.0975 8.73575C90.7782 7.53797 90.261 6.39961 89.5665 5.36589C88.8813 4.33997 88.0315 3.42962 87.0499 2.67003C86.0652 1.91024 84.9601 1.31381 83.7788 0.90448C82.5465 0.486303 81.2517 0.273366 79.9478 0.274469C78.4092 0.269751 76.8854 0.568679 75.467 1.15353C74.1003 1.72541 72.8561 2.5457 71.8001 3.57109C70.754 4.60628 69.9176 5.82682 69.3356 7.16801C68.7394 8.55939 68.4347 10.0542 68.4395 11.5635C68.4351 13.0728 68.7398 14.5675 69.3356 15.959C69.9194 17.2993 70.7555 18.5196 71.8001 19.556C72.8586 20.5784 74.1022 21.3983 75.467 21.9736ZM83.4503 6.41352C84.2231 6.90962 84.8716 7.5708 85.3472 8.34755H74.5558C75.0329 7.57445 75.6781 6.91409 76.4452 6.41352C77.4814 5.73395 78.7014 5.37417 79.9478 5.38055C81.1946 5.37191 82.415 5.73189 83.4503 6.41352Z" fill="#FF6A00"/>
<path fill-rule="evenodd" clip-rule="evenodd" d="M101.706 22.5824C102.198 22.862 102.758 23.0072 103.327 23.003C103.907 23.0013 104.475 22.8466 104.973 22.5553C105.471 22.2641 105.88 21.8469 106.157 21.3474L114.372 4.59318C114.714 4.01511 114.807 3.32769 114.632 2.68204C114.457 2.03639 114.028 1.48528 113.439 1.14998C113.045 0.930621 112.6 0.814589 112.147 0.813021C111.69 0.818483 111.243 0.941004 110.85 1.16849C110.457 1.39598 110.132 1.72052 109.906 2.10971L103.349 15.8603L96.7553 2.07304C96.5295 1.68632 96.203 1.36529 95.8094 1.14265C95.4158 0.920005 94.9692 0.803732 94.5149 0.805688C94.061 0.80781 93.6154 0.926499 93.2228 1.14998C92.6365 1.48011 92.2071 2.02422 92.028 2.66371C91.8489 3.30319 91.9349 3.98623 92.267 4.56384L100.526 21.4133C100.806 21.8992 101.214 22.3029 101.706 22.5824Z" fill="#FF6A00"/>
<path fill-rule="evenodd" clip-rule="evenodd" d="M121.885 21.9736C123.304 22.559 124.828 22.858 126.366 22.8527C127.905 22.8564 129.428 22.5575 130.847 21.9736C132.212 21.3983 133.455 20.5785 134.514 19.556C135.556 18.5193 136.39 17.299 136.971 15.959C137.569 14.568 137.876 13.0733 137.874 11.5635C137.877 10.0538 137.569 8.55895 136.971 7.16803C136.391 5.82538 135.555 4.60435 134.506 3.57111C133.453 2.54251 132.208 1.72179 130.84 1.15355C129.421 0.568117 127.897 0.269165 126.359 0.274484C124.82 0.270761 123.297 0.569651 121.878 1.15355C120.513 1.7288 119.27 2.54868 118.211 3.57111C117.167 4.60659 116.334 5.82718 115.754 7.16803C115.156 8.55895 114.848 10.0538 114.851 11.5635C114.849 13.0733 115.156 14.568 115.754 15.959C116.335 17.3007 117.172 18.5215 118.219 19.556C119.274 20.5823 120.518 21.4027 121.885 21.9736ZM123.902 5.85676C124.683 5.54028 125.521 5.37844 126.366 5.38057C127.209 5.37921 128.044 5.54105 128.823 5.85676C129.57 6.17802 130.25 6.62977 130.832 7.19003C131.405 7.75178 131.859 8.41901 132.169 9.15339C132.503 9.91456 132.676 10.7346 132.677 11.5635C132.676 12.3948 132.503 13.2173 132.169 13.9811C131.854 14.7126 131.4 15.3788 130.832 15.9445C130.251 16.5007 129.574 16.9499 128.831 17.2704C128.05 17.5912 127.212 17.7557 126.366 17.7539C125.523 17.7566 124.688 17.5947 123.909 17.2777C123.163 16.9626 122.484 16.5129 121.908 15.9518C121.334 15.3831 120.873 14.7148 120.549 13.9811C120.222 13.2156 120.054 12.3936 120.056 11.5635C120.056 10.7368 120.221 9.91803 120.541 9.15339C120.864 8.42082 121.325 7.75466 121.9 7.19003C122.477 6.62753 123.156 6.17542 123.902 5.85676Z" fill="#FF6A00"/>
<path d="M27.0177 47.6278C25.6022 46.2294 23.958 45.1253 22.1254 44.3439C20.2327 43.5483 18.2229 43.1455 16.156 43.1455C14.089 43.1455 12.0778 43.5483 10.1809 44.3454C8.3539 45.1238 6.70978 46.228 5.28707 47.6336C3.88864 49.0491 2.78447 50.6946 2.00312 52.5244C1.20749 54.4185 0.804688 56.4268 0.804688 58.4952V74.949C0.804688 76.8602 2.36025 78.4157 4.27148 78.4157C6.18271 78.4157 7.7397 76.8602 7.7397 74.949V71.3422C8.75246 72.0064 9.83519 72.5478 10.9765 72.9592C12.6306 73.5477 14.3733 73.8462 16.156 73.8462C18.2243 73.8462 20.2327 73.4434 22.1297 72.6464C23.958 71.8679 25.6022 70.7637 27.0234 69.3582C28.4219 67.9426 29.5261 66.2985 30.3074 64.4673C31.103 62.5747 31.5058 60.5649 31.5058 58.4966C31.5058 56.4283 31.103 54.4185 30.306 52.5216C29.526 50.6946 28.4219 49.0491 27.0177 47.6278ZM23.9237 61.7705C23.4895 62.7661 22.8767 63.6688 22.1111 64.4502C21.3412 65.2187 20.4413 65.8286 19.4442 66.2571C18.3943 66.6913 17.2873 66.9113 16.156 66.9113C15.0247 66.9113 13.9176 66.6913 12.8792 66.2628C11.8836 65.8286 10.9808 65.2172 10.2037 64.4545C9.43096 63.666 8.81956 62.7632 8.39104 61.7833C7.95822 60.7349 7.73827 59.6279 7.73827 58.4952C7.73827 57.3624 7.95825 56.2554 8.38535 55.2198C8.81817 54.2271 9.42952 53.3243 10.1937 52.5458C10.9794 51.7731 11.8835 51.1617 12.8649 50.7332C13.9148 50.299 15.0218 50.079 16.1545 50.079C17.2873 50.079 18.3929 50.299 19.4328 50.7289C20.4398 51.1617 21.3397 51.7717 22.1054 52.5358C22.8767 53.3215 23.4881 54.2242 23.9181 55.207C24.3523 56.2568 24.5708 57.3639 24.5708 58.4952C24.5708 59.6265 24.3508 60.7349 23.9237 61.7705Z" fill="black"/>
<path d="M128.468 57.0603C130.72 56.4613 131.756 53.8605 130.525 51.8873C130.431 51.7372 130.335 51.5895 130.237 51.4431C129.315 50.0569 128.175 48.8304 126.849 47.7991C124.052 45.6222 120.829 44.5195 117.273 44.5195C115.172 44.5195 113.132 44.928 111.204 45.7354C109.347 46.5237 107.677 47.6431 106.233 49.065C104.812 50.4987 103.69 52.1635 102.897 54.0177C102.088 55.9349 101.679 57.9701 101.679 60.0648V71.1884C101.679 73.1187 103.248 74.6835 105.184 74.6835C107.121 74.6835 108.69 73.1187 108.69 71.1884V60.0648C108.69 58.9156 108.913 57.7938 109.353 56.7292C109.796 55.7206 110.418 54.8048 111.2 54.0117C111.983 53.2305 112.902 52.6113 113.922 52.1731C114.976 51.7336 116.103 51.5098 117.271 51.5098C119.222 51.5098 120.989 52.1147 122.527 53.3067C123.364 53.9546 124.049 54.7072 124.576 55.5574C125.372 56.84 126.892 57.4794 128.354 57.0912L128.467 57.0615L128.468 57.0603Z" fill="black"/>
<path d="M97.6301 53.0296C96.8358 51.1742 95.7118 49.5035 94.2808 48.0602C92.8391 46.6407 91.1645 45.5189 89.3 44.7258C87.3722 43.9184 85.3249 43.5088 83.2191 43.5088C81.1133 43.5088 79.0672 43.9172 77.1334 44.727C75.2712 45.5177 73.5954 46.6407 72.1513 48.0661C70.7252 49.5035 69.6012 51.1742 68.8069 53.0319C67.997 54.9563 67.585 56.9962 67.585 59.0945C67.585 61.1928 67.997 63.2339 68.8081 65.1607C69.6012 67.0172 70.7264 68.6867 72.1573 70.13C73.5966 71.5519 75.2712 72.6725 77.1381 73.4644C79.066 74.2718 81.1121 74.6814 83.2191 74.6814C85.3261 74.6814 87.3734 74.273 89.3048 73.4632C91.1645 72.6725 92.8391 71.5519 94.2868 70.1241C95.7106 68.6867 96.8358 67.0172 97.6313 65.1583C98.4411 63.2351 98.8532 61.194 98.8532 59.0957C98.8532 56.9974 98.4411 54.9563 97.6313 53.0284H97.6289L97.6301 53.0296ZM91.1024 62.4312C90.6772 63.4363 90.0633 64.3497 89.2881 65.1392C88.4878 65.924 87.5669 66.5444 86.5683 66.9803C85.4981 67.4209 84.3717 67.6447 83.2191 67.6447C82.0664 67.6447 80.9269 67.4209 79.8806 66.985C78.8534 66.5444 77.936 65.9264 77.1585 65.1499C76.3713 64.3521 75.7478 63.4339 75.3118 62.4372C74.8699 61.3726 74.6465 60.2496 74.6465 59.0981C74.6465 57.9465 74.8699 56.8236 75.3083 55.7685C75.7502 54.7456 76.3701 53.8322 77.1537 53.0522C77.936 52.2722 78.8534 51.6529 79.8722 51.2147C80.9245 50.7753 82.0497 50.5514 83.2167 50.5514C84.3837 50.5514 85.4969 50.7753 86.5528 51.21C87.5657 51.6506 88.4866 52.2722 89.2809 53.0522C90.0621 53.8322 90.6748 54.7432 91.1024 55.7673C91.5575 56.8319 91.7892 57.9525 91.7892 59.0993C91.7892 60.2461 91.5575 61.3666 91.1024 62.4324V62.4312Z" fill="black"/>
<path d="M98.8516 71.1562V59.9623C98.8516 58.0188 97.2713 56.4434 95.322 56.4434C93.3726 56.4434 91.7924 58.0188 91.7924 59.9623V71.1562C91.7924 73.0996 93.3726 74.6751 95.322 74.6751C97.2713 74.6751 98.8516 73.0996 98.8516 71.1562Z" fill="black"/>
<path d="M156.74 74.3662C154.817 74.3662 153.259 72.8075 153.259 70.8847L153.259 57.3273C153.259 53.728 150.33 50.7995 146.729 50.7995C143.129 50.7995 140.201 53.728 140.201 57.3273L140.201 70.8847C140.201 72.8075 138.641 74.3662 136.719 74.3662C134.798 74.3662 133.237 72.8075 133.237 70.8847L133.237 57.3273C133.237 49.8883 139.29 43.8353 146.728 43.8353C154.166 43.8353 160.221 49.8871 160.221 57.3273L160.221 70.8847C160.221 72.8075 158.661 74.3662 156.738 74.3662L156.74 74.3662Z" fill="black"/>
<path d="M176.875 74.3662C174.952 74.3662 173.392 72.8075 173.392 70.8847L173.392 57.3273C173.392 53.728 170.464 50.7995 166.864 50.7995C163.265 50.7995 160.336 53.728 160.336 57.3273L160.336 70.8847C160.336 72.8075 158.776 74.3662 156.853 74.3662C154.93 74.3662 153.372 72.8075 153.372 70.8847L153.372 57.3273C153.372 49.8883 159.425 43.8353 166.863 43.8353C174.301 43.8353 180.354 49.8871 180.354 57.3273L180.354 70.8847C180.354 72.8075 178.796 74.3662 176.873 74.3662L176.875 74.3662Z" fill="black"/>
<path d="M63.6323 52.2169C62.8516 50.3853 61.7442 48.7376 60.3354 47.3125C58.9169 45.9103 57.2685 44.8046 55.4313 44.0219C53.5323 43.2246 51.5172 42.8206 49.4451 42.8206C47.6599 42.8206 45.9122 43.1194 44.2493 43.711C43.108 44.1211 42.0223 44.6643 41.0057 45.3309V37.2499C41.0057 35.3312 39.4492 33.7754 37.5297 33.7754C35.6102 33.7754 34.0537 35.3312 34.0537 37.2499V69.1986C34.0537 71.1173 35.6102 72.6731 37.5297 72.6731C39.4492 72.6731 41.0057 71.1173 41.0057 69.1986V58.2053C41.0057 57.0718 41.2247 55.9648 41.658 54.916C42.0925 53.9215 42.7049 53.019 43.4735 52.2363C44.2445 51.4657 45.1473 50.8547 46.147 50.424C47.2 49.9897 48.3086 49.7683 49.4439 49.7683C50.5792 49.7683 51.6842 49.9873 52.7347 50.4204C53.7284 50.8547 54.6301 51.4657 55.4155 52.2351C56.1853 53.0202 56.7965 53.9215 57.231 54.9147C57.6643 55.9648 57.8833 57.0718 57.8833 58.2041V69.1974C57.8833 71.1161 59.4398 72.6719 61.3593 72.6719C63.2789 72.6719 64.8353 71.1161 64.8353 69.1974V58.2041C64.8353 56.1318 64.4311 54.1187 63.6311 52.2169H63.6323Z" fill="black"/>
</svg>
