<svg width="24" height="24" viewBox="0 0 24 24" fill="none" xmlns="http://www.w3.org/2000/svg">
<path d="M11.9914 1C5.35332 1 0 5.28261 0 10.4818C0 13.8565 2.22698 16.8115 5.56745 18.4989L4.43683 22.7216C4.41551 22.7849 4.41223 22.8528 4.42736 22.9179C4.44249 22.9829 4.47543 23.0425 4.52248 23.0899C4.5911 23.1504 4.67939 23.1839 4.77088 23.1841C4.84674 23.178 4.91871 23.148 4.97644 23.0984L9.84154 19.818C10.5597 19.9171 11.2836 19.9685 12.0086 19.9721C18.6381 19.9721 24 15.6895 24 10.4818C24 5.27404 18.621 1 11.9914 1Z" fill="#393939"/>
<path d="M4.19663 8.98243H2.88614C2.72371 8.98714 2.56329 8.94554 2.42361 8.8625C2.3616 8.82365 2.30828 8.77237 2.26701 8.71194C2.22574 8.65151 2.19741 8.5832 2.18379 8.51129C2.17962 8.46571 2.17962 8.41991 2.18379 8.37432C2.17971 8.28903 2.19627 8.20396 2.23206 8.12642C2.26784 8.04888 2.3218 7.98115 2.38935 7.92891C2.53868 7.82077 2.71891 7.76364 2.90327 7.76612H6.85188C7.0156 7.76036 7.17711 7.80525 7.31441 7.89462C7.37788 7.93175 7.43232 7.98257 7.4738 8.0433C7.51527 8.10403 7.54274 8.17319 7.55423 8.24582C7.55841 8.28855 7.55841 8.3316 7.55423 8.37432C7.55827 8.46085 7.54175 8.54708 7.50602 8.62599C7.47029 8.7049 7.41636 8.77416 7.34867 8.82821C7.20298 8.93622 7.02448 8.99072 6.84331 8.98243H5.57565V13.4878C5.5808 13.5838 5.56594 13.6797 5.53203 13.7697C5.49812 13.8596 5.44588 13.9416 5.37864 14.0103C5.31417 14.0759 5.23666 14.1274 5.1511 14.1613C5.06554 14.1953 4.97382 14.2109 4.88185 14.2072C4.72099 14.2118 4.56355 14.1604 4.43646 14.0617C4.31547 13.9653 4.23336 13.8283 4.2052 13.6762C4.19674 13.6137 4.19674 13.5503 4.2052 13.4878L4.19663 8.98243Z" fill="white"/>
<path d="M7.93282 8.1005C7.97049 7.95955 8.05896 7.8375 8.18121 7.75787C8.31147 7.68404 8.4599 7.64842 8.60948 7.65509H8.93496C9.09367 7.6494 9.25085 7.68796 9.38892 7.76644C9.53523 7.86483 9.63919 8.01464 9.68014 8.18613L11.3932 13.0256C11.4376 13.1518 11.4748 13.2806 11.5046 13.4111C11.5075 13.4653 11.5075 13.5195 11.5046 13.5737C11.5074 13.6572 11.4921 13.7403 11.4595 13.8173C11.427 13.8942 11.378 13.9631 11.3161 14.0192C11.2561 14.0807 11.1841 14.1291 11.1045 14.1616C11.0249 14.194 10.9395 14.2096 10.8536 14.2076C10.7215 14.2207 10.5888 14.189 10.4769 14.1175C10.365 14.0461 10.2805 13.939 10.2369 13.8136L9.87714 12.7601H7.62447L7.26472 13.8136C7.22218 13.9415 7.1366 14.0506 7.02258 14.1225C6.90857 14.1943 6.77317 14.2244 6.63945 14.2076C6.49461 14.2114 6.35274 14.1661 6.23688 14.0791C6.124 13.9893 6.04784 13.8614 6.02275 13.7194C6.01821 13.671 6.01821 13.6222 6.02275 13.5737C6.00804 13.4887 6.00804 13.4019 6.02275 13.3169C6.02275 13.2226 6.08271 13.1198 6.11697 13.0256L7.93282 8.1005ZM8.78935 9.22261L7.97564 11.7922H9.59448L8.78935 9.22261Z" fill="white"/>
<path d="M11.7 8.37457C11.6913 8.18235 11.759 7.99452 11.8884 7.8521C11.9542 7.78575 12.0331 7.7339 12.1202 7.69997C12.2072 7.66604 12.3004 7.65069 12.3938 7.65501C12.5542 7.65314 12.7108 7.70436 12.8391 7.80066C12.9581 7.90113 13.0371 8.04089 13.0618 8.19463C13.0703 8.25429 13.0703 8.31491 13.0618 8.37457V12.8799H15.4173C15.5806 12.8778 15.7411 12.9223 15.8798 13.0083C15.9422 13.0468 15.9958 13.098 16.0371 13.1585C16.0784 13.219 16.1065 13.2875 16.1197 13.3595C16.1197 13.3595 16.1197 13.4452 16.1197 13.488C16.1237 13.5733 16.1072 13.6583 16.0714 13.7358C16.0356 13.8134 15.9816 13.8812 15.9141 13.9334C15.7648 14.0416 15.5845 14.0986 15.4002 14.0961H12.5051C12.3207 14.108 12.1374 14.06 11.9826 13.9592C11.8441 13.8556 11.7519 13.7018 11.7257 13.5309C11.7194 13.4368 11.7194 13.3423 11.7257 13.2482L11.7 8.37457Z" fill="white"/>
<path d="M16.2745 8.37396C16.2694 8.1823 16.3367 7.99576 16.463 7.85149C16.5913 7.73484 16.756 7.66596 16.9292 7.6566C17.1024 7.64724 17.2735 7.69792 17.4137 7.80005C17.5353 7.89964 17.6173 8.03933 17.645 8.19402C17.6492 8.2539 17.6492 8.31408 17.645 8.37396V10.4724L19.812 7.97131C19.8955 7.88599 19.9842 7.80597 20.0775 7.73156C20.1655 7.67918 20.2664 7.6524 20.3688 7.6544C20.5185 7.65358 20.6649 7.69842 20.7885 7.7829C20.8467 7.82212 20.8964 7.87272 20.9347 7.93158C20.9729 7.99045 20.999 8.05639 21.0111 8.12554C21.0146 8.14249 21.0146 8.16002 21.0111 8.17698C21.007 8.19675 21.007 8.21712 21.0111 8.23689C21.0109 8.32702 20.9872 8.41558 20.9426 8.49389C20.8972 8.57681 20.8426 8.65429 20.7799 8.72507L19.358 10.284L21.0711 12.9392V13.0249C21.16 13.1476 21.2294 13.2835 21.2767 13.4275V13.4703C21.2866 13.5695 21.2723 13.6697 21.235 13.7622C21.1977 13.8547 21.1385 13.9367 21.0625 14.0013C20.9197 14.1093 20.7448 14.1666 20.5658 14.1641C20.4468 14.169 20.3286 14.1424 20.2231 14.087C20.1091 14.0105 20.0151 13.9077 19.9491 13.7872L18.3559 11.2176L17.5936 12.0142V13.4446C17.5987 13.6362 17.5314 13.8228 17.4052 13.967C17.3375 14.0332 17.257 14.0849 17.1686 14.1187C17.0802 14.1526 16.9858 14.1681 16.8912 14.1641C16.7332 14.1674 16.5789 14.1159 16.4544 14.0185C16.3334 13.922 16.2513 13.7852 16.2231 13.6331C16.2147 13.5706 16.2147 13.5071 16.2231 13.4446L16.2745 8.37396Z" fill="white"/>
</svg>
