<svg width="176" height="106" viewBox="0 0 176 106" fill="none" xmlns="http://www.w3.org/2000/svg">
<path d="M88.0282 3.42664C92.597 -1.14221 100.005 -1.14221 104.573 3.42664C109.142 7.99549 109.142 15.4031 104.573 19.9719L96.3008 28.2446L79.7556 11.6993L88.0282 3.42664Z" fill="#06C755"/>
<path d="M87.9718 36.5724C83.403 41.1412 75.9955 41.1412 71.4266 36.5724C66.8578 32.0035 66.8578 24.596 71.4266 20.0271L79.7556 11.6993L96.3008 28.2446L87.9718 36.5724Z" fill="#D8F0D0"/>
<path d="M28.1565 96.5451H5.84337C3.44962 96.5451 2.12451 95.1773 2.12451 93.1682C2.12451 91.1592 3.44962 89.7913 5.84337 89.7913H31.4052C36.7484 89.7913 37.7315 91.2447 37.7315 96.3741V100.862C37.7315 103.223 35.8177 105.137 33.457 105.137C31.0962 105.137 29.1824 103.223 29.1824 100.862V97.571C29.1824 96.9298 28.8404 96.5451 28.1565 96.5451ZM33.0295 88.2098C30.7159 88.2098 28.8404 86.3343 28.8404 84.0207V69.2308C28.8404 66.4524 30.764 64.999 33.0295 64.999C35.1668 64.999 37.0903 66.4524 37.2186 69.0171H38.5437C41.1084 69.0171 41.7496 70.7269 41.7496 72.394C41.7496 74.061 41.0657 75.7281 38.5437 75.7281H37.2186V78.1219H38.5437C41.1084 78.1219 41.7496 79.8317 41.7496 81.4987C41.7496 83.1658 41.0657 84.8329 38.5437 84.8329H37.2186C37.2186 86.6979 35.7067 88.2098 33.8417 88.2098H33.0295Z" fill="#06C755"/>
<path d="M79.6648 72.9497H69.1494C69.064 73.6763 68.9357 74.403 68.7647 75.0442H69.1922C74.8859 74.9407 80.6632 77.4836 82.9485 83.1227C83.9063 85.4864 81.79 87.6968 79.2396 87.6968C77.0874 87.6968 75.3749 86.0044 74.0119 84.3388C72.2847 82.228 69.3536 81.1956 65.9863 81.285C65.7298 81.285 65.4306 81.3278 65.0886 81.3705C61.2843 85.2603 55.4709 87.3549 50.2559 87.6968C47.9049 87.8678 45.9814 86.5854 45.7249 84.5764C45.4684 82.6956 46.5371 80.9431 48.6316 80.6866C54.5305 80.0027 59.4462 77.5662 60.3011 72.9497H50.085C47.5202 72.9497 46.4943 71.1971 46.4943 69.4445C46.4943 67.7347 47.4775 65.9394 50.085 65.9394H79.6648C82.2723 65.9394 83.2555 67.7347 83.2555 69.4445C83.2555 71.1971 82.2296 72.9497 79.6648 72.9497ZM81.2892 96.2032H69.2349V100.991C69.2349 103.399 67.2829 105.351 64.8749 105.351C62.4669 105.351 60.5148 103.399 60.5148 100.991V96.2032H48.4606C45.8959 96.2032 44.87 94.4933 44.87 92.7408C44.87 91.031 45.8531 89.2357 48.4606 89.2357H81.2892C83.8966 89.2357 84.8798 91.031 84.8798 92.7408C84.8798 94.4933 83.8539 96.2032 81.2892 96.2032Z" fill="#06C755"/>
<path d="M90.4367 96.5024C94.925 92.4843 96.0791 87.1411 96.0791 74.6167V70.2995C96.0791 67.5637 97.8317 66.2814 100.054 66.2814C102.234 66.2814 104.073 67.692 104.073 70.2995V74.574C104.073 77.9936 103.902 81.114 103.56 83.9352C108.269 86.176 111.055 90.4412 111.138 99.1894C111.157 101.161 109.503 102.7 107.531 102.7C105.271 102.7 103.583 100.703 103.556 98.4437C103.523 95.6689 102.95 93.6243 101.892 92.1851C100.396 97.1436 98.1736 100.478 95.5662 102.273C93.9418 103.384 91.1634 103.812 89.6673 102.017C88.3422 100.435 88.7269 97.9985 90.4367 96.5024ZM116.426 105.137C114.396 105.137 112.75 103.491 112.75 101.461V84.3199H109.245C106.68 84.3199 105.654 82.3964 105.654 80.6438C105.654 78.934 106.637 76.9677 109.245 76.9677H112.75V68.6324C112.75 66.2386 114.417 64.999 116.383 64.999C118.307 64.999 120.102 66.2814 120.102 68.6324V101.461C120.102 103.491 118.456 105.137 116.426 105.137ZM125.915 105.137C123.814 105.137 122.111 103.434 122.111 101.333V68.6324C122.111 66.2386 123.949 64.999 125.915 64.999C127.839 64.999 129.72 66.2814 129.72 68.6324V101.333C129.72 103.434 128.017 105.137 125.915 105.137Z" fill="#06C755"/>
<path d="M136.687 77.5662V77.0532C136.687 71.1971 140.62 66.0677 147.801 66.0677H163.19C170.371 66.0677 174.303 71.1971 174.303 77.0532V77.5662C174.303 83.4223 170.371 88.509 163.19 88.509H147.801C140.62 88.509 136.687 83.4223 136.687 77.5662ZM139.081 97.4428H143.227V93.5529C143.227 90.7745 145.194 89.9196 147.459 89.9196C149.682 89.9196 151.691 90.8172 151.691 93.5529V97.4428H159.3V93.5529C159.3 90.7745 161.266 89.9196 163.531 89.9196C165.754 89.9196 167.763 90.8172 167.763 93.5529V97.4428H171.91C174.517 97.4428 175.5 99.1526 175.5 100.862C175.5 102.615 174.474 104.282 171.91 104.282H139.081C136.516 104.282 135.49 102.615 135.49 100.862C135.49 99.1526 136.474 97.4428 139.081 97.4428ZM165.412 77.6517V76.9677C165.412 74.7022 163.66 73.0352 160.839 73.0352H150.152C147.331 73.0352 145.578 74.7022 145.578 76.9677V77.6517C145.578 79.9172 147.331 81.5842 150.152 81.5842H160.839C163.66 81.5842 165.412 79.9172 165.412 77.6517Z" fill="#06C755"/>
<path d="M10.572 65.6689C4.505 66.1774 0.500244 69.1919 0.500244 75.5085V77.6459C0.500244 83.9625 4.505 86.977 10.572 87.4854V65.6689Z" fill="#06C755"/>
<path d="M14.8792 87.4453C20.7072 86.833 24.5254 83.8136 24.5254 77.6459V75.5085C24.5254 69.3407 20.7072 66.3213 14.8792 65.7091V87.4453Z" fill="#06C755"/>
</svg>
