<svg width="24" height="24" viewBox="0 0 24 24" fill="none" xmlns="http://www.w3.org/2000/svg">
<path d="M23.0003 11.9315C23.0003 11.0789 22.9235 10.263 22.7809 9.47852H11.7451V13.9732L18.1009 13.9746C17.8431 15.4701 17.0135 16.7449 15.7423 17.5948V20.511H19.5256C21.7347 18.4802 23.0003 15.4783 23.0003 11.9315Z" fill="#4285F4"/>
<path d="M15.7431 17.5944C14.69 18.2999 13.3338 18.7126 11.7473 18.7126C8.68257 18.7126 6.08268 16.6614 5.1516 13.8965H1.24902V16.9039C3.18249 20.7148 7.15637 23.3299 11.7473 23.3299C14.9204 23.3299 17.5861 22.2934 19.5264 20.5091L15.7431 17.5944Z" fill="#34A853"/>
<path d="M4.78429 11.6655C4.78429 10.8892 4.91456 10.1387 5.15178 9.43314V6.42578H1.24921C0.449768 8.00165 0 9.78046 0 11.6655C0 13.5506 0.451139 15.3294 1.24921 16.9052L5.15178 13.8979C4.91456 13.1923 4.78429 12.4419 4.78429 11.6655Z" fill="#FABB05"/>
<path d="M11.7473 4.61728C13.4792 4.61728 15.0301 5.20976 16.2546 6.36749L19.6073 3.04005C17.571 1.15636 14.9163 0 11.7473 0C7.15774 0 3.18249 2.6151 1.24902 6.42605L5.1516 9.43342C6.08268 6.6685 8.68257 4.61728 11.7473 4.61728Z" fill="#E94235"/>
</svg>
