<svg width="24" height="24" viewBox="0 0 24 24" fill="none" xmlns="http://www.w3.org/2000/svg">
<path d="M16.1763 5.73633C14.0303 5.73633 13.1234 6.76032 11.629 6.76032C10.0967 6.76032 8.92793 5.74378 7.06834 5.74378C5.24814 5.74378 3.30713 6.85506 2.0745 8.74817C0.343712 11.4178 0.637498 16.4457 3.44071 20.729C4.44342 22.2624 5.78249 23.982 7.53883 24.0006H7.57076C9.09717 24.0006 9.55062 23.0011 11.6513 22.9894H11.6832C13.7525 22.9894 14.1677 23.9947 15.6877 23.9947H15.7196C17.4759 23.9761 18.8869 22.0708 19.8896 20.5433C20.6113 19.4448 20.8795 18.8934 21.433 17.6507C17.378 16.1115 16.7266 10.3629 20.7369 8.159C19.5128 6.6262 17.7926 5.73846 16.1709 5.73846L16.1763 5.73633Z" fill="#393939"/>
<path d="M15.704 0C14.4267 0.0867522 12.9364 0.899988 12.0636 1.96177C11.2716 2.92403 10.6202 4.35145 10.8757 5.73576H10.9779C12.3382 5.73576 13.7305 4.91667 14.5437 3.86713C15.3272 2.86815 15.9211 1.45243 15.704 0Z" fill="#393939"/>
</svg>
