<svg width="16" height="14" viewBox="0 0 16 14" fill="none" xmlns="http://www.w3.org/2000/svg">
<path d="M11.6002 0C10.2082 0 8.87224 0.617984 8.00024 1.59455C7.12824 0.617984 5.79224 0 4.40024 0C1.93624 0 0.000244141 1.84632 0.000244141 4.19619C0.000244141 7.08011 2.72024 9.42997 6.84024 13.0005L8.00024 14L9.16024 12.9929C13.2802 9.42997 16.0002 7.08011 16.0002 4.19619C16.0002 1.84632 14.0642 0 11.6002 0ZM8.08024 11.8638L8.00024 11.9401L7.92024 11.8638C4.11224 8.57548 1.60024 6.40109 1.60024 4.19619C1.60024 2.6703 2.80024 1.52589 4.40024 1.52589C5.63224 1.52589 6.83224 2.2812 7.25624 3.32643H8.75224C9.16824 2.2812 10.3682 1.52589 11.6002 1.52589C13.2002 1.52589 14.4002 2.6703 14.4002 4.19619C14.4002 6.40109 11.8882 8.57548 8.08024 11.8638Z" fill="#A6A6A6"/>
</svg>
