<svg width="35" height="36" viewBox="0 0 35 36" fill="none" xmlns="http://www.w3.org/2000/svg">
<rect x="2.13354" y="4.63281" width="31.7333" height="28.3333" rx="3" fill="url(#paint0_linear_1939_19272)"/>
<rect x="1" y="9.16699" width="34" height="4.53333" rx="1" fill="url(#paint1_linear_1939_19272)"/>
<path d="M6.66675 19.0996C6.66675 17.995 7.56218 17.0996 8.66675 17.0996H14.8667C15.9713 17.0996 16.8667 17.995 16.8667 19.0996V32.9663H6.66675V19.0996Z" fill="#8FAAFB"/>
<rect x="19" y="17" width="10.1244" height="10.1244" rx="2" fill="#8FAAFB"/>
<path d="M24.0163 19.4819C24.6587 18.8394 25.7003 18.8394 26.3428 19.4819C26.9853 20.1243 26.9853 21.166 26.3428 21.8085L25.1795 22.9718L22.853 20.6452L24.0163 19.4819Z" fill="url(#paint2_linear_1939_19272)"/>
<path d="M24.0083 24.1428C23.3659 24.7853 22.3242 24.7853 21.6818 24.1428C21.0393 23.5004 21.0393 22.4587 21.6818 21.8162L22.853 20.6452L25.1795 22.9718L24.0083 24.1428Z" fill="#FAD87D"/>
<circle cx="18.5295" cy="8.56222" r="5.56222" fill="white" stroke="url(#paint3_linear_1939_19272)"/>
<path fill-rule="evenodd" clip-rule="evenodd" d="M18.2201 5.7666C17.944 5.7666 17.7201 5.99046 17.7201 6.2666V7.66942L16.3179 7.66942C16.0417 7.66942 15.8179 7.89327 15.8179 8.16942L15.8179 8.98917C15.8179 9.26531 16.0417 9.48917 16.3179 9.48917H17.7201V10.8913C17.7201 11.1674 17.944 11.3913 18.2201 11.3913H19.0399C19.316 11.3913 19.5399 11.1674 19.5399 10.8913V9.48917H20.9426C21.2187 9.48917 21.4426 9.26531 21.4426 8.98917V8.16942C21.4426 7.89327 21.2187 7.66942 20.9426 7.66942L19.5399 7.66942V6.2666C19.5399 5.99046 19.316 5.7666 19.0399 5.7666H18.2201Z" fill="url(#paint4_linear_1939_19272)"/>
<line x1="11.6997" y1="17.0996" x2="11.6997" y2="32.9663" stroke="#5D84F9"/>
<defs>
<linearGradient id="paint0_linear_1939_19272" x1="18.0002" y1="4.63281" x2="18.0002" y2="32.9661" gradientUnits="userSpaceOnUse">
<stop stop-color="#CEDAFF"/>
<stop offset="1" stop-color="#BCCCFC"/>
</linearGradient>
<linearGradient id="paint1_linear_1939_19272" x1="18" y1="9.16699" x2="18" y2="13.7003" gradientUnits="userSpaceOnUse">
<stop stop-color="#8FAAFB"/>
<stop offset="1" stop-color="#5D84F9"/>
</linearGradient>
<linearGradient id="paint2_linear_1939_19272" x1="24.0123" y1="19" x2="24.0123" y2="24.6247" gradientUnits="userSpaceOnUse">
<stop stop-color="#FF6A00"/>
<stop offset="1" stop-color="#FF9013"/>
</linearGradient>
<linearGradient id="paint3_linear_1939_19272" x1="18.5295" y1="3.5" x2="18.5295" y2="13.6244" gradientUnits="userSpaceOnUse">
<stop stop-color="#8FAAFB"/>
<stop offset="1" stop-color="#5D84F9"/>
</linearGradient>
<linearGradient id="paint4_linear_1939_19272" x1="18.6303" y1="5.7666" x2="18.6303" y2="10.8666" gradientUnits="userSpaceOnUse">
<stop stop-color="#8FAAFB"/>
<stop offset="1" stop-color="#5D84F9"/>
</linearGradient>
</defs>
</svg>
