<svg width="16" height="14" viewBox="0 0 16 14" fill="none" xmlns="http://www.w3.org/2000/svg">
<path d="M11.3124 0.216309C10.0004 0.216309 8.74112 0.808046 7.9192 1.74314C7.09728 0.808046 5.83801 0.216309 4.52596 0.216309C2.20347 0.216309 0.378662 1.98422 0.378662 4.23428C0.378662 6.99572 2.94245 9.24578 6.82582 12.6647L7.9192 13.6217L9.01258 12.6574C12.896 9.24578 15.4597 6.99572 15.4597 4.23428C15.4597 1.98422 13.6349 0.216309 11.3124 0.216309ZM7.99461 11.5762L7.9192 11.6493L7.8438 11.5762C4.2545 8.42758 1.88677 6.34554 1.88677 4.23428C1.88677 2.7732 3.01785 1.67739 4.52596 1.67739C5.6872 1.67739 6.81828 2.40062 7.21793 3.40146H8.62801C9.02012 2.40062 10.1512 1.67739 11.3124 1.67739C12.8206 1.67739 13.9516 2.7732 13.9516 4.23428C13.9516 6.34554 11.5839 8.42758 7.99461 11.5762Z" fill="#A6A6A6"/>
</svg>
