<svg width="100" height="100" viewBox="0 0 100 100" fill="none" xmlns="http://www.w3.org/2000/svg">
<path d="M50.375 22.1145L48.4973 23.765L50.375 25.9013L52.2527 23.765L50.375 22.1145ZM56.3171 80.8704L54.6671 78.9922L54.6671 78.9922L56.3171 80.8704ZM56.2656 80.9156L54.6156 79.0375L54.612 79.0406L56.2656 80.9156ZM50.375 86.1109L48.7284 87.9921L50.3813 89.4387L52.0286 87.9858L50.375 86.1109ZM44.4844 80.955L42.8323 82.8314L42.8378 82.8362L44.4844 80.955ZM44.324 80.8138L45.976 78.9374L45.976 78.9373L44.324 80.8138ZM68.6562 11.3887C60.8596 11.3887 53.3941 14.8929 48.4973 20.464L52.2527 23.765C56.2121 19.2604 62.3153 16.3887 68.6562 16.3887V11.3887ZM93.5 35.5357C93.5 21.9586 82.4742 11.3887 68.6562 11.3887V16.3887C79.8633 16.3887 88.5 24.8681 88.5 35.5357H93.5ZM57.9671 82.7485C68.3624 73.6161 77.1977 65.8624 83.4042 58.5065C89.6367 51.1198 93.5 43.815 93.5 35.5357H88.5C88.5 42.1215 85.4683 48.3066 79.5827 55.2822C73.671 62.2886 65.1648 69.7698 54.6671 78.9922L57.9671 82.7485ZM57.9157 82.7937L57.9672 82.7485L54.6671 78.9922L54.6156 79.0375L57.9157 82.7937ZM52.0286 87.9858L57.9193 82.7906L54.612 79.0406L48.7214 84.2359L52.0286 87.9858ZM42.8378 82.8362L48.7284 87.9921L52.0215 84.2297L46.1309 79.0738L42.8378 82.8362ZM42.672 82.6901L42.8323 82.8313L46.1364 79.0786L45.976 78.9374L42.672 82.6901ZM7.25 35.5357C7.25 43.8006 11.0999 51.0942 17.3127 58.4721C23.4993 65.8189 32.3071 73.565 42.672 82.6902L45.976 78.9373C35.5088 69.7221 27.0296 62.2488 21.1373 55.2515C15.2711 48.2853 12.25 42.1101 12.25 35.5357H7.25ZM32.0937 11.3887C18.2758 11.3887 7.25 21.9586 7.25 35.5357H12.25C12.25 24.8681 20.8867 16.3887 32.0937 16.3887V11.3887ZM52.2527 20.464C47.3559 14.8929 39.8904 11.3887 32.0937 11.3887V16.3887C38.4346 16.3887 44.5379 19.2604 48.4973 23.765L52.2527 20.464Z" fill="#E8E8E8"/>
</svg>
